<svg xmlns="http://www.w3.org/2000/svg" viewBox="0 0 864 864"><defs><style>*{opacity: 0.5}.cls-2{fill:#fff}.cls-3{fill:#ff9f00}.cls-4{isolation:isolate}.cls-7{fill:#7e6b03}.cls-10{fill:#00aab5}.cls-12{fill:#ef4089}.cls-13{fill:#fbd506}.cls-14{fill:#19bdc4}.cls-15{fill:#18709c}.cls-16,.cls-17,.cls-18,.cls-21{fill:none;stroke-miterlimit:10}.cls-16{stroke:#fbd506}.cls-16,.cls-17,.cls-21{stroke-width:5px}.cls-17,.cls-18{stroke:#ef4089}.cls-18{stroke-width:8.58px}.cls-21{stroke:#19bdc4}</style></defs><path opacity="0.9" fill="#020024" d="M-5.2-5.2h874.5v874.4H-5.2z" id="Dark_Background" data-name="Dark Background"/><g id="dots"><path class="cls-2" d="M51.8 72.2a.6.6 0 00-.1-.3l-.4-.3a.5.5 0 00-.2-.1.4.4 0 00-.2 0 .4.4 0 00-.2 0 .5.5 0 00-.2 0v.2a.7.7 0 00-.1.3v.1a.6.6 0 00.1.3l.4.3a.4.4 0 00.1.2.4.4 0 00.3 0 .7.7 0 00.4-.2.6.6 0 00.1-.3zM123.3 31l-.2-.2a.9.9 0 00-.5-.1H122a1 1 0 00-.5 0l-.3.2a1 1 0 00-.5.2.7.7 0 000 1 .8.8 0 00.5.3h.3a1 1 0 00.5.2H122.6a1 1 0 00.7-.3 1 1 0 000-1.3zM95 90.3a2 2 0 00-.5-.8l-.4-.3a1.8 1.8 0 00-1-.2 1.4 1.4 0 00-.6.2 1.4 1.4 0 00-.6.3 1.5 1.5 0 00-.4.6 1.4 1.4 0 00-.2.7l.1.5a2 2 0 00.5.8l.3.3a2 2 0 001 .3 1.4 1.4 0 00.7-.2 1.4 1.4 0 00.6-.4 1.4 1.4 0 00.3-.6 1.3 1.3 0 00.2-.7zM193.9 40.4l-.2-.3a1.4 1.4 0 00-.4-.4l-.3-.2h-.1a1.3 1.3 0 00-.4-.3 2.8 2.8 0 00-.6 0 1.8 1.8 0 00-.5 0 .6.6 0 00-.2.1.8.8 0 00-.2.3l-.1.1a.9.9 0 000 .4v.2a1.1 1.1 0 000 .1 2 2 0 00.2.4 1.1 1.1 0 00.1.1 1.9 1.9 0 00.2.3 3.1 3.1 0 00.3.2l.1.1.3.2a.9.9 0 00.5.2.8.8 0 00.4 0 .9.9 0 00.4-.2 1 1 0 00.3-.4l.2-.2a1.3 1.3 0 000-.7zM140 89.1a.6.6 0 000 1.2.6.6 0 000-1.2zM135.1 53.4l-.2-.3a.8.8 0 00-.6-.4.8.8 0 00-.6.4l-.2.3a1 1 0 000 1 1 1 0 00.8.4 1 1 0 00.8-.5 1 1 0 000-1zM49.6 37.3l-.1-.4v-.1a.7.7 0 00-.2-.2 1.5 1.5 0 00-.3-.2.7.7 0 00-.6 0 .6.6 0 00-.2.2.6.6 0 00-.1.3v.1a.7.7 0 000 .3 1.3 1.3 0 00.1.3l.2.4a.6.6 0 00.2.2.5.5 0 00.3.1.5.5 0 00.3 0 .6.6 0 00.2 0 .7.7 0 00.4-.5v-.2a.8.8 0 00-.1-.3zM84.1 14.8v-.2a.6.6 0 00-.3-.2.5.5 0 00-.2-.2h-.2a.9.9 0 00-.5 0 .8.8 0 00-.4.2l-.1.1a1 1 0 00-.1.5.6.6 0 000 .3.8.8 0 00.2.3.9.9 0 00.4.2.9.9 0 00.5 0h.2l.2-.1a.6.6 0 00.2-.2.4.4 0 000-.2.7.7 0 00.2-.3zM17 99.4a.9.9 0 000 1.7.9.9 0 000-1.7zM20.7 46.4a.3.3 0 000 .6.3.3 0 000-.6zM249.6 71.3a1 1 0 00-.5-.5l-1-.6a.8.8 0 00-.3-.1h-.4a.5.5 0 00-.2 0 .9.9 0 00-.3.3v.2a1 1 0 000 .7 1.2 1.2 0 00.4.4h.1l.3.3.5.4a.8.8 0 00.3 0 .9.9 0 00.4 0 .8.8 0 00.3 0 .7.7 0 00.3-.4 1 1 0 000-.7zM94 60a1.9 1.9 0 00-.5-.8 1 1 0 00-.9-.3 4.5 4.5 0 00-2.2 1.6A2 2 0 0090 62a1.7 1.7 0 00.7 1 1.4 1.4 0 001.4.3.6.6 0 00.4-.6v-.1a2.4 2.4 0 00.8-.5A2.2 2.2 0 0094 61a2.1 2.1 0 000-.9zM252.2 25.2a.7.7 0 00-.2-.3.9.9 0 00-.5-.3h-.8a1.6 1.6 0 00-.2 0H250.2l-.1.1a.5.5 0 00-.2.3.3.3 0 000 .1.5.5 0 000 .3.8.8 0 00.1.3 1.5 1.5 0 00.3.3 3.2 3.2 0 00.3.3l.2.1a1 1 0 00.5.1h.2a1 1 0 00.5-.2.6.6 0 00.2-.3.7.7 0 000-.4.7.7 0 000-.4zM198.9 110.5a.8.8 0 00-.2-.3h-.1a.6.6 0 00-.2-.2.6.6 0 00-.3-.1h-.2a.8.8 0 00-.4.2l-.2.3v.2a.7.7 0 000 .3.4.4 0 000 .2.5.5 0 000 .2.4.4 0 00.3.2.5.5 0 00.1.1.7.7 0 00.4 0h.4l.2-.1.1-.2.1-.2a.6.6 0 000-.4.4.4 0 000-.2zM188.5 82.3l-.2-.4a.6.6 0 00-.2-.2.7.7 0 00-.2 0 .6.6 0 00-.3 0 .6.6 0 00-.2.2l-.1.4a.7.7 0 000 .7.7.7 0 00.6.3.7.7 0 00.6-.3.7.7 0 000-.7zM166.4 20a.6.6 0 000 1.1.6.6 0 000-1.1zM226.4 52.3a.7.7 0 000-.4 1 1 0 00-.3-.2 1 1 0 00-.5-.4h-.2a1.2 1.2 0 00-.6 0 1.1 1.1 0 00-.5.3l-.2.2a1 1 0 00-.1.5.9.9 0 000 .5.8.8 0 00.3.3 1.1 1.1 0 00.5.3 1.2 1.2 0 00.6 0h.2a1 1 0 00.5-.4 1 1 0 00.2-.2.7.7 0 00.1-.5zM298.2 19.8a.8.8 0 00-.2-.3l-.2-.2a.5.5 0 00-.2-.1.6.6 0 00-.3 0 .5.5 0 00-.3 0 .5.5 0 00-.3.1v.2a.8.8 0 00-.2.3v.2a.7.7 0 00.2.4l.2.2a.5.5 0 00.2.1.6.6 0 00.3 0 .6.6 0 00.3 0 .5.5 0 00.2-.1l.2-.2a.8.8 0 000-.4zM307.5 70.9a.5.5 0 000-.3.8.8 0 00-.3-.3l-.2-.1-.2-.1a.7.7 0 00-.4 0 .7.7 0 00-.4 0l-.1.2a.8.8 0 00-.3.2.7.7 0 00-.2.4v.3a1.2 1.2 0 000 .2 1 1 0 00.3.4 1 1 0 00.4.3.9.9 0 00.3 0 .7.7 0 00.3 0l.2-.1a1 1 0 00.4-.4v-.1l.2-.3a.7.7 0 000-.3zM282.5 45.8a.8.8 0 00-.2-.3l-.1-.1a.7.7 0 00-.4-.1h-.2a.6.6 0 00-.3 0 .6.6 0 00-.3.2.6.6 0 00-.1.2.6.6 0 00-.1.3v.3a.7.7 0 00.2.3l.1.1a.8.8 0 00.5.1h.2a.6.6 0 00.3 0 .5.5 0 00.2-.2.6.6 0 00.2-.2.6.6 0 000-.3zM352 13.7a.9.9 0 00-.3-.5h-.3a1 1 0 00-.4 0h-.5a.7.7 0 00-.2 0h-.4a.6.6 0 00-.5.2.6.6 0 000 .6 2.7 2.7 0 00.3.4 1 1 0 00.2.1l.2.1.2.1a2 2 0 001.1 0 .6.6 0 00.3-.1.6.6 0 00.3-.3.7.7 0 000-.3.7.7 0 000-.3zM334.5 49a.6.6 0 000 1 .6.6 0 000-1zM271.3 7a.7.7 0 00-.4-.1.7.7 0 00-.4.1l-.2.1a.7.7 0 000 1.2h.2a.8.8 0 00.4.2.8.8 0 00.4-.1.8.8 0 000-1.4zM207.4 13.4l-.1-.2V13a.9.9 0 00-.2-.2h-.1a.5.5 0 00-.2-.1.4.4 0 00-.2 0 .5.5 0 00-.3 0l-.1.1a.6.6 0 00-.2.3.3.3 0 000 .1.5.5 0 000 .3v.1l.1.2a.8.8 0 00.2.3l.1.1a.8.8 0 00.4.1.6.6 0 00.2 0 .6.6 0 00.2-.2.8.8 0 00.2-.5.7.7 0 000-.3zM244 140.2a1 1 0 000 2 1 1 0 000-2zM234 103a.6.6 0 000 1.3.6.6 0 000-1.3zM283.3 75.6a.7.7 0 000 1.4.7.7 0 000-1.4zM285.5 121.6a1.6 1.6 0 00-.4-.8l-.4-.2a1.6 1.6 0 00-.8-.2 1.6 1.6 0 00-1.5 1 1.1 1.1 0 00-.2.6v.4a1.6 1.6 0 00.5.8l.4.2a1.7 1.7 0 00.8.2 1.3 1.3 0 00.6-.1 1.5 1.5 0 00.9-.9 1.3 1.3 0 00.1-.6zM341.6 91.8a.9.9 0 000 1.8.9.9 0 000-1.8zM281.8 99.9a1 1 0 000 1.8 1 1 0 000-1.8zM158.7 126a.3.3 0 000-.2.4.4 0 00-.2-.2.3.3 0 00-.1 0 .4.4 0 00-.2-.2.6.6 0 00-.3 0H157.6l-.2.1-.1.2v.2a.5.5 0 000 .3.5.5 0 000 .2v.1a.6.6 0 000 .3.5.5 0 00.2.2.5.5 0 00.2.1.6.6 0 00.2 0h.2a.8.8 0 00.3 0l.1-.2a.6.6 0 00.1-.4v-.2a.6.6 0 000-.3zM195.6 157.9a.8.8 0 000 1.5.8.8 0 000-1.5zM218.8 76a.5.5 0 00-.2-.1.8.8 0 00-.2-.3h-.3a1 1 0 00-.5 0h-.4a.8.8 0 00-.2.2 1.1 1.1 0 00-.3.3V76a.9.9 0 01-.1.1l-.2.1v.2a.7.7 0 00-.2.3.5.5 0 000 .2.7.7 0 00.1.4 1 1 0 00.3.3.7.7 0 00.3 0 .7.7 0 00.4 0h.2a1.2 1.2 0 00.5-.1l.1-.1.3-.2a.8.8 0 00.2-.2.8.8 0 00.2-.3v-.3a.6.6 0 000-.3zM50.6 119.8a.8.8 0 000 1.5.8.8 0 000-1.5zM112.9 115zM113.3 115a1.4 1.4 0 000 2.8 1.4 1.4 0 000-2.9zM136.9 169.8l-.2-.4a.7.7 0 00-.2-.2.7.7 0 00-.4 0 .7.7 0 00-.6.2l-.2.4a.9.9 0 000 .9.9.9 0 00.8.4.9.9 0 00.8-.4.9.9 0 000-.9zM174.9 102.1a.6.6 0 00-.2-.2.8.8 0 00-.7-.2h-.2a1.1 1.1 0 00-.3.2.6.6 0 00-.3.5.6.6 0 000 .3.6.6 0 00.2.2h.1a.6.6 0 00.3.2h.2a.7.7 0 00.4 0 .8.8 0 00.3-.1l.2-.2a.8.8 0 000-.4.6.6 0 000-.3zM76.2 170.2H76a.7.7 0 00-.4-.2H75.4a.6.6 0 00-.3 0l-.5.1-.1.1a.5.5 0 00-.2.2.3.3 0 000 .1.5.5 0 00-.1.2.7.7 0 000 .4.6.6 0 00.4.3h.5a.6.6 0 00.2 0h.4a.8.8 0 00.5-.1.5.5 0 00.1-.2.6.6 0 00.1-.3.7.7 0 00-.2-.6zM88 138.2a1 1 0 00-.1-.4 1.2 1.2 0 00-.6-.7 1 1 0 00-.5 0h-.3a1.2 1.2 0 00-.5.3l-.2.2a1.1 1.1 0 00-.1.6v.3a.8.8 0 00.2.4v.2a.6.6 0 00.3.3.6.6 0 00.2 0 .7.7 0 00.4.2h.2l.3-.1a.6.6 0 00.2-.3.6.6 0 00.2-.3 1.2 1.2 0 00.2-.3 1 1 0 00.1-.4zM27.9 163a.7.7 0 000 1.4.7.7 0 000-1.3zM16.7 132a.6.6 0 000 1.3.6.6 0 000-1.3zM26.9 220.2l-.2-.2h-.2l-.2-.1H26a.6.6 0 00-.3 0v.2h-.2v.2a.7.7 0 000 .3V221l.1.2.2.3a.8.8 0 00.3.3.8.8 0 00.4 0h.2a.8.8 0 00.4-.1.6.6 0 00.2-.3.6.6 0 000-.3.9.9 0 00-.4-.8zM58.7 149.5a.4.4 0 00-.2-.2 1 1 0 00-.3-.2.8.8 0 00-.3 0l-.4.1h-.2a.4.4 0 00-.1.2.3.3 0 00-.1.2.5.5 0 000 .2V150.1a.5.5 0 00.2.2.4.4 0 00.2 0l.4.2a.8.8 0 00.4 0 .8.8 0 00.3-.2v-.1a.7.7 0 00.2-.4.4.4 0 00-.1-.3zM91.9 248.5a.8.8 0 00-.3-.3l-.2-.3-.2-.2H91a.5.5 0 00-.2 0 .3.3 0 00-.2 0 .6.6 0 00-.3 0 .6.6 0 00-.2.2l-.1.2a.8.8 0 00-.2.4v.2l.1.2.2.3.2.2a.5.5 0 00.3.2.8.8 0 00.7 0 .6.6 0 00.2-.2l.2-.1a.8.8 0 000-.5zM78.5 211.6h-.7v-.2l.4-.4.1-.3a1.3 1.3 0 00.2-.3.3.3 0 00-.1-.4.4.4 0 00-.4 0 1.5 1.5 0 00-.3.2l-.3.2-.4.4a4.2 4.2 0 00-.4.5l-.4.5a.5.5 0 000 .5.6.6 0 00.5.3h1.8a.5.5 0 00.5-.5.5.5 0 00-.5-.5zM155 218.2a.4.4 0 00-.1-.2.7.7 0 00-.3-.2 1 1 0 00-.6-.1h-.2l-.2-.1h.1a.6.6 0 00-.2-.1.5.5 0 00-.3 0 .7.7 0 00-.3 0 .8.8 0 00-.5.1.8.8 0 00-.2.3.8.8 0 000 .6.9.9 0 00.1.4 1.1 1.1 0 00.4.4 3 3 0 00.3.1 2.2 2.2 0 001.2.1h.1a1.7 1.7 0 00.4-.2.9.9 0 00.4-.5v-.3a.7.7 0 00-.1-.3zM114.3 156.2a.6.6 0 000 1.2.6.6 0 000-1.2zM178.4 192.5a.8.8 0 00-.7-.2h-.4l-.4.2a.6.6 0 00-.4.4.9.9 0 000 .1.7.7 0 000 .2.6.6 0 00.4.4h.4l.4.2a.8.8 0 001-.8.8.8 0 00-.3-.5zM119 204a.6.6 0 000 1.3.6.6 0 000-1.3zM240.2 230.2a.4.4 0 000 .9.4.4 0 000-.9zM227.2 182.7a.8.8 0 00-1 0 .9.9 0 00-.2.4l-.1.5a.3.3 0 000 .2.3.3 0 000 .2.3.3 0 00.2 0 .3.3 0 00.2 0h.6a.8.8 0 00.3-.2.8.8 0 00.2-.3.8.8 0 00-.2-.8zM286.1 164.9a1.2 1.2 0 00-.6-.3h-.2a.9.9 0 00-.4-.1 1.2 1.2 0 00-.6 0l-.5.1a1.3 1.3 0 00-.4.5.6.6 0 000 .1 1.3 1.3 0 00-.3.3 1.1 1.1 0 00-.1.5 1 1 0 00.2.6.9.9 0 00.3.3 1 1 0 00.7 0 1.3 1.3 0 00.5 0h.2a1 1 0 00.4-.1l.2-.2h.1a.9.9 0 00.9-.6.9.9 0 00-.4-1.1zM215 130a.5.5 0 00-.4-.1h-.5a1.6 1.6 0 00-.3 0h-.2a.3.3 0 000 .7h.2a1.7 1.7 0 00.3 0h.5a.5.5 0 00.3-.1.4.4 0 00.2-.3.4.4 0 00-.2-.2zM350.6 149.6l-.1-.2-.1-.2h-.2l-.2-.1a.6.6 0 00-.3 0 .4.4 0 00-.2 0 .6.6 0 00-.3.2v.1h-.1a.5.5 0 00-.2.3.5.5 0 00.2.5l.1.2.2.1h.2a.6.6 0 00.3 0 .3.3 0 00.2 0 .4.4 0 00.2 0 .5.5 0 00.1-.2.4.4 0 00.1-.2.6.6 0 00.1-.3zM328.7 111l-.1-.4v-.1a.7.7 0 000-.4.7.7 0 00-.2-.3l-.2-.2a.8.8 0 00-.3-.3.7.7 0 00-.4 0 .8.8 0 00-.4 0 .9.9 0 00-.3.3l-.2.2a.8.8 0 00-.1.3.8.8 0 000 .5l.1.2a1 1 0 00.4.4l.3.4a.6.6 0 00.2.2.5.5 0 00.3.1h.2a.6.6 0 00.3 0 .4.4 0 00.1-.1.6.6 0 00.2-.2l.1-.2a1 1 0 000-.4zM308 90.7a.5.5 0 000 1.1.5.5 0 000-1zM364.7 73.5a.1.1 0 000 .2.1.1 0 100-.2zM333.6 30.6a.4.4 0 000-.2.8.8 0 00-.4-.3l-.2-.1h-.3a.7.7 0 00-.3 0 .7.7 0 00-.3.3h-.1a1 1 0 00-.2.2.6.6 0 000 .2l-.2.3a1.2 1.2 0 000 .3v.8a.6.6 0 00.3.2.4.4 0 00.2.1.5.5 0 00.2 0 .5.5 0 00.2 0 .7.7 0 00.4 0 2 2 0 00.3-.3l.1-.1a1.5 1.5 0 00.3-.3 3.6 3.6 0 00.2-.5V31a.8.8 0 00-.2-.4zM374 50v-.1a.7.7 0 00-.3-.2l-.4-.1a2.5 2.5 0 00-.4-.2h-.4a.7.7 0 00-.5 0 .6.6 0 00-.4.3.7.7 0 00.1.5.7.7 0 00.4.2l.3.2a7.5 7.5 0 001 .3.6.6 0 00.4 0 .6.6 0 00.3-.4.6.6 0 000-.5zM333.1 70.8h-.1a.7.7 0 00-.4-.2h-.2a.9.9 0 00-.5.1l-.3.1h-.1a.3.3 0 00-.2.2.4.4 0 000 .2.6.6 0 000 .3.5.5 0 00.3.2l.2.1h.1a.8.8 0 00.5.1h.2a.4.4 0 00.3 0 .4.4 0 00.2-.2.7.7 0 00.2-.5.7.7 0 00-.2-.4zM397.1 18.6a2.8 2.8 0 00-1.2-.4h-.2a1.4 1.4 0 00-.6 0 2 2 0 00-.3 0 1.6 1.6 0 00-.7.4l-.2.2a3 3 0 00-.5.6 1 1 0 00-.2.3 1.3 1.3 0 00-.1.5.6.6 0 00.3.6.6.6 0 00.7-.2c-.2.1 0 0 0 0a1.2 1.2 0 00.2-.1l.1-.2a2.6 2.6 0 01.3-.1 2 2 0 00.3 0l.3-.1h.2a1 1 0 00.3-.2h.5a.8.8 0 00.6.1.7.7 0 00.5-.3.8.8 0 00-.3-1.1zM394.5 20.3zM430.3 134a.7.7 0 00-.4-.3.7.7 0 00-.4 0l-.4.1h-.3a.7.7 0 00-.2.1.5.5 0 00-.3.3.7.7 0 000 .2.6.6 0 000 .3.6.6 0 00.2.2h.1a.5.5 0 00.2.2h.7a.7.7 0 00.4 0 .8.8 0 00.4-.1.8.8 0 000-1.1zM381.3 213.6v-.1a.7.7 0 00-.1-.3.5.5 0 00-.2-.3.7.7 0 00-.2-.2.5.5 0 00-.3 0h-.2a.8.8 0 00-.4.2l-.1.1a.8.8 0 00-.1.4v.2a.4.4 0 000 .1.5.5 0 000 .3l.2.2a.7.7 0 00.6.4.7.7 0 00.5-.4l.1-.2.1-.2a.8.8 0 000-.2zM390.7 123.5a1 1 0 00-.2-.4l-.3-.2v-.1h-.1l-.2-.2-.3-.1h-.2a.9.9 0 00-.4 0 .7.7 0 00-.3.2l-.1.2a1 1 0 00-.2.5 2.3 2.3 0 000 .3.5.5 0 00.2.3l.1.2h.1l.3.3a.7.7 0 00.3.2.7.7 0 00.4.1 1 1 0 00.7-.3l.1-.2a1 1 0 00.2-.5zM428.6 64.1V64a1 1 0 00-.3-.3l-.5-.3h-.1l-.1-.1h-.2a1.1 1.1 0 00-.5 0h-.2a.7.7 0 00-.3.2.6.6 0 00-.1.2.7.7 0 000 .3.6.6 0 000 .3l.1.2a1 1 0 00.4.4 1 1 0 00.2 0l.1.1.5.2a.6.6 0 00.4 0 .5.5 0 00.3 0l.1-.2a.8.8 0 00.2-.3.5.5 0 000-.2.6.6 0 000-.3zM394.9 84a.8.8 0 000 1.5.8.8 0 000-1.5zM316 183.2v.1a.4.4 0 000-.3.7.7 0 00-.4-.3h-.2a3 3 0 01-.6-.2h-.2a2.6 2.6 0 01-.2-.2l-.3-.2-.1-.2-.2-.2a.6.6 0 00-.9-.3.7.7 0 00-.2 1 3.5 3.5 0 001.2 1.2 3.8 3.8 0 00.7.3 2 2 0 00.4.1 1.3 1.3 0 00.6 0 .7.7 0 00.5-.4.9.9 0 000-.2.8.8 0 00-.1-.3zM314.8 182.5zM324.7 144.4a1 1 0 00-.2-.4l-.2-.2-.2-.1a.7.7 0 00-.3-.3h-.2a1.1 1.1 0 00-.5 0 1 1 0 00-.4.2 1 1 0 00-.3.4 1 1 0 000 .5.7.7 0 00.2.4.4.4 0 00.1 0v.1l.2.1.2.3a.8.8 0 00.3.2.8.8 0 00.4 0 .8.8 0 00.4 0 .7.7 0 00.3-.2l.1-.2a1 1 0 00.2-.5zM462.5 16a8.8 8.8 0 00-1.4-.2h-1a.8.8 0 00-.4 0l-.2.2a.6.6 0 000 .7.8.8 0 00.4.4l.3.1.6.3a3 3 0 00.6.1l.6.1a.8.8 0 001-.6.9.9 0 00-.5-1zM413 38.6a.7.7 0 000 1.3.7.7 0 000-1.3zM427 105.2a.7.7 0 00-.1-.4.5.5 0 00-.2-.2.8.8 0 00-.3-.2.7.7 0 00-.4 0h-.2a1 1 0 00-.4.2.5.5 0 00-.2.2v.2a.6.6 0 000 .3v.3a.7.7 0 000 .4.7.7 0 00.2.3.7.7 0 00.3.2.8.8 0 00.4.1h.2a1 1 0 00.4-.2l.2-.2a.9.9 0 00.1-.5v-.4a1 1 0 000-.1zM478.7 52.4l-.9-.3-.6-.3a1.2 1.2 0 00-.3-.1.8.8 0 00-.5 0 1 1 0 00-.5.1 1.2 1.2 0 00-.3.3.9.9 0 00-.3.4.9.9 0 000 .6.8.8 0 00.2.3.8.8 0 00.3.4 1.2 1.2 0 001 .2h.7l.7.2a1 1 0 00.7-.1 1 1 0 00-.2-1.7zM465.6 105a1 1 0 00-.3-.5l-.2-.2a1 1 0 00-.5-.1h-.4a.7.7 0 00-.4 0 1 1 0 00-.6 1v.2a.9.9 0 00.3.5l.2.1a1 1 0 00.5.2h.3a.7.7 0 00.4-.1.9.9 0 00.6-.6.7.7 0 000-.4zM449.2 39.6a.6.6 0 000 1.2.6.6 0 000-1.2zM436 249.4a1.3 1.3 0 000-.2l-.2-.1a1 1 0 000-.3v-.2a.8.8 0 00-.3-.4.7.7 0 00-.3-.2.9.9 0 00-.3-.1.8.8 0 00-.4 0 .7.7 0 00-.3.3.8.8 0 00-.2.4 1.6 1.6 0 000 .3v.1a2.5 2.5 0 000 .3.6.6 0 000 .1 2 2 0 000 .4l.3.2a1 1 0 000 .1 3.4 3.4 0 00.3.2.6.6 0 00.3.1.6.6 0 00.4 0h.2l.2-.2a.6.6 0 00.1-.2.4.4 0 000-.2.7.7 0 00.2-.4zM312.2 289.2a3 3 0 00-.4.5l-.3.5a7.8 7.8 0 00-.5.9l-.9 1.9a.6.6 0 101 .6l1.1-1.8a6.4 6.4 0 00.9-2 .6.6 0 00-.9-.6zM391.4 170a.6.6 0 00-.2-.3l-.2-.1-.2-.1a.7.7 0 00-.3 0 .6.6 0 00-.3 0l-.3.3-.2.1-.5.4a1 1 0 00-.4.3 1 1 0 000 .6v.3a1 1 0 00.2.4 1.2 1.2 0 00.7.3 1 1 0 00.5-.1 1 1 0 00.4-.4l.4-.4.1-.3a2 2 0 00.2-.2l.1-.2a.7.7 0 000-.4.4.4 0 000-.2zM464.6 177.5a1.1 1.1 0 000 2.2 1.1 1.1 0 000-2.2zM350.3 201.8h-1 1zM294.8 272.5h-.2a.6.6 0 00-.3 0 .5.5 0 00-.2 0h-.2a2.6 2.6 0 00-.4.3l-.7.5a.8.8 0 00-.3.4.7.7 0 000 .5.7.7 0 00.5.3.7.7 0 00.5 0l.7-.5a3.7 3.7 0 00.5-.3l.1-.2a.7.7 0 00.3-.5.6.6 0 00-.3-.5zM302.7 220.9l-.2-.2-.2-.2a.7.7 0 00-.4-.1.7.7 0 00-.4 0 2.7 2.7 0 00-.4.1l-.4.2a1.2 1.2 0 00-.5.3l-.2.2a1 1 0 00-.1.5 1 1 0 000 .5 1 1 0 00.7.6 1 1 0 00.4 0 1 1 0 00.6 0l.3-.3.2-.1.4-.3.2-.2a.9.9 0 000-.4.6.6 0 000-.3.8.8 0 000-.3zM261 197.9a.5.5 0 00-.2-.3.5.5 0 00-.5 0 1.9 1.9 0 00-.2.2 2.6 2.6 0 00-.2.2l-.2.4-.4.6a1 1 0 000 1 1 1 0 00.6.4 1 1 0 00.7 0 1 1 0 00.4-.4 1 1 0 00.1-.5v-1-.2a1.1 1.1 0 000-.4zM178.6 255.5v-.2a1.2 1.2 0 00-.2-.3.5.5 0 00-.9 0 1.2 1.2 0 00-.1.3v.1l-.1.2a.9.9 0 000 .5v.3l.1.2a.7.7 0 00.2.1.3.3 0 00.2.1.5.5 0 00.2.1.9.9 0 00.4-.1.5.5 0 00.2-.2.5.5 0 00.1-.2v-.4a.6.6 0 000-.3.7.7 0 00-.1-.2zM210.6 213.2a.6.6 0 00-.1-.3.8.8 0 00-.3-.2.8.8 0 00-.4 0l-.4.1-.2.1a.5.5 0 00-.2.2.4.4 0 000 .1.5.5 0 00-.1.3V213.8a.4.4 0 00.2.2.5.5 0 00.2 0l.4.2a.8.8 0 00.4 0 .8.8 0 00.4-.2v-.2a.7.7 0 00.2-.3.7.7 0 000-.3zM234.4 295.5l-.1-.2a.7.7 0 00-.3-.3.7.7 0 00-.3 0 .7.7 0 00-.4 0 .7.7 0 00-.3.3l-.1.2a.9.9 0 00-.1.4.7.7 0 000 .4.7.7 0 00.2.3 1 1 0 00.3.1.6.6 0 00.4.2.7.7 0 00.3-.1 1 1 0 00.2-.2.8.8 0 00.2-.3.8.8 0 00.1-.4 1 1 0 000-.4zM266.2 254a.9.9 0 000 1.7.9.9 0 000-1.8zM135.4 307.8l-.1-.2a.8.8 0 00-.4-.2.5.5 0 00-.2 0 .6.6 0 00-.3 0 .6.6 0 00-.2 0 .8.8 0 00-.3.2l-.2.2v.3l-.2.2v.4l-.3.6a.8.8 0 000 .4 1 1 0 00.4.7.7.7 0 00.3.2 1 1 0 00.8-.1 1.1 1.1 0 00.5-.6l.2-.7v-.3a2 2 0 00.2-.6 1 1 0 00-.2-.5zM128.7 258a2 2 0 00-.2-.5l-.1-.3-.4-.5a.9.9 0 00-.7-.4 1 1 0 00-.6.2.5.5 0 00-.2.3.7.7 0 000 .3.9.9 0 00.3.8l.6.3.3.2a2.2 2.2 0 00.4.1.5.5 0 00.6-.6zM58 300.4h-.2a.4.4 0 00-.2 0 .6.6 0 00-.3 0H57a.6.6 0 00-.3.2l-.1.1-.2.1-.2.3a.8.8 0 00-.2.3.7.7 0 000 .3.6.6 0 000 .3.8.8 0 00.2.3 1 1 0 00.6.3h.2a.8.8 0 00.4-.3l.2-.2.1-.1.1-.1a.7.7 0 00.2-.3v-.5a.7.7 0 000-.3.6.6 0 000-.4zM29.3 267.3a.6.6 0 000 1 .6.6 0 000-1zM62.8 234.3a.7.7 0 00-.8-.2l-.4.1-.2.1a.7.7 0 00-.2 0l-.1.2a.4.4 0 000 .7.7.7 0 00.3.2h.2l.4.1a.7.7 0 00.7-.2.7.7 0 000-1zM87.4 298a.6.6 0 00-1-.3l-.2.2a2 2 0 00-.2.3l-.2.5-.3 1a.9.9 0 000 .6 1 1 0 001.4.3.6.6 0 00.3-.3.9.9 0 000-.4l.2-1v-.4a2.5 2.5 0 000-.5zM115.9 233.9a.8.8 0 00-.2-.5.7.7 0 00-.5-.2.7.7 0 00-.5.2v.2a.7.7 0 00-.2.3l-.1 1.4a.8.8 0 00.2.6.8.8 0 00.6.2.8.8 0 00.6-.2.8.8 0 00.2-.6zM172.3 299.6l-.3-.8v-.2a.5.5 0 00-.2-.2.3.3 0 00-.1 0 .4.4 0 00-.3-.1.6.6 0 00-.3 0 .5.5 0 00-.2.2.6.6 0 00-.1.3l-.2.8a.9.9 0 00.2.9.9.9 0 00.6.3.7.7 0 00.3-.1.6.6 0 00.3-.2.9.9 0 00.3-.9zM144 280.1l-.2-.6-.1-.7a.6.6 0 00-.2-.3.6.6 0 00-.4-.1.7.7 0 00-.3 0 .6.6 0 00-.2.4l-.2.7-.2.6a1 1 0 001 1.2 1 1 0 00.6-.3 1 1 0 00.2-.9zM220.2 256.3a.9.9 0 000 1.7.9.9 0 000-1.7zM92.4 282.9a.5.5 0 00-.4-.3h-.2a.5.5 0 00-.3.1l-.2.1-.4.2a3.5 3.5 0 00-.3.2l-.4.2a.8.8 0 00-.3.5.8.8 0 000 .5.7.7 0 00.5.4.7.7 0 00.5-.1 9.4 9.4 0 00.9-.6l.3-.3.1-.1a.8.8 0 00.2-.3.6.6 0 000-.3.5.5 0 000-.2zM61.8 266.5a1.3 1.3 0 000 2.6 1.3 1.3 0 000-2.6zM191.8 219.2a.7.7 0 000 1.5.7.7 0 000-1.5zM200.6 294.8a1 1 0 00-.4-.4l-.5-.3-.3-.2a1.4 1.4 0 00-.4-.2.6.6 0 00-.8.7 1.3 1.3 0 00.2.5l.2.3.4.5a1.3 1.3 0 00.3.3 1 1 0 00.5.1h.2a.8.8 0 00.4-.2.7.7 0 00.2-.3.6.6 0 000-.4.9.9 0 000-.4zM110 186.8a.6.6 0 000 1.2.6.6 0 000-1.2zM25.4 13.7a.9.9 0 00-1.1-.6 1 1 0 00-.5.3l-.1.2-.2.2-.1.2a1 1 0 00-.2.7l-.2.5a6.4 6.4 0 00-.2.7.7.7 0 00.3.7.7.7 0 00.8-.1 5.1 5.1 0 00.5-.6l.3-.5a1 1 0 00.3-.4l.1-.3.1-.2a.6.6 0 000-.1 1 1 0 00.2-.7zM337.6 250a1.3 1.3 0 00-1-.6h-.4a1.2 1.2 0 00-.5.2l.2-.1a1.2 1.2 0 00-.6 1 1.4 1.4 0 000 .3v-.1.1a1.1 1.1 0 01-.1.2h-.1l-.3.1a1.7 1.7 0 01-.3 0 1.7 1.7 0 00-.7.4.8.8 0 00-.3-.3.9.9 0 00-1 1.3 2.2 2.2 0 001 1 1.6 1.6 0 001.7.7 2.7 2.7 0 001.4-.7 3.5 3.5 0 001-1.2 2.6 2.6 0 000-2.3zM401.4 272.6a1.2 1.2 0 00-.6-.7 1.1 1.1 0 00-.9 0h-.2a.6.6 0 01-.2-.2 2.6 2.6 0 00-.5-.3.9.9 0 00-.4-.1.7.7 0 00-.3 0 .6.6 0 00-.3.2.9.9 0 00-.2.4 1.3 1.3 0 00.1 1.2 2.1 2.1 0 00.8.8 2.2 2.2 0 00.8.2 2.2 2.2 0 00.5 0 2.1 2.1 0 00.6 0 1.3 1.3 0 00.7-.6 1 1 0 00.1-.4.9.9 0 000-.5zM425.7 187.3a.8.8 0 00-.3-.4l-.2-.1a1.1 1.1 0 00-.6-.2h-.3a1 1 0 00-.4.3l-.5.4-.2.3-.1.2-.1.2v.2a1 1 0 000 .6 1 1 0 00.6.6 1 1 0 00.6 0 .8.8 0 00.3 0 .7.7 0 00.2-.2.8.8 0 00.2 0l.1-.2.4-.4a.8.8 0 00.2-.4 1 1 0 000-.9zM409 237.2a1 1 0 000 2 1 1 0 000-2zM453.4 154.1l-.4-.7a.7.7 0 00-1.1 0l-.4.7a1 1 0 00-.1.5 1 1 0 00.1.6 1 1 0 001 .5 1 1 0 001-1 1.1 1.1 0 00-.1-.6zM531.7 107.4l-.1-.3a1 1 0 00-.3-.3.8.8 0 00-.4-.1 2.9 2.9 0 00-.6-.1h-.4a.7.7 0 00-.4 0 .8.8 0 00-.4.3.9.9 0 00-.2.4.9.9 0 00-.1.4v.3a1 1 0 00.3.4l.2.2a1 1 0 00.5.2h.4a3.5 3.5 0 00.7-.1l.2-.1a.8.8 0 00.3-.3.6.6 0 00.2-.2.9.9 0 000-.4zM488.1 137a1.1 1.1 0 000 2.2 1.1 1.1 0 000-2.2zM500.3 88.6a.8.8 0 000 1.6.8.8 0 000-1.6zM561.2 55.8l-.5-.8-.3-.5a1 1 0 00-.2-.3l-.2-.1a.8.8 0 00-.3-.2.7.7 0 00-.5 0 .7.7 0 00-.5.7 2 2 0 00.1.6l.2.5.3.9a1 1 0 00.3.4l.2.2a1 1 0 00.5.1.7.7 0 00.4 0 1 1 0 00.6-.6.9.9 0 000-.4 1.1 1.1 0 000-.5zM522.6 26.7a1 1 0 00-1 0l-.8.3a.8.8 0 00-.3.3.8.8 0 000 .3.8.8 0 000 .4.8.8 0 00.3.3l.7.3a1 1 0 001.1 0 1.1 1.1 0 00.5-1 1 1 0 00-.5-1zM466.9 79.4a.6.6 0 00-.7-.3 2.6 2.6 0 00-1 .6 4.6 4.6 0 00-.7.8 4.4 4.4 0 00-.7 2 .8.8 0 00.3.6.9.9 0 00.6.2.8.8 0 00.8-.8v-.2a3.6 3.6 0 01.1-.6.8.8 0 00.1-.1 3.3 3.3 0 01.2-.4l.1-.2a1.7 1.7 0 01.2-.3l.2-.1v-.1a3.5 3.5 0 01.3-.3.7.7 0 00.2-.8zM582.3 11.7l-.1-.3a1 1 0 00-.4-.4l-1-.4-.4-.2a2 2 0 00-.4-.1 1.2 1.2 0 00-.3 0h-.2a.9.9 0 00-.8.5.8.8 0 000 .4.5.5 0 000 .2.7.7 0 00.2.3l.1.2a1.1 1.1 0 00.4.3l.4.2.9.5a1.1 1.1 0 00.8.1 1.2 1.2 0 00.6-.5 1.1 1.1 0 00.2-.8zM585.6 148.5a1 1 0 000 1.9 1 1 0 000-2zM529.9 68.4a1 1 0 000 2 1 1 0 000-2zM618.6 78a1 1 0 000 2 1 1 0 000-2zM553.4 114.4a1 1 0 000 2.1 1 1 0 000-2zM513.1 215.2l-.2-.4a1.4 1.4 0 00-.3-.7l-.4-.3-.7-.7a1 1 0 00-.7-.3 1 1 0 00-1 1 1.1 1.1 0 00.3.7l.7.7.3.4a1.3 1.3 0 00.6.3l.4.2a.7.7 0 001-1zM488.1 268.2a1 1 0 00-1.3-.4H486.2a2 2 0 01-.2-.2l-.2-.2a.9.9 0 010-.1v-.1a1.6 1.6 0 010-.2 1 1 0 00-.2-.6 1 1 0 00-1.7.2 2.5 2.5 0 00.6 2.3 2.8 2.8 0 00.8.6 2.5 2.5 0 001.2.3 2.4 2.4 0 001.3-.4 1 1 0 00.4-.5 1 1 0 000-.7zM532.5 160.5a1.1 1.1 0 000 2.2 1.1 1.1 0 000-2.2zM470 230.3v-.5a1.8 1.8 0 000-.3 1.6 1.6 0 00-.2-.3v-.1a.8.8 0 00-1.4 0v.1a1.6 1.6 0 00-.2.3 1.6 1.6 0 000 .3v.5l-.2.9a.9.9 0 00.1.4.7.7 0 00.3.4 1 1 0 001.5 0 1 1 0 00.3-.8c-.2-.3-.2-.6-.2-1zM603 224a1 1 0 000 2.2 1 1 0 000-2.1zM558.6 194.4a.2.2 0 000 .5.2.2 0 000-.5zM633 135a1.1 1.1 0 00-.4-.4 1 1 0 00-.4-.3 1 1 0 00-.5-.1 1.3 1.3 0 00-.7.2l-.9.5-.4.3a2.6 2.6 0 00-.3.2 2.5 2.5 0 00-.2.3l-.1.2a1 1 0 000 1 1 1 0 00.8.5h.2a1.2 1.2 0 00.5 0l.5-.2 1-.4a1.4 1.4 0 00.5-.3l.2-.3a1.4 1.4 0 00.2-.7 1.2 1.2 0 000-.5zM585.6 102.1a1.2 1.2 0 000 2.4 1.2 1.2 0 000-2.4zM616.8 30.1a.7.7 0 00-.4-.4.7.7 0 00-.6.1 1.2 1.2 0 00-.4.4l-.1.3-.3.7-.6 1.4a1 1 0 00.1.8 1 1 0 00.6.4 1 1 0 001.2-.6c0-.5.2-1 .4-1.4l.1-.7v-.4a1.3 1.3 0 000-.6zM672.6 41.3a1.1 1.1 0 000 2.3 1.1 1.1 0 000-2.3zM643.9 91.3a.7.7 0 000 1.3.7.7 0 000-1.3zM689.7 130a3.2 3.2 0 00-.3-.6l-.4-.5-.7-1a1.3 1.3 0 00-.4-.4 1.2 1.2 0 00-.6-.1 1.3 1.3 0 00-.8.3 1.2 1.2 0 00-.2 1.4 1.2 1.2 0 00.5.4l1 .7.4.3a4 4 0 00.6.3.7.7 0 00.9-.9zM668.2 200.7a1 1 0 000 1.9 1 1 0 000-2zM643 280.7a1 1 0 000 1.9 1 1 0 000-1.9zM618 193.4v-.3l-.2-.6a1 1 0 00-1.4-.3 1.1 1.1 0 00-.4.3 4.3 4.3 0 00-.2.6l-.1.3a1.3 1.3 0 00.3 1.3l.3.2a1.2 1.2 0 00.6.1 1.4 1.4 0 00.9-.3 1.3 1.3 0 00.3-1.3zM560.3 194.3a1.2 1.2 0 000 2.4 1.2 1.2 0 000-2.3zM544.7 281.2a1.3 1.3 0 000 2.6 1.3 1.3 0 000-2.6zM552 239.6l-.1-.3-.2-.3-.3-.2-.3-.1a1 1 0 00-.5 0 .7.7 0 00-.3 0 .9.9 0 00-.4.3l-.1.2a.6.6 0 00-.2.2.6.6 0 00-.2.2.4.4 0 000 .3v.2a.6.6 0 00.2.2v.1a1.7 1.7 0 00.2.2l.1.1.3.2.3.2a1 1 0 00.5 0 .6.6 0 00.3-.1.6.6 0 00.2-.2.6.6 0 00.3-.2.6.6 0 00.1-.3 1 1 0 00.1-.5zM597.7 277.8a1.3 1.3 0 000 2.5 1.3 1.3 0 000-2.5zM585 342.2a1.2 1.2 0 00-.3-.5l-.6-.7-.3-.4a2.5 2.5 0 00-.3-.3.8.8 0 00-.4-.2.8.8 0 00-.5 0 .8.8 0 00-.4.7 3.6 3.6 0 000 .6l.2.5.2 1a1.2 1.2 0 00.9.8 1.3 1.3 0 001-.1 1.3 1.3 0 00.5-.8 1.2 1.2 0 000-.6zM485.8 318.3a.8.8 0 00-.7 0 .7.7 0 00-.4.1l-.2.1h-.6a1.1 1.1 0 00-1.7-.3 1 1 0 00-.4.7 1 1 0 000 .5 1 1 0 00.3.5 2.5 2.5 0 002.1.8 2.7 2.7 0 001.2-.4 3 3 0 00.5-.3 1.4 1.4 0 00.3-1 .8.8 0 00-.4-.7zM514.2 250a1.2 1.2 0 000 2.4 1.2 1.2 0 000-2.3zM533.4 340.3a.6.6 0 000 1 .6.6 0 000-1zM389 321.4l-.1-.2a.7.7 0 00-.3-.4.7.7 0 00-.3-.1 1.4 1.4 0 00-.4 0h-.3l-.4-.1a.8.8 0 00-.4 0 1 1 0 00-.6.7.8.8 0 00-.1.4v.3a1 1 0 00.3.5l.2.2a1.2 1.2 0 00.6.1H387.8a1.4 1.4 0 00.4 0l.3-.2a.8.8 0 00.3-.2.4.4 0 00.1-.3.7.7 0 000-.4zM439.4 287.4a1.2 1.2 0 000 2.4 1.2 1.2 0 000-2.4zM571.4 304.4a1 1 0 00-1.6-.7l-.2.3a1.4 1.4 0 00-.4.1 1.8 1.8 0 00-.5.5l-.2.3a2.5 2.5 0 00-.6.6v.1a3.3 3.3 0 00-1 1.5l-.1.4a1.9 1.9 0 000 1 1.4 1.4 0 00.2.7 1.4 1.4 0 00.5.5 1.4 1.4 0 001.4 0 1.7 1.7 0 00.9-.5l.3-.4a3.3 3.3 0 00.7-1.6l.2-.4a1.2 1.2 0 000-.5l.2-.3a2.6 2.6 0 00.1-.5 1.3 1.3 0 000-.6.8.8 0 000-.1zM433.6 419.7a.4.4 0 00-.3-.2H432.7a.4.4 0 00-.2 0h-.1a.3.3 0 00-.2.2.3.3 0 000 .2.4.4 0 000 .1l.2.2a.4.4 0 00.2 0h.7a.4.4 0 00.3-.1.4.4 0 00.2-.4.4.4 0 00-.2 0zM503.8 311.6a.5.5 0 000 1 .5.5 0 000-1zM702 206.6h-.1zM703.6 206a3.5 3.5 0 00-.6.3H702.7l-.6.2h-1.2l-.2-.2h-.2v-.2a1 1 0 00-1.5 0 1 1 0 000 1.4 4 4 0 003 1.3 3.2 3.2 0 001.6-.3 6.9 6.9 0 00.7-.5 1.8 1.8 0 00.6-.9.9.9 0 00-1.3-1.1zM700.9 206.4zM627.6 257.1a.7.7 0 000-.3.9.9 0 00-.3-.4l-.1-.1a1.1 1.1 0 00-.2-.3.5.5 0 00-.3-.1.5.5 0 00-.2-.1h-.2a.7.7 0 00-.3.2 1.1 1.1 0 00-.2.2l-.2.2-.1.2-.2.3a.9.9 0 000 .5.5.5 0 00.1.3.5.5 0 00.2.3.5.5 0 00.2.2.5.5 0 00.3.2 1 1 0 00.4 0h.7l.2-.2.2-.3.1-.3a1 1 0 000-.5zM659.3 155l-.1-.2a.7.7 0 00-.3-.2.5.5 0 00-.2 0 .7.7 0 00-.4 0 1.1 1.1 0 00-.6.3 1.8 1.8 0 00-.3.4l-.2.4-.5.9a1.3 1.3 0 00-.2.9 1.2 1.2 0 00.6.7 1.2 1.2 0 00.9.1l.3-.1a1.2 1.2 0 00.4-.4l.4-1 .2-.5a1.7 1.7 0 00.2-.7 1.4 1.4 0 00-.2-.6zM771.8 33.5a1.1 1.1 0 00-.4-.6l-1.4-1-.6-.4a1.4 1.4 0 00-.5-.3h-.4a1 1 0 00-1 .2.9.9 0 000 1l.2.3a1.6 1.6 0 00.4.5h.2l.7.5 1.4.9a1 1 0 001.3-.4 1 1 0 00.1-.8zM710.7 16.5l-.7-.7-.4-.4a1.4 1.4 0 00-.6-.3l-.4-.2a.7.7 0 00-.9 0 .7.7 0 000 1l.1.3a1.4 1.4 0 00.4.7l.3.3.7.7a1 1 0 00.7.3 1 1 0 001-1 1 1 0 00-.2-.7zM756 123.3l-.2-.1a1.1 1.1 0 00-.6-.2.9.9 0 00-.5.1.7.7 0 00-.4.2 1.2 1.2 0 00-.3 1.2l.3.8v.2a.7.7 0 00.3.3.4.4 0 00.2.1.7.7 0 00.4 0h.4a.6.6 0 00.3-.3.7.7 0 00.2-.3l.2-.8a1.2 1.2 0 00-.3-1.2zM690 66.7a1 1 0 000 2 1 1 0 000-2zM807.4 74a.7.7 0 000 1.3.7.7 0 000-1.4zM736.4 79.3a.8.8 0 00-.3-.4 1.3 1.3 0 00-1.3-.3l-.8.2-.2.1a.9.9 0 00-.3.3.5.5 0 00-.1.2 1 1 0 00-.1.4v.6a.8.8 0 00.3.2.8.8 0 00.4.3l.8.2a1.3 1.3 0 00.7 0 1.2 1.2 0 00.6-.4l.2-.2a1.3 1.3 0 00.2-.7 1 1 0 00-.1-.5zM742.3 46.3a.8.8 0 00-.2-.3 1 1 0 00-.5-.3 1 1 0 00-.6 0H740.4a.7.7 0 00-.2 0l-.2.1a1 1 0 00-.3.3.5.5 0 000 .2.7.7 0 00-.2.4v.2l.1.3a.8.8 0 00.3.2.8.8 0 00.3.2h.7a1 1 0 00.7 0 1 1 0 00.5-.2l.1-.2a1 1 0 00.2-.6.8.8 0 000-.3zM795 110.1a1.2 1.2 0 00-.6-.2 1.2 1.2 0 00-.6.2l-.2.2h-.2l-.2.2a.6.6 0 00-.2.3.7.7 0 000 .3v.2a.8.8 0 00.3.5h.2l.2.2a1.2 1.2 0 00.6.2 1.2 1.2 0 00.7-.2 1.2 1.2 0 00.6-1 1.2 1.2 0 00-.6-.9zM710 161.2a1.3 1.3 0 000 2.6 1.3 1.3 0 000-2.6zM720.5 110c0-.3-.2-.5-.3-.8v-.2a.7.7 0 00-.2-.2.5.5 0 00-.2 0 .7.7 0 00-.3-.1H719.2a.5.5 0 00-.2.2.6.6 0 00-.1.3l-.3.8a1 1 0 000 .5 1 1 0 00.2.4l.2.2a1 1 0 00.5.1.7.7 0 00.4 0 .8.8 0 00.4-.3 1 1 0 00.2-.4 1 1 0 000-.5zM810 250.2a1 1 0 000 2 1 1 0 000-2zM748.2 182.3a1 1 0 000 2 1 1 0 000-2zM827.6 155.2a1.2 1.2 0 00-.3-.5l-.6-.7-.3-.3c0-.2-.2-.3-.3-.4a.7.7 0 00-.7-.1.7.7 0 00-.2.2.6.6 0 00-.2.4l.1.6.1.5.3 1a1.1 1.1 0 00.7.7 1.2 1.2 0 001-.1 1.2 1.2 0 00.4-.7 1.2 1.2 0 000-.6zM762.6 238.5a1 1 0 00-.4-.3h-.2l-.4-.2a3 3 0 00-.7 0h-.5a.9.9 0 00-.4 0 1 1 0 00-.4.3 1.1 1.1 0 00-.3.8 1.1 1.1 0 00.3.7 1.1 1.1 0 00.8.4h.5a3 3 0 00.7-.1l.4-.1.2-.1a1 1 0 00.4-.3.7.7 0 00.2-.5.7.7 0 00-.1-.6zM799.7 198.4l-.1-.3a.7.7 0 00-.1-.1 2.7 2.7 0 00-.2-.3.9.9 0 00-.6-.3h-.2a.8.8 0 00-.3.2l-.3.3v.2a3 3 0 00-.2.3 1.2 1.2 0 000 1.2 1.2 1.2 0 001 .6 1.2 1.2 0 001-1.8zM780.5 163.7a1 1 0 00-.1-.3 2.2 2.2 0 00-.2-.3l-.3-.2a1.3 1.3 0 00-.6-.2 2 2 0 00-.5 0 1.4 1.4 0 00-.4.2 2.8 2.8 0 00-.2.3 1.4 1.4 0 00-.4.5 1.4 1.4 0 000 .8.9.9 0 00.2.3.8.8 0 00.3.3l.3.1a.7.7 0 00.4 0 .5.5 0 00.3 0v-.1h.2a.6.6 0 00.2 0 .4.4 0 00.3 0 .5.5 0 00.2-.2.8.8 0 00.2-.3 2 2 0 00.2-.2 1.3 1.3 0 000-.7zM804.8 135.6a.8.8 0 000 1.6.8.8 0 000-1.6zM864.2 96.9a1.2 1.2 0 00-.3-.5l-.4-.4-.2-.2-.1-.1h-.2a.5.5 0 00-.3-.2.6.6 0 00-.3-.1h-.1a.8.8 0 00-.4 0 .8.8 0 00-.4.3l-.2.2a1 1 0 00-.1.6v.6l.3.2v.1l.3.3.4.4a1 1 0 00.3.3.8.8 0 00.5 0 .8.8 0 00.5 0 1 1 0 00.3-.3l.2-.2a1.2 1.2 0 00.2-.6zM823 104a1 1 0 00-.2-.4.8.8 0 00-.6-.2.6.6 0 00-.3 0 .7.7 0 00-.3.2 1 1 0 00-.2.4.8.8 0 000 .4l.1.9.1.1a.5.5 0 00.2.2.4.4 0 00.1.1.7.7 0 00.3 0H822.5a.4.4 0 00.2-.2.6.6 0 00.2-.2l.1-.8a.8.8 0 000-.5zM760 69.3a.5.5 0 00-.9 0l-.4 3.6a1 1 0 00.2.6 1 1 0 00.7.2c.4 0 1-.3.9-.8l-.5-3.6zM830.9 31.8a1 1 0 000 2 1 1 0 000-2zM797.8 9.1a.9.9 0 00-.2-.4 3.2 3.2 0 00-.4-.4L797 8h-.1l-.2-.2a.5.5 0 00-.2 0 .7.7 0 00-.5 0 .8.8 0 00-.6.5.7.7 0 000 .5V9l.2.2v.1l.3.3a3.2 3.2 0 00.4.4.7.7 0 00.3.1.7.7 0 00.3.1.7.7 0 00.4 0 .7.7 0 00.3-.2v-.2a.9.9 0 00.2-.5zM835.2 65a.9.9 0 000 1.7.9.9 0 000-1.7zM849.2 257.8a.3.3 0 000 .7.3.3 0 000-.7zM729.7 369.5a.5.5 0 00-.3-.5.6.6 0 00-.5 0 1.1 1.1 0 00-.3.3l-.2.2-.3.3a1.6 1.6 0 00-.2.2 1.5 1.5 0 00-.3.3l-.2.4a1.1 1.1 0 00-.1.9 1.2 1.2 0 00.2.5.8.8 0 00.4.2.8.8 0 00.5.1.7.7 0 00.4-.1.8.8 0 00.4-.2 1.1 1.1 0 00.3-.5l.1-.5a1.6 1.6 0 000-.6l.1-.3a2.6 2.6 0 000-.3 1 1 0 000-.4zM818.7 239.9a.9.9 0 000 1.8.9.9 0 000-1.8zM768.3 377.8a.8.8 0 00-.2-.3l-.2-.1a1 1 0 00-.5-.2h-.3a1 1 0 00-.4.3l-.4.4-.2.3-.2.2v.1a.4.4 0 000 .1.2.2 0 000 .1.9.9 0 000 .5.8.8 0 00.2.4 1 1 0 00.4.2.9.9 0 00.4 0h.2v-.1a3 3 0 00.4-.2l.2-.2.4-.4a.8.8 0 00.2-.3.8.8 0 00.1-.4.8.8 0 00-.1-.4zM705.6 302.4a1 1 0 000 2 1 1 0 000-2zM671.7 266.8a1 1 0 000 1.9 1 1 0 000-2zM678 236.1a1 1 0 00-.3-.5l-.2-.3-.2-.1v-.1l-.3-.2h-.5a1.1 1.1 0 00-.4 0 1.1 1.1 0 00-.5.2l-.1.2v.2l-.1.1a1 1 0 000 .3.8.8 0 000 .1v.1a.3.3 0 000 .1v.1a.8.8 0 00.3.4l.2.2.3.2a.8.8 0 00.3.3 1 1 0 00.5 0 .9.9 0 00.4 0 .8.8 0 00.4-.3l.1-.2a1 1 0 00.2-.5zM771.6 301.8l-.1-.1a3.1 3.1 0 00-.3-.2 1.4 1.4 0 00-.7-.2H769a1.1 1.1 0 00-.5 0 1 1 0 00-.4.3 1.1 1.1 0 00-.3.4 1 1 0 00-.1.6 1.3 1.3 0 00.4 1 1.4 1.4 0 001 .4l.9-.1h.4a2.2 2.2 0 00.4 0 .6.6 0 00.2 0 1 1 0 00.4-.3l.1-.1a.8.8 0 00.2-.4.9.9 0 00.1-.4 1 1 0 00-.3-1zM724.4 260.8l-.7-.3a1.4 1.4 0 00-1.4 2.3 1.3 1.3 0 001.4 0l.7-.3a1 1 0 000-1.7zM831 351.7a.9.9 0 00-.2-.4 1.1 1.1 0 00-1-.3l-.9.3h-.2a.6.6 0 00-.2.3.4.4 0 00-.2.2.7.7 0 000 .3v.5a1 1 0 00.6.4l.8.2a1.1 1.1 0 001-.3l.3-.2a1.3 1.3 0 00.1-.6 1 1 0 000-.4zM817.8 294.7a1.2 1.2 0 00-1.1-.3l-.9.3a5.5 5.5 0 00-.5.2h-.2a1.3 1.3 0 00-.3.3.6.6 0 00-.2.4.6.6 0 00.2.4 1.3 1.3 0 00.3.2h.1a4 4 0 00.6.3l.9.2a1.2 1.2 0 001.5-1.1 1.2 1.2 0 00-.4-.9zM770.7 341.4l-.6-.3-.1-.1-.4-.2h-.2a1.1 1.1 0 00-.5 0 1 1 0 00-.5.2.8.8 0 00-.2.4.8.8 0 000 .5v.3l.2.3v.2l.4.5a1.3 1.3 0 00.5.5 1.4 1.4 0 00.6.2h.4a1.3 1.3 0 00.6-.4 1.1 1.1 0 00.3-.5 1 1 0 000-.5 1.3 1.3 0 00-.5-1.1zM616.9 365.8a1.1 1.1 0 000 2.2 1.1 1.1 0 000-2.2zM641.2 306.6a1.1 1.1 0 000 2.3 1.1 1.1 0 000-2.3zM673.3 374.3a.8.8 0 00-.3-.3 1.7 1.7 0 00-.4-.2h-.2l-.3-.2a1.4 1.4 0 00-.7-.2H670.8a1 1 0 00-.5 0 1.3 1.3 0 00-.8.9 1 1 0 00-.1.5 1.5 1.5 0 00.4 1l.3.2a1.5 1.5 0 00.7.2h1a.6.6 0 00.2-.2.9.9 0 00.3-.2 2.2 2.2 0 00.7-.3.8.8 0 00.3-.3.8.8 0 00.1-.4.8.8 0 00-.1-.5zM696 338a1 1 0 000 2 1 1 0 000-2zM655.2 350a.4.4 0 000 .8.4.4 0 000-.8zM443 360.4a.8.8 0 00-.2-.3l-.2-.2a1 1 0 00-.6-.1h-.3a1 1 0 00-.4.2l-.4.5h-.1v.1a.8.8 0 00-.3.4.6.6 0 000 .2.6.6 0 000 .2v.2a.5.5 0 000 .3.6.6 0 00.2.2l.2.1a.8.8 0 00.4.2h.4a.8.8 0 00.4-.2l.1-.1.1-.1.5-.4a.9.9 0 00.2-.4.7.7 0 00.1-.4.8.8 0 00-.1-.4zM429.8 319.3a.7.7 0 000 1.3.7.7 0 000-1.3zM330.7 396.8a1 1 0 00-.4-.3l-.5-.4-.2-.1H329.3a.4.4 0 00-.2-.1h-.1a.9.9 0 00-.6.2v.2a.8.8 0 00-.2.4v.4l.1.2.2.2.3.5a1 1 0 00.4.3 1 1 0 00.5.2h.3a1 1 0 00.4-.3 1 1 0 00.3-.3.7.7 0 000-.4 1 1 0 000-.7zM350.7 289.3a1 1 0 000 2 1 1 0 000-2zM379.4 377.5a.7.7 0 000 1.4.7.7 0 000-1.4zM345.4 333.9a.8.8 0 000 1.7.8.8 0 000-1.7zM281.6 367.4v-.2l-.3-.1a.4.4 0 00-.2-.1H280.4a1 1 0 00-.5 0 .9.9 0 00-.4.2l-.1.2a1 1 0 00-.1.4.7.7 0 000 .4.7.7 0 00.2.3 1 1 0 00.4.2 1 1 0 00.5 0H281.1a.2.2 0 00.1 0 .6.6 0 00.3-.2l.1-.2a.9.9 0 00.1-.4.8.8 0 000-.5zM288 317.4a.8.8 0 000 1.5.8.8 0 000-1.5zM332.8 365.6a.5.5 0 00-.2-.2.6.6 0 00-.4 0h-.2a.5.5 0 00-.3.2l-.2.2-.5.4a.7.7 0 00-.2.3.7.7 0 000 .3.8.8 0 000 .3.8.8 0 00.2.3.9.9 0 00.6.2h.2a.9.9 0 00.4-.2l.4-.5.2-.2a1.8 1.8 0 000-.2l.2-.2v-.1a.6.6 0 000-.3.5.5 0 00-.2-.3zM216.7 341a.7.7 0 000 1.4.7.7 0 000-1.4zM267.1 337.7a1 1 0 00-.3-.3l-.4-.3h-.2a.8.8 0 00-.4-.2h-.1l-.1-.1a.6.6 0 00-.3 0 .3.3 0 00-.1 0 .4.4 0 00-.2.1.8.8 0 00-.1.3.6.6 0 000 .4l.1.1a.5.5 0 000 .3.4.4 0 00.1.1 1.9 1.9 0 00.1.2l.3.3a1 1 0 00.3.4.9.9 0 00.5.1h.2a1.1 1.1 0 00.5-.2.8.8 0 00.2-.3.9.9 0 000-.4 1 1 0 00-.1-.5zM270.7 284.9a.9.9 0 00-.3-.4l-.1-.2a1 1 0 00-.5-.1h-1a.6.6 0 00-.3 0 1 1 0 00-.2.2.7.7 0 00-.2.3.7.7 0 000 .4v.2a.9.9 0 00.1.4 1.6 1.6 0 00.2.2h.3a1 1 0 00.3 0h.7a.7.7 0 00.4 0 .7.7 0 00.3-.2.7.7 0 00.2-.3.8.8 0 000-.4zM220.7 443.2a.6.6 0 00-.2-.2.6.6 0 00-.8 0 2.5 2.5 0 00-.3.5l-.3.4-.5.9a.8.8 0 00.4 1.2.8.8 0 00.6 0 .6.6 0 00.3-.2.8.8 0 00.2-.3l.4-1 .2-.4a1 1 0 000-.2v-.2a.7.7 0 000-.5zM239.3 348.5a1 1 0 000 2 1 1 0 000-2zM138.1 360.7a.7.7 0 00-.2-.3.6.6 0 00-.3-.1 3 3 0 00-.7 0l-.4.3-.9.3a1 1 0 00-.4.3l-.1.1a.9.9 0 000 .8.8.8 0 00.4.5.9.9 0 00.8 0l.9-.6.4-.2a2.3 2.3 0 00.3-.3l.2-.2a.6.6 0 000-.6zM213.2 307.3a1 1 0 00-.4-.4l-.5-.3-.2-.2h-.4a.5.5 0 00-.3 0 .8.8 0 00-.4 0 .7.7 0 00-.1.4.7.7 0 000 .3v.2a1.4 1.4 0 000 .1 1 1 0 00.1.2l.2.2.3.5a1 1 0 00.4.4 1 1 0 00.5 0h.2a1 1 0 00.5-.2.7.7 0 00.2-.3.8.8 0 000-.3 1 1 0 00-.1-.6zM242.8 319a.9.9 0 000 1.8.9.9 0 000-1.8zM180.5 419.3h-.2a.8.8 0 00-.2-.2 1 1 0 00-.3 0h-1.4a1 1 0 00-.6.3.9.9 0 00-.3.6.9.9 0 00.3.6 1 1 0 00.6.3h1.4a.8.8 0 00.3 0 1 1 0 00.2 0l.2-.2a.8.8 0 000-1.4zM254.1 390.5a.8.8 0 000 1.6.8.8 0 000-1.6zM294.2 441.1a1.1 1.1 0 00-2 0 1.1 1.1 0 000 1.2l.3.7a.8.8 0 00.3.3.8.8 0 00.4 0 .8.8 0 00.4 0 .8.8 0 00.3-.3l.3-.7a1.1 1.1 0 000-1.2zM221 401.5a1 1 0 000 2.1 1 1 0 000-2zM201 356.5a1.3 1.3 0 00-1.2-.3l-1.2.2-1.3.2a.7.7 0 00-.4.3.7.7 0 00-.1.4.9.9 0 000 .4.7.7 0 00.5.4c.4 0 .9 0 1.3.2l1.2.2a1.2 1.2 0 001.6-1.2 1.2 1.2 0 00-.4-.8zM174 346.5a.4.4 0 000 .8.4.4 0 000-.8zM158.5 410.1l-.3-.8v-.1a.6.6 0 00-.2-.2.4.4 0 00-.2 0 .5.5 0 00-.2-.1h-.4a.6.6 0 00-.2.2.6.6 0 00-.1.3l-.3.8a1 1 0 000 .5 1 1 0 00.2.4l.2.2a1 1 0 00.6.1.8.8 0 00.4 0 .8.8 0 00.3-.3 1 1 0 00.2-.4 1.2 1.2 0 000-.6zM197.6 385a1 1 0 00-.2-.5l-.2-.2a1 1 0 00-.5-.1h-1l-.2.1a.7.7 0 00-.3.3.5.5 0 00-.1.2.8.8 0 00-.1.3v.5a.6.6 0 00.3.2.6.6 0 00.3.2 3 3 0 00.4 0H196.6a.7.7 0 00.4 0 .8.8 0 00.5-.5.7.7 0 00.1-.4zM174.8 375.5v-.1a.6.6 0 00-.2-.3.5.5 0 00-.3-.2h-.2a.4.4 0 00-.2 0h-.2l-.2.1-.5.4-.4.4a.8.8 0 00-.2.3.7.7 0 00-.1.4.7.7 0 000 .4.8.8 0 00.3.3l.2.2a1 1 0 00.5.1h.3a1.2 1.2 0 00.5-.2l.3-.4.4-.5v-.1l.1-.2v-.3zM89.3 364.6a.7.7 0 00-.5-.2h-.4a1.4 1.4 0 00-.8.2.6.6 0 00-.2.2.6.6 0 00-.1.4.6.6 0 000 .3.7.7 0 00.3.3 1.4 1.4 0 00.8 0h.4a.6.6 0 00.3 0 .5.5 0 00.2-.1.5.5 0 00.2-.3.7.7 0 000-.2.7.7 0 00-.2-.6zM174 308a.7.7 0 000 1.3.7.7 0 000-1.4zM195.7 331a.8.8 0 00-.2-.3l-1-.8a.5.5 0 00-.2-.2.6.6 0 00-.2 0 .6.6 0 00-.3 0 .5.5 0 00-.2.2.7.7 0 00-.2.4v.2a.8.8 0 00.2.3l.8 1a.5.5 0 00.2.1.6.6 0 00.3 0 .6.6 0 00.3 0 .6.6 0 00.3-.1.8.8 0 00.2-.6zM87.8 470.5c0-.4 0-1-.4-1.4a.7.7 0 00-1 0c-.3.3-.3 1-.4 1.4a10.4 10.4 0 000 1.5v2.8a1 1 0 001 1 1 1 0 00.9-1V472a9.1 9.1 0 000-1.5zM91.7 353.4l-1.3-1-.6-.4a2.6 2.6 0 00-.3-.2l-.4-.1a.5.5 0 00-.7.1.5.5 0 000 .7 5.6 5.6 0 00.7.6l.7.4 1.3.8a.6.6 0 00.8-.2.6.6 0 00-.2-.7zM36.6 431.5a.7.7 0 000 1.3.7.7 0 000-1.3zM102.7 406.9a.9.9 0 000 1.8.9.9 0 000-1.8zM35.2 370.9a.6.6 0 00-.6 0v.1a2.5 2.5 0 00-.3.2 1.1 1.1 0 01-.2.2H34a3.7 3.7 0 01-.7.4 3 3 0 01-.7.2h-.3a.9.9 0 00-.9 1 .8.8 0 00.3.6 1 1 0 00.8.2 4 4 0 001.9-.9 3.3 3.3 0 00.5-.5 3.7 3.7 0 00.4-.5 2 2 0 00.2-.5.6.6 0 00-.3-.5zM21 325v-.2a2.7 2.7 0 00.2-.7 2.5 2.5 0 000-1 .7.7 0 00-1-.4 2 2 0 00-.8 1 3.8 3.8 0 00-.2 1.4 6.3 6.3 0 00.3 2.1.9.9 0 001 .6.9.9 0 00.7-1l-.1-.5v-.3a4.9 4.9 0 010-1zM69.7 327.5a.9.9 0 00-.4-.6 1 1 0 00-.8 0l-1.3.5a6.1 6.1 0 00-.8.3 2.8 2.8 0 00-.6.5.6.6 0 00-.2.7.6.6 0 00.6.3 2 2 0 00.3 0h.4a5.7 5.7 0 00.8-.2l1.3-.3a1 1 0 00.7-1.2zM54.5 351a2.4 2.4 0 00-1-.7 2.8 2.8 0 00-.5 0 1.4 1.4 0 00-.4 0 2.1 2.1 0 00-.4.1.7.7 0 00-.5.5.6.6 0 000 .4.8.8 0 00.6.4h.2-.2l.4.1a3.8 3.8 0 01.6.4 3.3 3.3 0 01.3.2l.1.3a2 2 0 01.1.3.8.8 0 00.9.8.8.8 0 00.8-.8 2.9 2.9 0 00-1-2zM68.9 433.6l-.1-.4a1.9 1.9 0 000-.2.8.8 0 00-.4-.6.8.8 0 00-.8 0 .8.8 0 00-.4.6 1.6 1.6 0 000 .2l-.1.4a1 1 0 00.2 1l.2.1a1 1 0 00.5.2.8.8 0 00.4-.1.7.7 0 00.3-.2 1 1 0 00.3-.5.9.9 0 00-.1-.5zM116.7 449.2a.8.8 0 00-.2-.3l-.2-.2a1 1 0 00-.5-.1h-.3a.9.9 0 00-.4.2l-.4.4-.2.2v.2a.9.9 0 00-.3.4v.3a.7.7 0 000 .3.7.7 0 00.3.3l.2.2a1 1 0 00.4 0 1 1 0 00.3 0 1 1 0 00.4-.2l.3-.2.4-.4a.8.8 0 00.2-.3.7.7 0 00.1-.4.7.7 0 00-.1-.4zM95.8 394a.8.8 0 000 1.6.8.8 0 000-1.7zM115 335.3l-.2-.4v-.2a.8.8 0 000-.2l-.2-.2a.5.5 0 00-.3-.2.5.5 0 00-.2 0h-.2a.7.7 0 00-.3.1v.1a.7.7 0 00-.3.4V335.3a1 1 0 000 .5 1 1 0 00.2.4l.2.2a.9.9 0 00.4.1.6.6 0 00.4 0 .7.7 0 00.3-.3.8.8 0 00.2-.4 1 1 0 000-.5zM125.3 396.7a.7.7 0 000 1.3.7.7 0 000-1.3zM168.6 491a.7.7 0 00-.6-.5h-.3a1.6 1.6 0 00-.3 0 1.2 1.2 0 00-.3.2l-.4.2-1 .4a1 1 0 00-.3.5 1 1 0 000 .8.9.9 0 00.6.4 1 1 0 00.7-.1l.9-.5.4-.2a2 2 0 00.5-.5.7.7 0 00.1-.7zM255 425.9a.9.9 0 00-.4-.5.9.9 0 00-.6-.1.9.9 0 00-.5.4l-.3.3a1 1 0 000 .2l-.2.4-.2.4-.1.3a.8.8 0 000 .3 1 1 0 000 .3.5.5 0 010 .1.7.7 0 001 .4 1 1 0 00.4-.4l.1-.2.3-.5a.8.8 0 00.2-.2v-.2l.2-.4a.7.7 0 00.1-.3.7.7 0 000-.3zM155.8 466a1 1 0 000 2 1 1 0 000-2zM243.6 498.7a.8.8 0 00-.6-.5 1.6 1.6 0 00-.8 0h-.2a1.2 1.2 0 00-.3 0 2.8 2.8 0 00-.4.2l-.3.2-.6.3a.9.9 0 00-.4.3 1 1 0 00-.2.9 1 1 0 00.2.4 1.2 1.2 0 00.7.6 1.3 1.3 0 001-.1l.5-.3.3-.2a1.1 1.1 0 00.3-.3h.2a.7.7 0 00.3-.4.5.5 0 000-.1 1.2 1.2 0 00.1-.2.9.9 0 00.2-.8zM258.5 444.9a1.2 1.2 0 000 2.4 1.2 1.2 0 000-2.4zM193.2 487.4a1.4 1.4 0 000 2.7 1.4 1.4 0 000-2.7zM168.8 435.2a1.3 1.3 0 000 2.6 1.3 1.3 0 000-2.6zM298.5 399.9a1 1 0 000 1.9 1 1 0 000-2zM311.5 325.8a1 1 0 000 2.2 1 1 0 000-2.2zM391.6 382.4a1 1 0 00-1 1v1.5a1.5 1.5 0 00.1.6v.2a3.4 3.4 0 00.3.6.6.6 0 001 0 3.4 3.4 0 00.2-.6l.1-.2a1.5 1.5 0 00.2-.6v-1.5a1 1 0 00-1-1zM353.3 481.2l-.1-.3a3.5 3.5 0 01-.2-.4.6.6 0 00-.3-.2.7.7 0 00-.6 0 .7.7 0 00-.3.2l-.1.4-.2.3a1 1 0 00-.2.5 1.1 1.1 0 00.2.6 1 1 0 001 .5 1 1 0 00.8-.5 1 1 0 00.2-.6 1 1 0 00-.2-.5zM402.9 349.3a1 1 0 000 2.2 1 1 0 000-2.2zM350.7 360.6a1.1 1.1 0 000 2.2 1.1 1.1 0 000-2.2zM351.5 421.7a.9.9 0 000 1.8.9.9 0 000-1.8zM526.4 463.1h-.1s.1 0 0 0h-.3a6.4 6.4 0 01-.7-.3h-.1l-.3-.2-.6-.4h-.2l-.2-.3a5.8 5.8 0 01-.5-.5.9.9 0 000-.1l-.3-.3a2 2 0 00-.3-.5l-.2-.2a1 1 0 00-1.6.6v.4a2 2 0 00.3.8 4.5 4.5 0 00.4.6 6.2 6.2 0 001.2 1.3 6.3 6.3 0 003.5 1.4 1.1 1.1 0 100-2.3z"/><path class="cls-2" d="M524.1 462.1c.1 0 .2.1 0 0zM526.3 463zM489 359.6a1.2 1.2 0 000 2.4 1.2 1.2 0 000-2.4zM476 335.3a1.2 1.2 0 000 2.3 1.2 1.2 0 000-2.3zM436 439.8a1 1 0 000 2.1 1 1 0 000-2.1zM490.4 487.6a.5.5 0 00-.2 0l-.2-.2h-.2l-.4-.1a1.6 1.6 0 00-.8 0 1.5 1.5 0 00-.7.3l-.2.4a1.5 1.5 0 00-.2.7 1.6 1.6 0 00.5 1.1 1.6 1.6 0 00.6.4 1.6 1.6 0 00.8 0h.4a3.4 3.4 0 00.6-.3 1.3 1.3 0 00.6-1.2 1.3 1.3 0 00-.6-1.1zM468.2 390.3a1.4 1.4 0 00-1-.3 1.3 1.3 0 00-1 .6l-1.1 1.5a10.7 10.7 0 00-1 1.5.7.7 0 000 .7.7.7 0 00.8.1 9.2 9.2 0 001.5-1l1.5-1a1.3 1.3 0 00.4-.5 1.3 1.3 0 00.2-.7 1.3 1.3 0 00-.3-.9zM388 413.9l-.8.8 1-.8h-.1zM415.1 447.2a2 2 0 00-.1-.2.9.9 0 00-.2-.2.8.8 0 00-.3-.3.6.6 0 00-.3-.1.8.8 0 00-.4.1l-.1.1a.4.4 0 00-.2.2.9.9 0 00-.1.2 1.2 1.2 0 00-.2.2.8.8 0 000 .4v.2a.7.7 0 000 .4.8.8 0 00.3.3.7.7 0 00.3.2.8.8 0 00.4 0h.2a.9.9 0 00.5-.2l.1-.2a1 1 0 00.2-.5v-.2a1.3 1.3 0 000-.4zM500.3 422.3a1.2 1.2 0 000 2.3 1.2 1.2 0 000-2.3zM513.3 373.9a1.2 1.2 0 00-.8-.4h-.9a2 2 0 00-.7.1l-.6.2a1 1 0 00-.5 1 1 1 0 00.2.4 1 1 0 00.3.4l.6.2a2.3 2.3 0 00.7.1h.9a1.2 1.2 0 00.8-.3 1 1 0 00.3-.4 1 1 0 00.1-.5 1.2 1.2 0 00-.4-.8zM578.8 380.5a1.2 1.2 0 00-.2-.5l-.3-.2a1.2 1.2 0 00-.6-.1h-.5a2.2 2.2 0 00-.5 0l-.2.1a.7.7 0 00-.3.3.5.5 0 00-.2.2.7.7 0 000 .5v.5a.9.9 0 00.3.3.8.8 0 00.4.2.4.4 0 00.2 0h.8a.9.9 0 00.4-.1.8.8 0 00.4-.3.8.8 0 00.3-.3 1 1 0 000-.5zM553.4 356.2a1.2 1.2 0 000 2.3 1.2 1.2 0 000-2.3zM544.1 452.5a1 1 0 00-.2-.4l-.3-.2a1.4 1.4 0 00-.7-.2h-.3a1.3 1.3 0 00-.6.4l-.4.5-.3.2a1 1 0 00-.1.5.6.6 0 000 .1v.2a.8.8 0 000 .4.5.5 0 000 .2.7.7 0 00.2.4l.2.1.3.1a.8.8 0 00.4 0 .8.8 0 00.2 0h.2a.7.7 0 00.3-.1 1 1 0 00.4-.3l.5-.4a1.6 1.6 0 00.4-1 1 1 0 00-.1-.5zM608.6 448.8l-.3-.4-.1-.2-.2-.2a1.2 1.2 0 00-.4-.3 1.7 1.7 0 00-.3-.3 2.9 2.9 0 00-.4-.2.7.7 0 00-.6 0 .7.7 0 00-.4.5 3.4 3.4 0 00-.1.6 2 2 0 000 .4 1.4 1.4 0 000 .6v.2l.2.5a1.4 1.4 0 00.4.6l.2.2a1.4 1.4 0 00.8.2 1 1 0 00.5-.1 1.3 1.3 0 00.7-.8 1 1 0 00.1-.5 1.4 1.4 0 000-.8zM549 413.6a1.2 1.2 0 000 2.3 1.2 1.2 0 000-2.3zM521.2 439.7a1.2 1.2 0 000 2.3 1.2 1.2 0 000-2.3zM437.7 501.2a1.4 1.4 0 000 2.8 1.4 1.4 0 000-2.8zM475 444.7a1.3 1.3 0 000 2.7 1.3 1.3 0 000-2.7zM460.3 411.2a1 1 0 000 1.9 1 1 0 000-2zM423.8 386.8a1 1 0 000 2 1 1 0 000-2zM603 421.4a1.1 1.1 0 000 2.3 1.1 1.1 0 000-2.3zM522 402.2a1.2 1.2 0 000 2.5 1.2 1.2 0 000-2.5zM698.8 415.6a1 1 0 00-.3-.7 1 1 0 00-.7-.3 1 1 0 00-.7.3 1 1 0 00-.3.7v1.4a3.4 3.4 0 000 .3 1.8 1.8 0 00.1.3l.1.2a.8.8 0 001.4 0l.1-.2a1.2 1.2 0 00.2-.3 1.8 1.8 0 000-.3v-.5-.9zM618.6 502.3a1.2 1.2 0 000 2.4 1.2 1.2 0 000-2.4zM579.3 481.3a.9.9 0 00-.5-.3 1 1 0 00-.4-.1l-.4.1h-.4l-.9.2a.6.6 0 00-.4.6.6.6 0 00.4.6l.9.1h.8a1.2 1.2 0 00.4 0 .8.8 0 00.4-.3.8.8 0 00.2-.5 1.1 1.1 0 00-.1-.4zM580.3 443.4a1 1 0 000 1.8 1 1 0 000-1.8zM705.6 486.7l-2 .2a8.6 8.6 0 00-1.7.3.6.6 0 000 1.2 9.4 9.4 0 001.7.4l2 .2a1.1 1.1 0 00.8-.4 1.1 1.1 0 00.3-.8 1.1 1.1 0 00-1-1zM657.8 411a1.2 1.2 0 000 2.3 1.2 1.2 0 000-2.4zM632.9 388.4v-.2a.8.8 0 000-.2v-.2a1 1 0 000-.1.2.2 0 00-.1-.1l-.1-.1-.1-.1h-.1l-.1-.1h-.4a.8.8 0 00-.3 0l-.3.1-.2.2a2 2 0 00-.2.2 1.4 1.4 0 000 .3v.1-.2a2.4 2.4 0 00-.1.4v.3a1 1 0 000 .4 1.1 1.1 0 00.7.7 1 1 0 00.5 0h.4a1.3 1.3 0 00.5-.2l.2-.3a1.4 1.4 0 00.2-.6zM651.2 472l-1-2.5c0-.3-.4-.2-.3 0l.7 2.7c.1.4.8.2.6-.1zM740.6 445a1.1 1.1 0 00-.3-.6l-.4-.4-.1-.1a1.9 1.9 0 00-.3-.3h-.2v-.1a.8.8 0 00-.4-.2.3.3 0 00-.2 0 .7.7 0 00-.4.1.7.7 0 00-.3.2l-.2.3a1.1 1.1 0 00-.1.5.9.9 0 000 .4.4.4 0 00.1.2l.1.2a2.2 2.2 0 00.2.3h.1l.5.5a.8.8 0 00.3.2.9.9 0 00.5.1.9.9 0 00.4 0 .8.8 0 00.3-.3l.2-.2a1 1 0 00.2-.6zM745.4 387.6a1.3 1.3 0 00-1.3 0l-.6.3a.8.8 0 000 1.5l.6.4a1.3 1.3 0 002-1.1 1.3 1.3 0 00-.7-1.1zM821.3 431.9a1 1 0 00-.2-.5l-.3-.2a1 1 0 00-.5-.1l-.7-.1a1 1 0 00-.5.1.8.8 0 00-.3.2.8.8 0 00-.3.4.8.8 0 000 .5v.3a1 1 0 00.2.5l.3.2a1 1 0 00.5.1h.8a1 1 0 00.4-.2 1 1 0 00.5-.5 1 1 0 00.1-.4zM785.6 485.4a1 1 0 00-1.4-.3 9.2 9.2 0 01-1.4.8l-.3.2h-.2l-.7.3-1.5.5-1.5.3c-.5.1-.7 1-.2 1.2a5.3 5.3 0 003.8.2 10.2 10.2 0 003.4-1.8 1 1 0 000-1.4zM686.8 454l-.4-.8-.3-.4a1.4 1.4 0 00-.6-.6l-.1-.1a1 1 0 00-1 0 .7.7 0 00-.3.1 1 1 0 00-.3.5v.2a1 1 0 000 .5.6.6 0 000 .2l.1.3.3.5.4 1a1 1 0 00.3.3 1 1 0 00.5.2 1 1 0 00.5 0 1 1 0 00.5-.1 1.3 1.3 0 00.6-.8 1.3 1.3 0 00-.2-1zM775.5 423a1 1 0 00-.3-.4 1.3 1.3 0 00-.5-.3 1.1 1.1 0 00-.7 0h-.6l-.1.1a.2.2 0 00-.1 0l-.1.2a.4.4 0 00-.1 0 .6.6 0 000 .1.5.5 0 000 .2v.4a.8.8 0 000 .3v.2l.3.3a1.2 1.2 0 00.2.1 1.4 1.4 0 00.3.2h.5a1.3 1.3 0 00.7 0 1.3 1.3 0 00.5-.3l.2-.2a1.3 1.3 0 00.2-.7 1 1 0 00-.4-.2zM826.5 383.4a1 1 0 000 1.9 1 1 0 000-2zM831.8 500.8a1 1 0 000 1.9 1 1 0 000-1.9zM799.8 328.3a.9.9 0 00-.1-.4h-.1a.9.9 0 00-.2-.5 1 1 0 00-.3-.4 1.2 1.2 0 00-.6-.2.8.8 0 00-.3 0h-.1a.8.8 0 00-.3.3 1.7 1.7 0 00-.3.3 1.4 1.4 0 00-.1.3 1.4 1.4 0 000 .4 1.4 1.4 0 00.6 1.2 1.4 1.4 0 00.7.2 1 1 0 00.6-.1l.2-.2a1 1 0 00.3-.5.9.9 0 000-.4zM797.8 377.1a1 1 0 000 2.2 1 1 0 000-2.2zM31.4 477.2a.8.8 0 00-1.1-.3 2.7 2.7 0 00-1.3 1.3 3.6 3.6 0 00.1 4 .5.5 0 00.9-.4v-.2-.5a3.2 3.2 0 010-.5 1 1 0 010-.2v-.4a1.7 1.7 0 010-.2v-.1a2.2 2.2 0 01.3-.4 1 1 0 010-.1 2 2 0 00.3-.3l.1-.1.3-.3h.1a.8.8 0 00.3-1.3zM51.5 599.5l-.8-2-1-2.2a.6.6 0 00-.7-.3.6.6 0 00-.3.7l.4 2.1.6 2.2a1 1 0 101.8-.5zM86 524.9a.8.8 0 00-.5-.2h-1.1a2 2 0 00-.3 0H84l-.1.1a.6.6 0 000 1.1l.1.1a.9.9 0 00.2.1 2 2 0 00.3 0h1.1a.8.8 0 00.8-.8.8.8 0 00-.2-.4zM15.8 539a.6.6 0 00-.7-.2 6.3 6.3 0 00-.8.2 5.3 5.3 0 00-.9.3l-1.4.7a.9.9 0 00-.3 1.2 1 1 0 001.2.3l1.4-.7a5 5 0 00.7-.4l.7-.6a.6.6 0 000-.8zM131.4 602.2a1.1 1.1 0 00-.7-.6l-3-1a.7.7 0 00-.6.3.6.6 0 000 .8 7.5 7.5 0 00.8.5l.6.5 1.4.9a1 1 0 001.5-.6 1 1 0 000-.8zM60.2 556.8a1 1 0 000 1.9 1 1 0 000-1.9zM143.7 484a1 1 0 00-.7-.4 1 1 0 00-.8.3l-2.5 3.3a.6.6 0 00.8.8l3.2-2.6a1 1 0 00.3-.7 1 1 0 00-.3-.8zM128.2 548.8l-.2-.1a.7.7 0 00-.4-.2l-1.4-.1a.8.8 0 00-.3 0 .7.7 0 00-.3.3 1 1 0 000 1.3 1 1 0 00.6.2l1.4-.1a.6.6 0 00.3 0 .6.6 0 00.3-.2.8.8 0 00.2-.6.8.8 0 00-.3-.5zM209 545.5a1 1 0 000 2 1 1 0 000-2zM155.7 514.7a.9.9 0 000 1.8.9.9 0 000-1.8zM180.5 627.3a10.3 10.3 0 00-1.3 1l-1.1 1-2.3 2a1.1 1.1 0 001.6 1.5l2-2.3.9-1.2a11.7 11.7 0 001-1.3.5.5 0 00-.8-.7zM284.5 607.8a.9.9 0 00-.3-.4 1.2 1.2 0 00-.5-.3 1.1 1.1 0 00-.6 0l-.7.3c-.2 0-.4 0-.6.2a.8.8 0 00-.4.2.7.7 0 00-.1.5.8.8 0 00.5.7 3.7 3.7 0 01.6.2l.7.2a1.2 1.2 0 001.1-.3 1.3 1.3 0 00.4-.8 1 1 0 00-.1-.5zM157.5 575.5l-.8-.7-.8-.6a2 2 0 00-.2-.3l-.3-.2-.4-.3a1.2 1.2 0 00-1-.1 1.2 1.2 0 00-.7.7 1.2 1.2 0 00.7 1.6l.5.2a1.9 1.9 0 00.6 0l.9.3 1 .3a.6.6 0 00.6-.3.6.6 0 000-.6zM235 601.9l-.8-.7-.3-.3a2.6 2.6 0 00-.3-.2 2 2 0 00-.3-.2h-.2a.8.8 0 00-.8.2.8.8 0 00-.2.8v.2a2.9 2.9 0 00.2.3 1.3 1.3 0 00.2.2l.3.4.7.8a.8.8 0 00.3.2.8.8 0 00.4.1.7.7 0 00.5 0 .8.8 0 00.3-.3 1 1 0 00.3-.8 1 1 0 00-.3-.7zM282.7 527.5a1.1 1.1 0 00-.7-.3 1 1 0 00-.5.1 1 1 0 00-.4.4l-1.1 1.6v.2a.6.6 0 000 .3.7.7 0 00.1.4.8.8 0 00.3.1.7.7 0 00.5 0l1.6-1.1a1 1 0 00.4-.4 1 1 0 00.2-.5 1 1 0 00-.4-.8zM242.4 533.2v-.3a1 1 0 000-.3 2.5 2.5 0 00-.1-.3l-.1-.2a1 1 0 00-1.7 0v.1a1.1 1.1 0 00-.2.3 1.9 1.9 0 000 .4v1a.8.8 0 00.1.4.9.9 0 00.2.4.8.8 0 00.4.2.8.8 0 00.4 0 1.1 1.1 0 00.8-.2 1.1 1.1 0 00.3-.8l-.1-.7zM306.4 472.6a1.1 1.1 0 00-1.1 0l-.5.2h-.2a3.2 3.2 0 00-.4.2.6.6 0 000 1 3.2 3.2 0 00.4.2h.2l.5.3a1.2 1.2 0 001.1 0 1.1 1.1 0 00.6-1 1.1 1.1 0 00-.6-1zM273 482.6a1.1 1.1 0 00-1.6 0 1.1 1.1 0 00-.3.7l.1 1.5v.7a3 3 0 00.2.5v.4a.8.8 0 00.8.5.8.8 0 00.8-.5v-.4a2 2 0 00.2-.5v-.7l.1-1.4a1.1 1.1 0 00-.3-.8zM390.8 575.2a1 1 0 00-.5-.3 1.1 1.1 0 00-.5 0l-.7.2h-.3a1.2 1.2 0 00-.5.2.8.8 0 00-.4.7.8.8 0 00.4.6l.1.1a1 1 0 00.4.1l.3.1.7.1a1 1 0 001.3-1 1.1 1.1 0 00-.3-.8zM246.9 587.4a1.2 1.2 0 000 2.4 1.2 1.2 0 000-2.4zM334.3 515.7l-2.1-.7-1-.2-1.2-.3a.8.8 0 00-1 .5.8.8 0 00.4 1l1 .5 1.2.5 2.1.7a1 1 0 001.3-.7 1 1 0 00-.7-1.3zM329.7 601.5a1.1 1.1 0 000 2.2 1.1 1.1 0 000-2.2zM297 560.3l-.2-.7-.1-.3a3.2 3.2 0 00-.2-.4.5.5 0 00-.9 0 3.2 3.2 0 00-.2.4v.3l-.3.7a1 1 0 00.3 1 1 1 0 00.7.2 1 1 0 00.6-.3 1 1 0 00.3-1zM357.8 561.9zM381 513.5l-.7-.7-.2-.1-.1-.1a.7.7 0 00-.3-.2h-.2l-.5-.2h-.4a1 1 0 00-.5.3.5.5 0 000 .2.4.4 0 00-.1.2.5.5 0 000 .2.6.6 0 000 .3l.3.4v.1a.8.8 0 00.1.2.9.9 0 00.1.1l.2.2.7.7a1.1 1.1 0 00.8.3.8.8 0 00.4-.1.9.9 0 00.4-.2 1.1 1.1 0 000-1.6zM344.8 582.3v-.7a.5.5 0 00-.2-.1.7.7 0 00-.2-.3v-.1a.5.5 0 00-.3-.2.5.5 0 00-.3 0 .8.8 0 00-.6.2 1.8 1.8 0 00-.2.3 1.1 1.1 0 00-.2.5v1.1a.9.9 0 000 .5.8.8 0 00.3.3.9.9 0 00.3.2.8.8 0 00.5.1 1.1 1.1 0 00.7-.3l.2-.2a1.1 1.1 0 00.2-.6zM355.6 538.9a.8.8 0 00-.6-.3h-.3a.8.8 0 00-.3.3l-1.6 1.3a.8.8 0 00-.2.3.8.8 0 000 .4.7.7 0 000 .4.8.8 0 00.2.3 1 1 0 00.8.3 1 1 0 00.7-.3l1.3-1.5a.5.5 0 00.1-.3.6.6 0 00.1-.3.8.8 0 00-.2-.6zM488.3 597.3a1.1 1.1 0 000 2.3 1.1 1.1 0 000-2.3zM393.3 655.5a.7.7 0 00-.9 0c-1.6 1.2-3 2.6-4.5 3.9a1.1 1.1 0 001.5 1.6l4-4.5a.7.7 0 000-1zM441.4 549.9a1.3 1.3 0 00-.8-.4h-.7a2.7 2.7 0 00-1 .1l-.2.1a.8.8 0 00-.3.3.6.6 0 00-.2.3.8.8 0 000 .4v.6a.8.8 0 00.4.3.8.8 0 00.3.2h.1a1.6 1.6 0 00.4 0h1.2a.8.8 0 00.4-.1 1 1 0 00.4-.3 1 1 0 00.2-.3.9.9 0 00.1-.5 1.2 1.2 0 00-.3-.7zM538.8 541a1.3 1.3 0 000 2.5 1.3 1.3 0 000-2.5zM396.7 480.3l-.2-.7v-.3a2.6 2.6 0 00-.3-.5.7.7 0 00-1 0 3.6 3.6 0 00-.3.5v.3l-.3.7a1 1 0 00.3 1 1.1 1.1 0 00.8.3 1.1 1.1 0 00.7-.3 1.1 1.1 0 00.3-1zM563.9 620.6a1.2 1.2 0 00-.6-.8l-1.5-.7a3.4 3.4 0 00-.5-.2l-.4-.1a8.3 8.3 0 00-1-.2.8.8 0 00-.5.2.8.8 0 00-.3.4.9.9 0 00.2.9 6.6 6.6 0 00.5.5l.3.3a2.5 2.5 0 00.5.3l1.5.8a1.3 1.3 0 001.7-.5 1.3 1.3 0 00.1-1zM481.6 530.5a1.7 1.7 0 00-.4-.2h-.4l-.6-.2a1.2 1.2 0 00-.6 0 1 1 0 00-.4.3 1 1 0 00-.3.7 1 1 0 00.3.7 1 1 0 00.4.3 1.2 1.2 0 00.6 0l.6-.2h.4a1.7 1.7 0 00.4-.2.7.7 0 000-1.2zM556.4 495.2a1 1 0 00-.7-.3l-.7.1a8.3 8.3 0 00-.9 0l-.2.2a.8.8 0 00-.3.2.5.5 0 000 .2.6.6 0 00-.2.4 1.1 1.1 0 00.2.5.8.8 0 00.2.2.8.8 0 00.3.2h.9l.6.1a.8.8 0 00.4 0 .8.8 0 00.4-.3 1.2 1.2 0 00.3-.7 1.1 1.1 0 00-.3-.8zM606.2 569.3a1 1 0 000 2.2 1 1 0 000-2.2zM530 595.3a1.1 1.1 0 00-.7-.4h-1.7l-.3.2a.7.7 0 00-.3.2.5.5 0 00-.2.3.8.8 0 000 .4 1.4 1.4 0 000 .5.9.9 0 00.4.3.7.7 0 00.3.2.5.5 0 00.3 0 .9.9 0 00.3 0h1.2a1 1 0 00.8-.3 1 1 0 00.3-.7 1 1 0 00-.3-.8zM580 555v.1zM578.5 522.4a1 1 0 000 1.8 1 1 0 000-1.8zM674 574l-.2-.2a1.2 1.2 0 00-.6-.1c-.5 0-1 0-1.6.2h-.2a.8.8 0 00-.3.3 1 1 0 00-.2.6 1 1 0 00.1.5.6.6 0 00.3.2.8.8 0 00.3.2l1.6.2a.9.9 0 00.4 0 1 1 0 00.6-.7.9.9 0 00.1-.4 1.2 1.2 0 00-.3-.8zM577 573.2a.7.7 0 00-.5-.5 1.5 1.5 0 00-.8 0 3.1 3.1 0 00-1.6 1.3l.2-.2h-.1a1.6 1.6 0 00-.2.2 1.7 1.7 0 00-.2.4 1.3 1.3 0 000 .3 3.4 3.4 0 00-.2.8 1.1 1.1 0 00.3.8 1 1 0 00.8.3 1.1 1.1 0 001.1-1 2.4 2.4 0 01.1-.5.7.7 0 000-.2l.2-.2a3.3 3.3 0 01.3-.3.7.7 0 01.1 0 1.8 1.8 0 00.3-.3v-.1a.8.8 0 00.3-.8zM649.7 526.7a1.2 1.2 0 000 2.3 1.2 1.2 0 000-2.3zM631.3 639.6a1 1 0 00-.2-.5 1.3 1.3 0 00-.1-.1 1 1 0 00-.1-.3 1 1 0 00-.7-.5 1 1 0 00-.6 0 .7.7 0 00-.3 0 1 1 0 00-.4.3 1 1 0 00-.2.5l-.1.1v.4a1.6 1.6 0 000 .3 1.9 1.9 0 000 .2v.2l.1.2.1.1.2.1.2.2.3.2h.4a1.3 1.3 0 00.7-.2l.2-.2a1.3 1.3 0 00.3-.5 1 1 0 00.2-.5zM702.5 540.4a.6.6 0 00-.3-.3l-.7-.2-.7-.2a1 1 0 00-1 .3 1.1 1.1 0 00-.4.7 1 1 0 001.4 1l.7-.2.7-.2a.6.6 0 00.4-.6.8.8 0 000-.3zM713.4 634.8a1.4 1.4 0 000 2.7 1.4 1.4 0 000-2.7zM806.5 623.5a1.3 1.3 0 000 2.5 1.3 1.3 0 000-2.5zM752.7 587.3a1.1 1.1 0 000 2.3 1.1 1.1 0 000-2.3zM775.6 518.9a.7.7 0 000-.4.7.7 0 00-.2-.3 1 1 0 00-.7-.2 1 1 0 00-.7.2l-.1.2a1 1 0 00-.1.5l-.2 1.4a1 1 0 00.1.4.9.9 0 00.2.3.7.7 0 00.4.2.8.8 0 00.4.1 1.1 1.1 0 00.8-.3 1 1 0 00.3-.7zM832.7 579.4a1.3 1.3 0 00-.8-.7l-1.7-.2-.8-.2a4.8 4.8 0 00-.6 0 1.4 1.4 0 00-.7.2 1 1 0 00-.4 1.2 1.4 1.4 0 00.5.5 3.1 3.1 0 00.6.3l.8.3 1.6.5a1.3 1.3 0 001-.1 1.3 1.3 0 00.6-.8 1.4 1.4 0 00-.1-1zM791.4 569a1.2 1.2 0 000 2.4 1.2 1.2 0 000-2.4zM743.2 519.2l-.2-.7v-.4a1.3 1.3 0 00-.2-.5.7.7 0 00-1.3 0 1.3 1.3 0 00-.2.5v.4l-.2.7a1 1 0 000 .6 1 1 0 001.8.5 1.3 1.3 0 00.3-.5 1.1 1.1 0 000-.6zM748 655.5a1.2 1.2 0 00-1.2 0l-.3.2a1.3 1.3 0 00-.5.4.8.8 0 000 1 1.3 1.3 0 00.4.3h.1l.3.2a1.2 1.2 0 101.3-2zM717.2 588.1a.7.7 0 000-.1v-.1a1.2 1.2 0 00-.2-.3h-.2v-.2h-.3a.6.6 0 00-.2 0 .6.6 0 00-.2 0 1.9 1.9 0 00-.3 0h-.1a.8.8 0 00-.4 0 2.2 2.2 0 00-.3.3 1 1 0 00-.3.4 2.7 2.7 0 00-.1.3 2.2 2.2 0 000 .4 3.1 3.1 0 000 .3 1.3 1.3 0 000 .3l.2.2a1.2 1.2 0 00.6.3h.2a.9.9 0 00.4 0 .5.5 0 00.3-.2.7.7 0 00.2-.3h.1a.7.7 0 00.4-.3l.1-.2a1 1 0 00.1-.5 1.9 1.9 0 000-.3zM675 698.7a1 1 0 00-.3-.4l-.3-.4-.2-.1-.2-.2a1.6 1.6 0 00-.3 0 1 1 0 00-1 .1.9.9 0 00-.2 1v.1a.6.6 0 00.1.2l.2.2.1.2.4.3a.7.7 0 00.3.3.9.9 0 00.8 0 .7.7 0 00.3-.3l.2-.2a1 1 0 00.1-.5zM676.4 618.4a.8.8 0 00-.2-.4 1 1 0 00-.5-.2l-.8-.3-.3-.2a1.9 1.9 0 00-.7 0 .8.8 0 00-.6.3.8.8 0 000 .8v.2a2.3 2.3 0 00.3.2 1.6 1.6 0 00.2.2l.4.2.7.5a1.1 1.1 0 00.8.1 1.3 1.3 0 00.5-.2.9.9 0 00.2-.4 1 1 0 000-.8zM557.2 702.3zM557.5 701.1a.7.7 0 000-.3 1 1 0 00-.7-.5 1 1 0 00-.7.1 1.2 1.2 0 00-.4.4 1 1 0 00-.3.1h-.3a.7.7 0 00-.4.2 1 1 0 00-.3.5 1.1 1.1 0 000 .5 1 1 0 00.4.6l.2.1.3.1h1.3l.1-.1a2.1 2.1 0 00.3-.3.2.2 0 00.1 0 1.5 1.5 0 00.1-.1.6.6 0 00.1-.3 1 1 0 00.1-.2 1.8 1.8 0 00.2-.4.7.7 0 000-.4zM483.1 652.5a.6.6 0 00-.2-.3.8.8 0 00-.7-.2h-.5a.5.5 0 00-.2 0l-.2.2-.1.2a.6.6 0 000 .3v.2a.8.8 0 000 .2.6.6 0 00.3.3h.7a.8.8 0 00.8-.1v-.2a.8.8 0 00.2-.4.7.7 0 000-.2zM441.4 591a.8.8 0 00-.2-.4.8.8 0 00-.3-.1.9.9 0 00-.3 0 .2.2 0 000-.1.5.5 0 00-.3-.2h-.1a.8.8 0 00-.8.1l-.1.2a.8.8 0 00-.1.2.1.1 0 000 .1 2.5 2.5 0 000 .3 2.7 2.7 0 000 .3v.2a1.5 1.5 0 00.3.3 1.3 1.3 0 00.3.2 1.4 1.4 0 00.3.2h.3a2.2 2.2 0 00.4 0 1.3 1.3 0 00.5-.3 1.1 1.1 0 00.3-.5v-.2a.8.8 0 00-.2-.4zM494.6 555.3v-.1-.2l-.1-.1a.5.5 0 01-.2-.2h-.1-.4a.8.8 0 00-.2 0h-.2l-.2.1a1 1 0 00-.1.2 1.8 1.8 0 00-.1.2v.2a2 2 0 000 .3v.2a.6.6 0 000 .4.6.6 0 00.2.3 1 1 0 00.7.3h.2a.9.9 0 00.4-.3l.1-.2a1 1 0 00.2-.4v-.3a1.3 1.3 0 00-.2-.4zM521.8 661.5a1.1 1.1 0 000 2.2 1.1 1.1 0 000-2.2zM605.4 694.2a1.2 1.2 0 00-.3-.5 1.2 1.2 0 00-.8-.3 1 1 0 00-.5.1 1.2 1.2 0 00-.4.4l-.3.4-.2.3V695.2a.5.5 0 000 .3.6.6 0 00.1.2l.2.1a.8.8 0 00.4.1.5.5 0 00.3 0 .7.7 0 00.3 0l.2-.2.5-.3a1.1 1.1 0 00.4-.4 1 1 0 00.1-.6zM596 653.2a.6.6 0 00-.1-.3 1 1 0 00-.4-.3.9.9 0 00-.5 0h-.5a.6.6 0 00-.1.2h-.1l-.2.2a.6.6 0 000 .1.6.6 0 000 .1V653.5a.8.8 0 000 .2v.2l.2.2a1.1 1.1 0 00.2.1.8.8 0 00.2.1h.4a1 1 0 001-.2l.1-.2a1 1 0 00.2-.4.8.8 0 00-.3-.3zM618.1 595.7a1 1 0 00-.2-.4l-.2-.1a1 1 0 00-.5-.2h-.8a.9.9 0 00-.3.1.5.5 0 00-.2.2.7.7 0 00-.2.3.9.9 0 00-.1.3v.3a1 1 0 00.2.4.6.6 0 00.2.2h.2a1.3 1.3 0 00.3 0h.6a.8.8 0 00.4 0 1 1 0 00.5-.5.7.7 0 00.1-.4zM752 705.7a.6.6 0 00-.9-.2l-.2.2H750.6a1 1 0 00-.4 0h-.5a2.6 2.6 0 00-.3 0l-.6-.1h-.1l-.3-.2a2 2 0 01-.2-.2h-.1a1 1 0 00-.3-.2 1.7 1.7 0 01-.3-.2 1 1 0 00-1.4 1 2.4 2.4 0 00.5 1 2.9 2.9 0 00.8.5 3.9 3.9 0 001.7.4 4.3 4.3 0 001.5-.2 1.9 1.9 0 00.6-.4h.1a3.8 3.8 0 00.6-.6.6.6 0 000-.8zM691.6 658.6a1.1 1.1 0 00-.2-.5l-.4-.3-.2-.2h-.1l-.2-.2h-.5a.5.5 0 00-.3 0 .6.6 0 00-.3.2l-.1.2a.9.9 0 00-.2.4 2.1 2.1 0 000 .3.6.6 0 000 .1.5.5 0 00.2.2l.1.2.2.2.3.4a.8.8 0 00.3.2.9.9 0 00.8 0 .8.8 0 00.3-.2l.2-.2a1 1 0 00.1-.5zM834 696.8a1.2 1.2 0 00-.7-.5h-.3a1.2 1.2 0 00-.4 0l-.2.1h-.4a2 2 0 01-.3-.2 1.2 1.2 0 00-.6-.5 1.2 1.2 0 00-1 .2 1.2 1.2 0 00-.5.7 1.2 1.2 0 00.2.9 3.4 3.4 0 00.8.8 3 3 0 00.9.4 4 4 0 00.6.1h.3a3.2 3.2 0 001.2-.3 1.1 1.1 0 00.5-.7 1.2 1.2 0 00-.1-1zM763.4 758.5h-.5a6.3 6.3 0 01-1-.3 6.4 6.4 0 01-.7-.4c-.2 0-.3-.2-.4-.3h-.2a1.1 1.1 0 00-.8-.2.8.8 0 00-.7.2.8.8 0 00-.2.8 1 1 0 00.2.8 2 2 0 00.3.2 3 3 0 00.6.5 6.9 6.9 0 001.1.5 6.1 6.1 0 002.3.4 1.1 1.1 0 001.1-1 1.1 1.1 0 00-1.1-1.2zM769.8 621.4a1.1 1.1 0 00-.5-.7 11.7 11.7 0 00-1.2-.8c-.6-.2-1.2-.7-1.8-.5a.7.7 0 00-.5.7 1.3 1.3 0 00.2.6 1.6 1.6 0 00.3.4l.5.5a12 12 0 001.4 1 1 1 0 00.8 0 1.1 1.1 0 00.6-.4 1 1 0 00.1-.8zM798.3 715.1a1 1 0 00-.6-.4l-1.2-.3-.6-.2a2.8 2.8 0 00-.5 0 1.8 1.8 0 00-.4 0 .7.7 0 00-.6.5.8.8 0 00.2.7 1.1 1.1 0 00.4.3 3.7 3.7 0 00.4.2l.6.3 1.1.4a1 1 0 001.3-.7 1 1 0 000-.8zM800 667.5a.7.7 0 00-.3-.3 1 1 0 00-1-.3l-.7.2-.2.1a.6.6 0 00-.2.2.4.4 0 00-.1.2.6.6 0 00-.1.4v.4a.6.6 0 00.3.2.8.8 0 00.3.2l.7.2a1 1 0 001-.3l.1-.2a1 1 0 00.2-.5.7.7 0 000-.5zM450.2 636.4l-1.6-.8a2 2 0 000-.6V634.4a4.5 4.5 0 000-.8.5.5 0 00-.9-.2 3.9 3.9 0 00-.5.6v.1h-.1a1.6 1.6 0 00-.2.3 3.8 3.8 0 00-.4.8l-.3.7v.3a1 1 0 00.1.4 1 1 0 00.5.5l1.2.6 1.2.5a1.2 1.2 0 00.9.1 1.1 1.1 0 00.6-.5 1 1 0 00-.5-1.4zM466.2 616a.7.7 0 00-.2-.3.9.9 0 00-.9-.2l-.7.3h-.2a.5.5 0 00-.2.2.3.3 0 000 .1.5.5 0 000 .2.8.8 0 000 .3.6.6 0 00.4.3l.7.3a.8.8 0 00.5 0 .8.8 0 00.4-.2 1 1 0 00.3-.6.7.7 0 000-.4zM378.4 616.8a1 1 0 00-.3-.4 1 1 0 00-1 0 1 1 0 00-.4.3.4.4 0 010 .1 1.6 1.6 0 00-.1.3v.9a.9.9 0 000 .4.9.9 0 00.6.6.9.9 0 00.4 0h.3a1.2 1.2 0 00.5-.2l.1-.2a1 1 0 00.2-.5v-.7a1.3 1.3 0 00-.3-.6zM415 650.9a1.1 1.1 0 00-.2-.5.8.8 0 00-.3-.2.9.9 0 00-.4 0 1 1 0 00-.5 0 1 1 0 00-.4.4l-.4.5-.1.2v.2l-.1.1a.5.5 0 000 .2.5.5 0 000 .1.5.5 0 000 .3.6.6 0 00.2.3l.1.1a.8.8 0 00.4.1h.4l.2-.1.3-.2.4-.3a1 1 0 00.4-.4 1 1 0 00.1-.5zM412.3 608.2a.8.8 0 00-.2-.3.8.8 0 00-.4-.2.8.8 0 00-.5 0l-.4.1-.4.2h-.1a.4.4 0 00-.2.2.3.3 0 000 .3.7.7 0 000 .3.6.6 0 00.3.2l.4.2.4.2a1 1 0 00.5 0 1 1 0 00.4-.3 1 1 0 00.2-.6.6.6 0 000-.3zM257.6 751.7v-.5a1 1 0 00-.3-.6 1 1 0 00-.7-.3 1 1 0 00-.7.3 1 1 0 00-.2.6v.9a2.7 2.7 0 000 .4v.4a.6.6 0 000 .4.7.7 0 00.3.3 1 1 0 001.2 0l.2-.2a.9.9 0 00.1-.5v-.4a3 3 0 00.1-.4v-.4zM313.1 660.3v-.1-.7a.6.6 0 00-.3-.3.4.4 0 00-.1 0 .6.6 0 00-.4-.1h-.4a.5.5 0 00-.2.2.5.5 0 00-.2.3v.2a1.6 1.6 0 000 .3v.6a.7.7 0 00.1.3.8.8 0 00.5.5.7.7 0 00.3 0h.2a.8.8 0 00.4-.2.9.9 0 00.3-.6zM341.8 632.4l-.2-.2a.8.8 0 00-.4-.2 1.8 1.8 0 00-.7-.1 2 2 0 00-.8.1 2.6 2.6 0 00-.4.2 1.6 1.6 0 00-.5.5 2 2 0 00-.2.5 2.4 2.4 0 000 .4v.3a.7.7 0 000 .2.7.7 0 00.5.3 1 1 0 00.4 0 .7.7 0 00.3-.1.5.5 0 00.2-.2l-.1.1a1.9 1.9 0 01.1-.1h.2l.1-.1a1 1 0 01.2-.1h.2a1 1 0 00.7-.1 1 1 0 00.4-.6 1 1 0 000-.8zM277 644.4l-2.9-1.6a1 1 0 00-.7 0 1 1 0 00-.5.4 2.4 2.4 0 00-.3 1.8 1.8 1.8 0 00.5.9 2.2 2.2 0 00.8.5.6.6 0 00.7-.3.6.6 0 00-.1-.7.8.8 0 010-.2.4.4 0 000-.2l1.8.8a.8.8 0 00.6.1.8.8 0 00.5-.4.8.8 0 00-.4-1.1zM274.4 645zM346 717a.8.8 0 00-.3-.4l-1-.7-1-.6a.5.5 0 00-.6.6l.6 1 .7 1a1 1 0 00.3.3.9.9 0 00.5.1 1 1 0 00.6-.2 1 1 0 00.3-.7.8.8 0 00-.1-.5zM278.3 698v-.5a1 1 0 00-.2-.5.7.7 0 00-.6-.3.7.7 0 00-.6.3 1 1 0 00-.1.5v.5l-.1 1a.8.8 0 101.7 0zM345.3 681.5a13.1 13.1 0 00-1.4 0h-1.1a.8.8 0 00-.4.2 2.7 2.7 0 00-.8.3.5.5 0 000 .8 2.8 2.8 0 00.8.3 1.2 1.2 0 00.3.2 2.8 2.8 0 00.5 0l.7.1a11 11 0 001.4 0 1 1 0 001-1 1 1 0 00-1-.9zM312.8 689.8a.7.7 0 00-.7-.2l-1.7.3a.4.4 0 000 .8c.6 0 1.1.2 1.7.3a.7.7 0 00.7-.2.8.8 0 00.2-.5.8.8 0 00-.2-.5zM221.4 669.1l-.9-1.8-.4-1a1.2 1.2 0 00-.4-.4 1 1 0 00-.4-.3.4.4 0 00-.4.1 1 1 0 000 .6 1.7 1.7 0 00.1.6l.5 1 1 1.8a.5.5 0 00.7.2.6.6 0 00.2-.8zM229.2 635.9a.6.6 0 00-.4-.2h-.5a5.5 5.5 0 00-.5 0h-.2a.6.6 0 00-.1.2.3.3 0 00-.1.2.3.3 0 000 .2.7.7 0 000 .3.6.6 0 00.2.1.6.6 0 00.2.2 5.5 5.5 0 00.5 0h.5a.4.4 0 00.2 0 .5.5 0 00.2-.2.5.5 0 00.1-.2.5.5 0 00.1-.3.7.7 0 00-.2-.3zM195.3 591.1a1.7 1.7 0 000-.2 1.5 1.5 0 000-.2 1 1 0 00-.2-.2h-.1v-.2H194.3a1.9 1.9 0 00-.2 0h-.1a.9.9 0 00-.7.3 2.3 2.3 0 00-.2.4 1.4 1.4 0 00-.1.3 1 1 0 000 .3 1 1 0 000 .3 1 1 0 00.2.4 1.2 1.2 0 00.2.2.9.9 0 00.6 0 1 1 0 00.3 0 .5.5 0 00.2-.2.5.5 0 00.1-.3.3.3 0 00.2 0 .5.5 0 00.3-.2v-.2a.8.8 0 00.2-.3v-.2zM57.4 675zM58.4 673.4a2.2 2.2 0 00-1.2 0 3.8 3.8 0 00-.5.3h-.2l-.1.1v.1a1.1 1.1 0 00-.5.3 2 2 0 00-.4.4 2.6 2.6 0 00-.2.7 1.2 1.2 0 000 .8v-.3a2.6 2.6 0 000 .8 1 1 0 00.5.6 1 1 0 00.8.1 1 1 0 00.5-.4l.1-.2a1 1 0 000-.3 2.3 2.3 0 010-.4 1.1 1.1 0 000-.3 1.7 1.7 0 01.1-.3 2.4 2.4 0 00.1-.2 1.2 1.2 0 00.1-.3l.1-.2a.2.2 0 00.1 0l.2-.1h.2l.2-.1a.5.5 0 000-1zM411.4 534.2h-.2a.9.9 0 00-.4-.1.8.8 0 00-.2 0h-.3a1 1 0 00-.3-.2h-.3a1.2 1.2 0 00-.6 0l-.4.1a1 1 0 00.3 1.9h.3a1.4 1.4 0 00.7-.2 1.7 1.7 0 01.2-.1 1 1 0 00.3-.2h.2a.7.7 0 00.3-.2.7.7 0 00.2-.1h.3a.4.4 0 000-1zM116.5 784.2a1 1 0 000 1.8 1 1 0 000-1.8zM102 656a1.1 1.1 0 00-.3-.4l-.2-.2-.3-.2-.4-.4a.7.7 0 00-.3-.2.7.7 0 00-.4-.1 1.2 1.2 0 00-.8.3l-.1.2a1 1 0 00-.2.5v.3a1 1 0 00.3.5l.3.4.2.2.3.2a.7.7 0 00.3.3.9.9 0 00.4 0 .9.9 0 00.5 0 .8.8 0 00.3-.3l.2-.2a1 1 0 00.1-.6zM167.3 682.1a1.2 1.2 0 00-.3-.5l-.5-.4-.2-.2a.9.9 0 00-.5-.1l-.2-.1a.6.6 0 00-.4 0 .4.4 0 00-.2 0 .7.7 0 00-.3.2l-.2.2v.2a.7.7 0 000 .4.6.6 0 000 .3.6.6 0 00.1.4.9.9 0 00.3.4l.4.4a1 1 0 00.4.3 1 1 0 00.4 0 .9.9 0 00.5 0 .9.9 0 00.4-.3l.2-.2a1.3 1.3 0 00.1-.6zM107.2 727.2a1 1 0 00-.3-.3 1.2 1.2 0 00-1.1-.3l-.4.1a1.8 1.8 0 00-.5.2.6.6 0 00-.2.1.8.8 0 00-.2.3.5.5 0 000 .1 1 1 0 000 .3 1 1 0 00.4.8 3.3 3.3 0 00.5.2l.4.1a1.1 1.1 0 001.2-.3l.1-.2a1.1 1.1 0 00.2-.6.9.9 0 00-.1-.5zM136.4 634.7a1 1 0 00-.7-.3H134a.8.8 0 00-.3.2.5.5 0 00-.1.1.8.8 0 000 1.4 1.3 1.3 0 000 .1.5.5 0 00.3.2.9.9 0 00.4 0h1.4a1 1 0 001-1 1 1 0 00-.3-.7zM180 746.3a1 1 0 00-.5-.4h-.1l-.2-.1a.8.8 0 00-.5-.1h-.4a1 1 0 00-.4 0 1 1 0 00-.4.3 1 1 0 00-.3.4.9.9 0 00-.1.5v.3a1.3 1.3 0 00.3.6l.3.2a1.4 1.4 0 00.6.2h.7a2 2 0 00.3-.2h.2a1 1 0 00.4-.4 1 1 0 00.1-.6 1 1 0 000-.7zM206.3 694.2a1 1 0 00-.2-.4l-.3-.2a1.2 1.2 0 00-.5-.1h-.3a1.1 1.1 0 00-.5.3l-.4.4-.2.2-.3.3a.7.7 0 000 .2.5.5 0 00-.1.3.9.9 0 000 .2 1 1 0 000 .4.8.8 0 00.3.3l.2.2a1.1 1.1 0 00.6.1h.6l.1-.2h.1l.1-.1.2-.2.4-.4a1.3 1.3 0 00.4-.9 1 1 0 00-.2-.4zM153 715.2a1.1 1.1 0 000 2.3 1.1 1.1 0 000-2.3zM118.3 687.5a1.1 1.1 0 000 2.1 1.1 1.1 0 000-2.1zM64.2 627.8a1 1 0 00-.7-.3l-1.6.2-.6.1H61a1.7 1.7 0 00-.4.2.6.6 0 000 1 1.7 1.7 0 00.4.2h.3l.6.2 1.6.1a1 1 0 00.7-.3 1 1 0 000-1.4zM92.2 591.7a.9.9 0 00-.4-.6l-1-.4a4.1 4.1 0 00-.7-.2 1 1 0 00-.7 0l-.2.1a.6.6 0 00-.2.3.6.6 0 000 .4 1.5 1.5 0 000 .2.8.8 0 00.3.4 1.5 1.5 0 00.4.3l.2.1.9.5a1 1 0 00.7.1 1 1 0 00.7-1.2zM29.5 663a.9.9 0 00-.2-.3l-.2-.1a.8.8 0 00-.4-.2h-.5a.6.6 0 00-.3.1.2.2 0 00-.1 0h-.1a.4.4 0 00-.1.2h-.1a.6.6 0 00-.2.2.7.7 0 00-.1.3.7.7 0 000 .3.7.7 0 00.3.2l.2.2a1 1 0 00.5 0h.4a.7.7 0 00.4 0 .8.8 0 00.3-.2.6.6 0 00.1-.2.7.7 0 00.1-.4zM18.8 615a.8.8 0 00-.6-.3H17a2 2 0 00-.3.1h-.3a.6.6 0 00-.4.6.6.6 0 00.4.5l.3.1a2 2 0 00.3 0h.4l1 .1a.8.8 0 00.5-.2.8.8 0 00.2-.6.8.8 0 00-.2-.4zM482 713.7v.1zM442.6 728a1.5 1.5 0 00-.4.1l-.2.2-.7.5-1 .8a1 1 0 00-.2.7 1 1 0 001 1 1 1 0 00.6-.3l.8-1 .5-.6.2-.2a1.3 1.3 0 00.1-.4.6.6 0 00-.7-.8zM426.8 691.4a.8.8 0 00-.8-.2h-.2l-.3.1a.3.3 0 000 .1h-.2l-.2.2-.4.5a.7.7 0 00-.2.3.7.7 0 000 .3.7.7 0 000 .4.7.7 0 00.2.3l.2.2a1 1 0 00.5.1h.2a1 1 0 00.5-.2l.4-.5a2.3 2.3 0 00.4-.4v-.1a.5.5 0 00.1-.1v-.2a.8.8 0 00-.2-.8zM389.7 728.5a1 1 0 000 1.9 1 1 0 000-2zM453.2 666.8a.8.8 0 000 1.7.8.8 0 000-1.7zM520.2 727.5a1 1 0 000 2 1 1 0 000-2zM492.4 683.2a1 1 0 000 2 1 1 0 000-2zM483.7 805.7l-.1-.4a1.6 1.6 0 00-.1-.3v-.2a.8.8 0 00-.3-.3.7.7 0 00-.4 0 .7.7 0 00-.3 0 .7.7 0 00-.3.3v.2a2.2 2.2 0 00-.2.2v.5a1 1 0 000 .5 1.1 1.1 0 00.2.4l.2.2a.9.9 0 00.4.1.7.7 0 00.4 0 .7.7 0 00.3-.3 1.1 1.1 0 00.2-.4 1 1 0 000-.5zM560.4 823.1a1 1 0 00-.3-.5l-.8-.7-.2-.1a.6.6 0 00-.4-.2.4.4 0 00-.2 0 .7.7 0 00-.4.2 1 1 0 00-.4.3v.3a.7.7 0 000 .4.5.5 0 000 .3.7.7 0 00.2.3l.7.8a1 1 0 001.2.2.9.9 0 00.3-.2l.2-.3a1 1 0 00.2-.5zM481.3 744.8a1 1 0 00-.3-.5l-.4-.6a.9.9 0 00-.1-.1l-.2-.3a1.4 1.4 0 00-.3-.2l-.3-.2a1 1 0 00-.5 0 .6.6 0 00-.4.1 1 1 0 00-.4.3l-.2.3-.2.3a1 1 0 000 .5 1 1 0 00.2.5l.1.2a1 1 0 00.4.3h.1l.6.6a1 1 0 00.3.2.8.8 0 00.5 0 .8.8 0 00.5 0 1 1 0 00.3-.2l.2-.3a1.3 1.3 0 00.2-.6zM620.3 762.4a1.4 1.4 0 00-1-.3H618.2a2 2 0 00-.5 0 1.5 1.5 0 00-.7.3.8.8 0 00-.2.4.7.7 0 00-.1.5 1.1 1.1 0 00.3.8l.3.2a1 1 0 00.2 0 1 1 0 00.5.2h1.5a1 1 0 00.5-.1 1.3 1.3 0 00.8-1.2 1.3 1.3 0 00-.4-.8zM600 716.5a1.4 1.4 0 00-.5-.3 1.5 1.5 0 00-.4 0H597.8a.8.8 0 00-.5.1.8.8 0 00-.4.3 1.2 1.2 0 00-.3.8 1.2 1.2 0 00.3.8 1.1 1.1 0 00.9.3H599.4a.8.8 0 00.4-.1 1.3 1.3 0 00.2-.4 1 1 0 00.3-.7 1 1 0 00-.3-.8zM560.2 778.7a1.2 1.2 0 000 2.4 1.2 1.2 0 000-2.4zM678.5 822.3a1 1 0 000 2.1 1 1 0 000-2zM682 746.6v-.2a.8.8 0 00-.3-.3.7.7 0 00-.3-.2l-.8-.2a1.2 1.2 0 00-1.2.3l-.2.2a1.2 1.2 0 00-.1.6.9.9 0 000 .5.9.9 0 00.3.4 1.2 1.2 0 001.2.3l.8-.3h.2a.7.7 0 00.3-.3.5.5 0 00.1-.2.6.6 0 000-.4zM735 746.6a1.1 1.1 0 000 2.2 1.1 1.1 0 000-2.2zM725 806.2a1.4 1.4 0 00-.6-.5l-.2-.2h-.1a.7.7 0 00-.3-.2h-.2l-.3-.1a1.2 1.2 0 00-.5 0 1.1 1.1 0 00-.5.2 1 1 0 00-.2.5 1 1 0 000 .5 2.7 2.7 0 000 .3 1 1 0 000 .2l.2.3v.1l.3.3a1.4 1.4 0 00.4.4 1.4 1.4 0 00.7.2h.4a1.3 1.3 0 00.6-.3 1 1 0 00.3-.5 1 1 0 000-.5 1.3 1.3 0 000-.7zM643 720.2a1 1 0 00-.2-.4l-.3-.2a1.2 1.2 0 00-.5-.1.4.4 0 000-.2.7.7 0 00-.3-.2 1 1 0 00-.5-.1 1.1 1.1 0 00-.3 0 .7.7 0 00-.2 0l-.2.1a2.2 2.2 0 00-.2.2 1.2 1.2 0 00-.3.5.8.8 0 000 .2 1.8 1.8 0 000 .2 2.3 2.3 0 000 .4 2.6 2.6 0 00.2.4 1.9 1.9 0 00.3.3 2.3 2.3 0 00.3.3 1.7 1.7 0 00.4.2 1.8 1.8 0 00.5 0 2 2 0 00.3 0h.4a1.6 1.6 0 00.3-.3 1 1 0 00.3-.3 1 1 0 000-1zM647.2 660.5a1.1 1.1 0 000 2.2 1.1 1.1 0 000-2.2zM352 829a.7.7 0 00-.4-.2.7.7 0 00-.4 0h-.2l-.2.1-.3.2-.5.3a1 1 0 00-.5.9v.3a1 1 0 00.3.4.7.7 0 00.3.2.7.7 0 00.4.1 1 1 0 001-.5l.2-.5.2-.3v-.4a.7.7 0 000-.4.6.6 0 000-.2zM422.2 773.5a1.2 1.2 0 00-.3-.6l-.2-.2a1.5 1.5 0 00-.4-.4l-.5-.2-.3-.2a.7.7 0 00-.4 0 .6.6 0 00-.3.1.8.8 0 00-.3.2l-.2.3-.1.2a1 1 0 000 .5.9.9 0 000 .4l.4.5.2.2.1.1.2.2a1 1 0 00.4.3.8.8 0 00.5 0 .9.9 0 00.5 0 1 1 0 00.4-.3l.2-.2a1.2 1.2 0 00.1-.7zM420.5 837l-.2-.3a1.3 1.3 0 00-.4-.4l-1-.4a3 3 0 00-.4-.2l-.2-.1a5.6 5.6 0 00-.8 0h-.4a1 1 0 00-.4.5 1 1 0 000 .4 1 1 0 00.2.6l.3.3a3 3 0 00.6.5l.9.4a1.3 1.3 0 001 .2 1.3 1.3 0 00.6-.6 1.2 1.2 0 00.2-.9zM350.6 761.6a.5.5 0 000-.3.8.8 0 00-.3-.3l-.2-.2-.2-.1a.9.9 0 00-.4 0 .8.8 0 00-.4.1 6.5 6.5 0 00-.7.5l-.4.4a.9.9 0 00-.2.4 1 1 0 000 .8.9.9 0 00.2.4l.2.2a1.2 1.2 0 00.6.1h.3a1.1 1.1 0 00.5-.3l.4-.4.5-.6.1-.3a.8.8 0 000-.4zM383.7 798.6a.7.7 0 00-.2-.3 1 1 0 00-.5-.3 1 1 0 00-.6 0l-.3.1a5.5 5.5 0 00-.6.3.7.7 0 00-.3.2.8.8 0 000 .8.8.8 0 00.3.2 5.4 5.4 0 00.6.2l.3.2a1 1 0 00.6 0 1 1 0 00.5-.3l.1-.2a1 1 0 00.2-.5.9.9 0 00-.1-.4zM284.5 809.2a1 1 0 00-.3-.4l-.2-.1a1 1 0 00-.4-.2H282.8a1 1 0 00-.5.3.8.8 0 00-.1.3.7.7 0 00-.1.3.6.6 0 000 .3.8.8 0 00.2.4 1 1 0 00.5.2h.8a.7.7 0 00.3 0 .8.8 0 00.5-.6.6.6 0 00.1-.3zM300.3 729.9a1.3 1.3 0 000-.2 1.2 1.2 0 00-.4-.8.7.7 0 00-.3-.3.7.7 0 00-.4 0h-.2a1.1 1.1 0 00-.5.2.6.6 0 00-.1.2l-.1.3a1.3 1.3 0 000 .4V730.3a.7.7 0 000 .4.7.7 0 00.2.3.8.8 0 00.4.2.8.8 0 00.4.1h.3a1.2 1.2 0 00.4-.2l.2-.3a1.1 1.1 0 00.2-.5zM321.9 786.8a1 1 0 000 1.9 1 1 0 000-2zM189.7 837.8a.7.7 0 00-.2-.4 1 1 0 00-.5-.3l-.9-.3-.4-.2a1.9 1.9 0 00-.7 0 .8.8 0 00-.4 0 .8.8 0 00-.3.4.7.7 0 000 .4.8.8 0 00.2.4l.1.2a1.2 1.2 0 00.3.3l.5.3.8.5a1 1 0 00.8.1 1 1 0 00.5-.3.7.7 0 00.2-.3 1 1 0 000-.8zM216.8 716.8a1.2 1.2 0 00-.5-.4 1.3 1.3 0 00-.6-.2 1.4 1.4 0 00-.5.1 1.2 1.2 0 00-.5.5 1.3 1.3 0 00-.1.6v.7a1 1 0 000 .5 1 1 0 00.3.4 1.5 1.5 0 00.8.3h.4a1.1 1.1 0 00.5-.3l.2-.2a1.2 1.2 0 00.1-.6v-.5-.2a1.3 1.3 0 00-.1-.7zM236.6 805.8a1.1 1.1 0 000 2.2 1.1 1.1 0 000-2.2zM194 797a1 1 0 00-.2-.4.7.7 0 00-.3-.2.7.7 0 00-.4-.1 1 1 0 00-.9.5l-.5 1-.1.1a.4.4 0 000 .3.3.3 0 000 .1.6.6 0 00.1.3.8.8 0 00.3.1.5.5 0 00.3 0 .5.5 0 00.2 0l1-.6a1 1 0 00.5-.9zM144.4 749l-.2-.4v-.2a.7.7 0 00-.3-.3.5.5 0 00-.2 0 .6.6 0 00-.2 0h-.2a.6.6 0 00-.2 0 .7.7 0 00-.2.3l-.1.2-.2.3a1 1 0 000 1 1 1 0 001.8 0 1 1 0 000-1zM161.8 810a.8.8 0 00-.2-.3l-.2-.2a1 1 0 00-.5-.1h-.3a1 1 0 00-.4.3l-.6.7-.1.1-.1.1-.1.2a1 1 0 000 .3 1.8 1.8 0 000 .2v.1a.6.6 0 00.2.3.5.5 0 00.2.2h.2a.9.9 0 00.4 0l.3-.1a1.6 1.6 0 00.3-.2v-.1l.3-.2.4-.3a.7.7 0 00.2-.3.8.8 0 000-.4.9.9 0 000-.3zM122.7 851a1 1 0 00-.2-.5l-.5-.4-.3-.1a1.1 1.1 0 00-.4-.3 1.4 1.4 0 00-.3 0h-.1a.5.5 0 00-.3 0 .5.5 0 00-.2.2l-.2.2a.7.7 0 000 .3v.2a.5.5 0 000 .1.3.3 0 000 .1v.3l.2.1.2.3.4.5a.7.7 0 00.3.2.9.9 0 00.8 0 .8.8 0 00.3-.2l.1-.2a1 1 0 00.2-.5zM76.5 821.4a.9.9 0 00-.2-.4l-.2-.1a.9.9 0 00-.5-.1l-.8-.1a.7.7 0 00-.3 0 .8.8 0 00-.3.3.7.7 0 00-.2.3.8.8 0 00-.1.4v.2a1 1 0 00.2.4l.2.2a1 1 0 00.5.1h.8a.7.7 0 00.3-.1.8.8 0 00.5-.5.7.7 0 00.1-.4zM69.6 757.1a1 1 0 000 2 1 1 0 000-2zM33 717.1a1 1 0 00-.4-.6 10.5 10.5 0 00-1.1-.5l-.4-.2a1.2 1.2 0 00-.5 0h-.2a.8.8 0 00-.4 0 .8.8 0 00-.3.4.8.8 0 00.2.8l.1.2a1.4 1.4 0 00.4.3l.4.2a7.6 7.6 0 00.8.5 1 1 0 00.7 0 .9.9 0 00.6-.4 1 1 0 00.1-.7zM84.3 696a1 1 0 00-.6-.7 1 1 0 00-1.5.7l-.2 1-.1.5v.3a.8.8 0 000 .4v.7a.6.6 0 00.3.5.6.6 0 00.6-.1l.3-.4.1-.2a1 1 0 00.3-.3 1.2 1.2 0 000-.2l.3-.5.4-1a1 1 0 00.1-.5zM33.9 812a.9.9 0 000 1.8.9.9 0 000-1.7zM18 766.2l-.2-.5-.3-.9a1 1 0 00-.3-.4l-.2-.2a1 1 0 00-.8 0 1 1 0 00-.5.5 1 1 0 000 .9l.6.8.2.4a2.8 2.8 0 00.3.3 2 2 0 00.3.3.6.6 0 00.7 0 .7.7 0 00.3-.6 1.7 1.7 0 000-.2 1 1 0 00-.1-.4zM29.6 847.5a1.1 1.1 0 00-.3-.4l-.4-.4-.2-.2-.1-.1-.2-.1a.5.5 0 00-.2-.1h-.1a1 1 0 00-.9.1 1 1 0 00-.2 1v.1l.2.2.2.1.2.2.4.5a.8.8 0 00.3.2.8.8 0 00.7 0 .8.8 0 00.3-.2l.2-.2a.9.9 0 000-.5zM116.5 821.7a.8.8 0 000 1.6.8.8 0 000-1.6zM72 785.4a.6.6 0 00-.2-.3.6.6 0 00-.1-.3.6.6 0 00-.2-.2h-.2a.8.8 0 00-.4 0h-.2a.8.8 0 00-.3.3 1.5 1.5 0 00-.1.2 1.9 1.9 0 000 .4 1.3 1.3 0 00.1.6 1 1 0 00.4.4 1 1 0 00.6.1.9.9 0 00.4-.1l.2-.2a1 1 0 00.2-.3.7.7 0 000-.4.6.6 0 00-.2-.2zM250.6 698.8a1.3 1.3 0 00-.3-.5 1.4 1.4 0 00-.9-.4 1.3 1.3 0 00-1 .6l-.6.7-.2.4a1.1 1.1 0 00-.1.4v.2a.9.9 0 00.1.8.8.8 0 00.8.2h.2a1.2 1.2 0 00.4-.2l.3-.2.7-.5a1.3 1.3 0 00.5-.4 1.2 1.2 0 00.2-.7zM223 758.6l-.3-.3a1.2 1.2 0 00-.5-.3 2.3 2.3 0 00-.4 0h-.4a1.8 1.8 0 00-.3.1l-.2.3a2.6 2.6 0 00-.3.2v.1a2.3 2.3 0 00-.1.4v.4a.2.2 0 000 .1 2.1 2.1 0 000 .5 2.9 2.9 0 00.1.3.9.9 0 00.3.4.8.8 0 00.5.2h.3a1.2 1.2 0 00.6-.2 1 1 0 00.4-.4l.1-.3v-.1a.8.8 0 00.2-.2 1 1 0 00.2-.4v-.3a1.2 1.2 0 00-.3-.5zM288.5 850.8a1 1 0 00-.9-.5 2.8 2.8 0 00-.8.2 6.8 6.8 0 00-.9.4 11.5 11.5 0 00-1.1.6 1.2 1.2 0 00-.5.7 1.1 1.1 0 00.8 1.4h.3a1.2 1.2 0 00.5-.2 13 13 0 001.2-.5 6.4 6.4 0 00.6-.4 3 3 0 00.8-.7 1 1 0 000-1zM250.1 833.7l-.6-.6-.4-.3a1.2 1.2 0 00-.2-.1l-.2-.1h-.3a.8.8 0 00-.7.2.8.8 0 00-.2.7v.2a1.5 1.5 0 00.1.2.7.7 0 00.2.3l.3.3.6.7a.8.8 0 00.3.2.9.9 0 00.8 0 .7.7 0 00.3-.2 1 1 0 000-1.5zM292.5 772.7a.7.7 0 000 1.3.7.7 0 000-1.3zM387 850.9a1.2 1.2 0 00-.4-.6 1.1 1.1 0 00-.8-.3h-.6a2.4 2.4 0 00-.5 0 2.2 2.2 0 00-.4.2 1 1 0 000 1.7l.3.2h.1a1.1 1.1 0 00.3 0h.8a.8.8 0 00.5 0 1 1 0 00.6-.6 1 1 0 000-.5zM434.8 794.3v-.4a1.5 1.5 0 000-.3l-.1-.2a1.1 1.1 0 00-.4-.4h-.1a.8.8 0 00-.4-.1.9.9 0 00-.5.1 1 1 0 00-.4.3.8.8 0 00-.1.3 1.6 1.6 0 000 .3v.3l-.1.7a1.3 1.3 0 00.3.8.8.8 0 00.4.2.8.8 0 00.4.1h.3a1.1 1.1 0 00.8-1l-.1-.7zM488.7 856.8a1.2 1.2 0 00-.3-.5l-.2-.2a1.2 1.2 0 00-.7-.2h-.5a1 1 0 00-.4-.1 1.1 1.1 0 00-.6 0 1.4 1.4 0 00-.6.4 1 1 0 00-.3.4 1 1 0 00-.2.5l.1.4a1.3 1.3 0 00.4.6 1.4 1.4 0 00.6.4 1.1 1.1 0 00.6 0 1.2 1.2 0 00.4-.1h.5a1 1 0 00.5-.1 1.1 1.1 0 00.6-.7.8.8 0 00.1-.4zM516.3 799.7a1.2 1.2 0 000 2.3 1.2 1.2 0 000-2.3zM546.2 746a1 1 0 000 2.1 1 1 0 000-2.1zM502.3 770.6a2 2 0 00-.7-.5 2.2 2.2 0 00-.6-.1 1.1 1.1 0 00-.7 0 .8.8 0 00-.2 0 2.9 2.9 0 00-.7.4 3.1 3.1 0 00-.4.3 3.3 3.3 0 00-.3.5 2.4 2.4 0 00-.4.7 1.2 1.2 0 00.1.9 1.2 1.2 0 001.7.4 1.1 1.1 0 00.5-.7v-.2h.1l.1-.2.3-.2-.1.1a1.3 1.3 0 00.4-.2h.5a.6.6 0 00.3-.1.7.7 0 00.3-.3.7.7 0 00-.2-.8zM615.6 836.5l-.2-.6v-.3a1.2 1.2 0 00-.4-.5v-.1a.8.8 0 00-1.1 0h-.1a1.2 1.2 0 00-.3.6l-.1.3-.2.5a1.2 1.2 0 00.3 1.2 1.3 1.3 0 001 .4.8.8 0 00.4-.1.9.9 0 00.4-.3 1.2 1.2 0 00.3-1.1zM600.5 795.6a1.7 1.7 0 00-.4-.7l-.4-.3a1.7 1.7 0 00-.9-.2h-.5a5.5 5.5 0 00-1 0l-.4.2a1.4 1.4 0 00-.5.4 1 1 0 00-.2.4 1.3 1.3 0 00-.2.7v.5l.3.4a1.3 1.3 0 00.4.4 1.3 1.3 0 00.6.4 4.7 4.7 0 001 0h.5a2 2 0 001.3-.5 1.2 1.2 0 00.3-.5 1.3 1.3 0 00.2-.7zM542.7 858.9v-.3a1.7 1.7 0 00-.2-.7l-.1-.4a5.1 5.1 0 00-.2-.6 1 1 0 00-.3-.4.8.8 0 00-.5-.2 1 1 0 00-.4.1.8.8 0 00-.4.5 5.1 5.1 0 00-.2.6l-.1.4a1.7 1.7 0 00-.2.7V859.5a1.3 1.3 0 001.4 1.4 1.4 1.4 0 001.3-1.4l-.1-.6zM519.9 820a1.2 1.2 0 000 2.5 1.2 1.2 0 000-2.5zM741.3 850.5v-.3a2.2 2.2 0 000-.4 1.2 1.2 0 00-.3-.6l-.3-.2a1.1 1.1 0 00-1.1 0 1.3 1.3 0 00-.6.8 2.2 2.2 0 000 .4v1a1 1 0 000 .5.9.9 0 00.3.4.9.9 0 00.4.2 1 1 0 00.5.1h.3a1.3 1.3 0 00.6-.3l.1-.2a1.3 1.3 0 00.2-.7 3.2 3.2 0 00-.1-.7zM659.8 794a1.6 1.6 0 00-.5-.4 1 1 0 000-.4.8.8 0 00.1-.2.9.9 0 00-.2-1 1.4 1.4 0 00-1-.2 1.3 1.3 0 00-.6.2h-.1a1.2 1.2 0 00-.7.5 4.6 4.6 0 00-.2.6 3.8 3.8 0 000 .5 2.3 2.3 0 000 1 2.5 2.5 0 00.7 1 2.2 2.2 0 00.4.3 2.1 2.1 0 00.6.2 1 1 0 00.5 0 1 1 0 00.5-.2 1.3 1.3 0 00.6-.8 1.3 1.3 0 000-1zM700.3 774.8a1.3 1.3 0 00-1-.3h-1.9a2 2 0 00-.4 0 1.3 1.3 0 00-.5.4 1.2 1.2 0 00-.4.8 1.1 1.1 0 00.3.7 1.1 1.1 0 00.6.4 2 2 0 00.4 0h.7l1.3.1a1.3 1.3 0 001.3-1.3 1.4 1.4 0 00-.4-.8zM667.1 844.8a1.4 1.4 0 00-.3-.6l-.3-.2a1.4 1.4 0 00-.7-.2h-.6a1.4 1.4 0 00-.5.1.5.5 0 00-.2 0l-.1.1-.1.1-.1.2h-.1v.1a167751878180.2 167751878180.2 0 01-.1.2v.4a1 1 0 000 .3l.1.4a1.1 1.1 0 00.2.2 1.4 1.4 0 00.3.2 1.2 1.2 0 00.3.2 1.1 1.1 0 00.5 0h.6a1 1 0 00.6 0 1.1 1.1 0 00.4-.3 1 1 0 00.3-.5 1 1 0 000-.5zM779.4 807.5a1 1 0 00-.5-.4l-1-.8a.5.5 0 00-.1 0l-.1-.1h-.3a.3.3 0 00-.1 0h-.4l-.1.2-.2.2v.5a.9.9 0 00.1.5l.4.5.4.6a1 1 0 00.4.4 1.2 1.2 0 00.6.2h.4a1.2 1.2 0 00.5-.3 1 1 0 00.2-.4 1 1 0 00.1-.5 1.3 1.3 0 00-.4-.6zM811.3 847.6l-.3-.2-.3-.1a3 3 0 01-.3-.2l-.3-.2a.6.6 0 00-.2 0 .8.8 0 00-.5 0 1.3 1.3 0 00-.2 0 .8.8 0 00-.3.1v.1a.4.4 0 00-.2.2v.1a.6.6 0 000 .4.5.5 0 000 .2v.2l.5.5c.2.2 0 .3.1.4l.2.3a1.3 1.3 0 001.2.6h.3a1.4 1.4 0 00.6-.3 1 1 0 00.3-.4 1 1 0 000-.5 1.3 1.3 0 00-.6-1.2zM752.9 787.2a1 1 0 00-.4-.4l-1.1-.7-.2-.1h-.5a.7.7 0 00-.3.1.5.5 0 000 .2.6.6 0 00-.1.4.8.8 0 000 .4.7.7 0 00.2.2l.2.3.4.6a1.1 1.1 0 00.4.4 1 1 0 00.5.1 1 1 0 00.7-.3.8.8 0 00.3-.3 1 1 0 000-.4 1 1 0 00-.1-.5zM832.3 777.8a1.4 1.4 0 00-.3-.6l-.6-.5a8.1 8.1 0 00-1-.7 1.4 1.4 0 00-.6-.2 1.4 1.4 0 00-.6.2 1.4 1.4 0 00-.5.5l-.1.3a1 1 0 000 .5.6.6 0 000 .4 1 1 0 00.3.4 4.7 4.7 0 00.5.6l.6.5a1 1 0 00.4.3 1.2 1.2 0 00.6.1 1.1 1.1 0 00.5-.1 1 1 0 00.5-.3l.2-.3a1.5 1.5 0 00.2-.7zM777.3 840a1.3 1.3 0 00-.3-.6l-.6-.4-.2-.3h-.2l-.2-.2h-.1l-.2-.1-.3-.2h-.3a1.8 1.8 0 00-.4 0l-.1.1a.8.8 0 00-.4.2v.1a.6.6 0 00-.2.3 1.3 1.3 0 000 .2v.1a1 1 0 000 .5l.1.4v.1a2.9 2.9 0 00.3.4l.2.3.5.6a1 1 0 00.5.3 1.2 1.2 0 00.5 0 1.1 1.1 0 00.6 0 1 1 0 00.5-.3l.2-.3a1.4 1.4 0 00.2-.8zM858.5 835.3H855.8a1.7 1.7 0 00-.7.2 1.6 1.6 0 00-.3.2h-.1a1 1 0 000 2h.1a1 1 0 00.3.1 1.8 1.8 0 00.7.2 2.4 2.4 0 00.4 0h2.3a1.5 1.5 0 100-3zM810.6 804a1 1 0 00-.2-.4 1.3 1.3 0 00-.6-.4 1.4 1.4 0 00-.7 0l-.5.1h-.3l-.2.1-.3.1a.9.9 0 00-.3.3.5.5 0 00-.1.2.9.9 0 00-.1.5v.5a1 1 0 00.4.3.9.9 0 00.3.2h.5l.5.2a1.4 1.4 0 00.7 0 1.3 1.3 0 00.6-.4l.2-.2a1.3 1.3 0 00.2-.7 1 1 0 000-.4zM803.4 758.5a.8.8 0 00-.3-.4 1.1 1.1 0 00-.5-.3 1.5 1.5 0 00-.7 0l-.7.1a.8.8 0 00-.2.1.5.5 0 00-.1 0v.2a.5.5 0 00-.2 0v.2a.8.8 0 00-.2.2V759a1 1 0 000 .3l.1.3a1.2 1.2 0 00.4.4.8.8 0 00.3 0l.7.2a1.2 1.2 0 00.7 0 1.2 1.2 0 00.5-.3l.2-.3a1.2 1.2 0 00.2-.6.8.8 0 00-.2-.4zM851.4 734.7a1.4 1.4 0 00-.3-.6l-.3-.2a1.3 1.3 0 00-.7-.1H848.5l-.1.2a1.2 1.2 0 00-.6 1 1.2 1.2 0 00.6 1h.1a1.4 1.4 0 00.7.2H850.1a1 1 0 00.5-.1 1 1 0 00.5-.3 1 1 0 00.2-.4 1 1 0 00.1-.5zM837 634.2a1.2 1.2 0 00-.3-.5l-1-1.2.1.2a1.1 1.1 0 00-.3-.4 1 1 0 00-.5-.2h-.3a1.3 1.3 0 00-.7.1 1.3 1.3 0 00-.5.5 1 1 0 00-.2.5 1 1 0 000 .6l.2.3a1.3 1.3 0 00.3.4l1.1 1a1 1 0 00.4.2 1.1 1.1 0 001 0 1 1 0 00.4-.2l.2-.3a1.2 1.2 0 00.2-.6zM853.5 665l-.2-.1a1.3 1.3 0 00-.5-.3 2.5 2.5 0 00-1-.2 3.5 3.5 0 00-1.3.3l-.3.2a1.5 1.5 0 00-.4.3 2.8 2.8 0 00-.3.4 2 2 0 00-.2.3 3.5 3.5 0 00-.2.6 1.3 1.3 0 000 1 1.3 1.3 0 00.7.4 1.2 1.2 0 00.8.1 1.2 1.2 0 00.7-.6 1.7 1.7 0 01.1-.1 2 2 0 01.2-.2.9.9 0 00.1-.2h.4a.5.5 0 01.1 0 1.3 1.3 0 001-.2 1.2 1.2 0 00.5-.7 1.2 1.2 0 00-.2-1zM706.4 698.9a1.2 1.2 0 00-.3-.5 1 1 0 00-.8-.3H704.4a1.3 1.3 0 00-.4 0 1.1 1.1 0 00-.4.2 1 1 0 00-.4.8 1 1 0 00.4.7l.2.2a.7.7 0 00.2.1 1.9 1.9 0 00.4 0H705.3a1 1 0 00.5-.1.9.9 0 00.3-.2.8.8 0 00.3-.4 1 1 0 000-.4zM810.5 544.4a1.1 1.1 0 00-.5-.7l-1.2-.5-.9-.4h-.3a1.2 1.2 0 00-.7 0 .8.8 0 00-.5.3.8.8 0 000 .6v.1a.8.8 0 00.2.4.6.6 0 00.2.2l.3.2.6.3 1.2.7a1 1 0 001.5-.4 1 1 0 00.1-.8zM849.6 461.6a1 1 0 00-.7-.3h-1a1.2 1.2 0 00-.5.1.8.8 0 000 1.5.9.9 0 00.4.1h1.1a.7.7 0 00.4 0 .6.6 0 00.3-.3.7.7 0 00.2-.3.8.8 0 00.1-.3 1 1 0 00-.3-.6zM853.7 537.2a1 1 0 00-.6-.7l-1.3-.6-.6-.3a1.7 1.7 0 00-.5-.1h-.3a1 1 0 00-.5.1h-.1a.7.7 0 00-.3.4.8.8 0 000 .5c0 .7.8 1 1.3 1.3l1.3.7a1.2 1.2 0 00.8 0 1.1 1.1 0 00.8-1.3zM799.9 458.8a1 1 0 000 2 1 1 0 000-2zM851.3 315v-.6a4.6 4.6 0 00-.1-.5 1.2 1.2 0 00-.3-.5 1 1 0 00-.3-.3.9.9 0 00-.4-.1.8.8 0 00-.5 0 .9.9 0 00-.3.4 1.2 1.2 0 00-.2.5l-.1.5v1.9a1.2 1.2 0 00.3.8 1.1 1.1 0 00.8.3 1.2 1.2 0 00.9-.3 1.3 1.3 0 00.3-.9 5 5 0 01-.1-1.2zM855 385.7a1.2 1.2 0 000 2.3 1.2 1.2 0 000-2.3zM732.6 317.2v-.3a.8.8 0 00-.3-.2.5.5 0 00-.2-.2.8.8 0 00-.4 0h-.6a.8.8 0 00-.3.3.7.7 0 00-.1.3 1 1 0 00-.1.4v1.1a.7.7 0 00.1.4.9.9 0 00.5.5.7.7 0 00.4 0 1 1 0 00.7-.2l.1-.2a1 1 0 00.2-.5V317.7v-.1a1 1 0 000-.4zM345 209.4a1 1 0 00-1.3-.7.7.7 0 01-.2 0 .8.8 0 01-.3 0l-.1-.1-.2-.2-.1-.2a2.3 2.3 0 01-.2-.2 1.1 1.1 0 00-1.4-.4 1.1 1.1 0 00-.6 1.3 3.1 3.1 0 00.6 1.1 2.2 2.2 0 001 .6 2.8 2.8 0 002 .1.7.7 0 00.4-.2.8.8 0 00.3-.3 1 1 0 000-.8zM839.4 203v-.2a1.4 1.4 0 00-.4-1 1.1 1.1 0 00-1.6 0 1.1 1.1 0 00-.3.4 1.4 1.4 0 00-.1.6 2.6 2.6 0 000 .2v2a1.3 1.3 0 00.3.9 1.2 1.2 0 001.8 0 1.3 1.3 0 00.3-.9v-1.3-.6zM774.4 267.5a1.3 1.3 0 00-.9-.4h-1.7a2 2 0 00-1.2.2 1.2 1.2 0 000 2.1 2 2 0 001.2.2h1.7a1.2 1.2 0 001-2.1zM580.3 168.7a3.5 3.5 0 00-3-1.6 3 3 0 00-3 1.8.6.6 0 00.9.7l.5-.4h.2s.2-.1 0 0l.2-.1h.5a1.7 1.7 0 00.3 0h1.2c-.1-.1 0 0 0 0h.2l.2.2.1.1.3.3a.9.9 0 001.3-1zM503.3 192.2l-1.3-.3-1.2-.5a.4.4 0 00-.5.2.4.4 0 00.2.5l1.1.8 1.1.7a.7.7 0 00.6.1.7.7 0 00.5-.4.8.8 0 00-.5-1zM527.4 132.8a5.2 5.2 0 00-3-1.8 5.8 5.8 0 00-1.8 0 3.7 3.7 0 00-1.7.6c-.4.2-.2.9.3.7a7.6 7.6 0 011.4-.2 4.5 4.5 0 011.5 0 4.6 4.6 0 012.4 1.6.6.6 0 101-1z"/></g><g id="squiggles"><path class="cls-3" d="M540 809.4c1.7-.2 3.4-.6 4.5-2a5.3 5.3 0 001-4 6.2 6.2 0 00-6.6-5.3c-3.7.2-6.5 2.6-8.5 5.4-2.2 3-4.1 6.9-2.3 10.5 3.4 7.2 14.3 5.5 19.9 2.3 6-3.4 10.6-10.5 10.2-17.5a8.2 8.2 0 00-5.4-7.7 25 25 0 00-11-.8 41 41 0 00-11.7 3c-3.5 1.3-7.1 3.2-9.7 6-5.5 6-3.9 15-.7 21.8 1.5 3.2 3.8 6 7.3 6.8s7.6.4 11.1-.2a49 49 0 0020.4-8.4c3-2.2 6.3-4.7 8.2-8 2.1-3.4 3-7.8 3.6-11.7a61.2 61.2 0 00.7-6.2c0-2-3-2-3 0a55.8 55.8 0 01-1.6 10.2c-.8 3.3-1.9 6.3-4.3 8.8a44.3 44.3 0 01-15.3 9.8c-5.3 2-11.5 3.6-17.3 3.1a8 8 0 01-6.7-4.7 26.4 26.4 0 01-3-9.1 13.3 13.3 0 011.8-9c1.8-2.5 4.7-4.2 7.4-5.5a37.9 37.9 0 0118.5-3.8c2.5 0 5.8.5 7 3s.6 5.8-.3 8.3a17.5 17.5 0 01-12.8 11.1c-3 .7-7.2.8-9.6-1.5-3-2.7-.7-6.6 1.2-9.2 1.7-2.3 4.7-4.7 7.7-3.5a2.9 2.9 0 011.8 2.7c0 1.6-1 2.1-2.5 2.3a1.6 1.6 0 00-1.5 1.5c0 .7.7 1.6 1.5 1.5zM623 487.9c4-3.4 7.7-7 11.8-10a22 22 0 0112.4-5.2l-1-2.6q-8.5 10.9-17.1 21.6a1.5 1.5 0 001.8 2.4c4.3-2.2 7.8-5.6 11.4-8.7s7.3-5.8 12-6.5l-1.5-2.5-11.2 14.2c-.7.9-.4 2.7 1 2.6 4.7-.4 8.5-2.8 12.2-5.4 3.5-2.5 7.2-5.5 11.7-5.8l-1.3-2.3-9.2 15.6c-.7 1 .4 2.7 1.7 2.2a195.7 195.7 0 0032.2-16.4c1.6-1 .1-3.6-1.5-2.6a192 192 0 01-31.5 16.1l1.6 2.2 9.3-15.5a1.5 1.5 0 00-1.3-2.3c-4.6.3-8.4 2.8-12.1 5.4-3.5 2.5-7.3 5.4-11.7 5.8l1 2.5 11.3-14.2a1.5 1.5 0 00-1.5-2.5c-10 1.5-15.6 11.2-24.1 15.5l1.8 2.4 17.1-21.6a1.5 1.5 0 00-1-2.6c-5 .1-9.6 2.4-13.6 5.3-4.5 3.3-8.6 7.1-12.8 10.7-1.4 1.3.7 3.4 2.1 2.2zM642.8 87.6c-4.2-3.6-8.3-7.4-12.8-10.7-4-3-8.5-5.2-13.6-5.3a1.5 1.5 0 00-1 2.5l17 21.7 2-2.4c-8.6-4.3-14.2-14-24.2-15.5a1.5 1.5 0 00-1.5 2.5L620 94.6l1-2.5c-4.5-.4-8.2-3.3-11.7-5.8-3.7-2.6-7.5-5-12.1-5.4a1.5 1.5 0 00-1.3 2.2l9.2 15.6 1.7-2.2a191.6 191.6 0 01-31.5-16c-1.6-1-3.1 1.5-1.5 2.5A195.8 195.8 0 00606 99.4c1.2.5 2.3-1.2 1.6-2.2l-9.2-15.6-1.3 2.3c4.5.3 8.2 3.3 11.7 5.7 3.7 2.6 7.5 5 12.1 5.5 1.5 0 1.8-1.7 1-2.6L611 78.2l-1.5 2.5c4.7.8 8.5 3.6 12 6.6s7.1 6.5 11.4 8.7a1.5 1.5 0 001.9-2.4Q626 83 617.5 72l-1 2.6a22 22 0 0112.3 5.2c4.1 3 8 6.6 11.9 10 1.4 1.2 3.6-.9 2-2.2zM294 749.1a100 100 0 00-36-13.6 1.5 1.5 0 00-1.8 1.5c-.3 2.5 2 4 3.8 5l7.9 4.6 15.6 9.3 1.2-2.8c-12.5-4.4-25-8.7-38-10.8-1.5-.2-2.9 2-1.2 2.8a105.8 105.8 0 0126.7 16l1.4-2.5a180.7 180.7 0 00-42.3-11.3 1.5 1.5 0 00-.8 2.9 130.3 130.3 0 0130.2 16.4l1.6-2.6a82 82 0 00-42.3-7.5c-2 0-2 3 0 3 13.9-1 28.2.9 40.8 7.1a1.5 1.5 0 001.5-2.6 133 133 0 00-31-16.7l-.8 2.9a181 181 0 0142.3 11.3c1.4.5 2.6-1.6 1.5-2.5a108 108 0 00-27.3-16.5l-1.1 2.7c13 2.1 25.5 6.4 38 10.8 1.6.6 2.5-1.8 1.1-2.7l-14-8.3-6.8-4-3.4-2c-.8-.5-1.8-1-1.7-2l-2 1.4a98 98 0 0135.4 13.3c1.6 1 3.1-1.5 1.5-2.6zM355 506.1a52.1 52.1 0 019.1-15.9c3.8-4.4 8.4-9 14.3-10l-1.7-.8c1 1.8-1 4.3-2 5.8l-4.1 6.4-8.3 13.1c-.6.8-1.7 2-1.7 3a2.3 2.3 0 001.6 2c1.8.6 3.4-.8 4.5-2 2.8-2.7 5.4-5.8 8.1-8.6 3.1-3.2 6.5-6.1 10.7-7.7l-1.8-1c.9 2.7-2 5.5-3.4 7.5l-5.8 8c-.8 1.2 1 3 2.1 2a64 64 0 017.4-4.8 30.6 30.6 0 017.4-3.4c.8-.2 2-.4 2.6.3.8 1 .3 3 0 4a35.5 35.5 0 01-2.6 8.6c-.8 1.7 1.8 3.3 2.6 1.5a38.4 38.4 0 003.1-10.7 7.5 7.5 0 00-.3-4.6 4.3 4.3 0 00-3.4-2.2c-3.1-.4-6.3 1.5-9 2.9a63.5 63.5 0 00-9.4 5.8l2 2 6.7-9.1c1.8-2.5 3.8-5.4 2.8-8.6a1.5 1.5 0 00-1.8-1 32.5 32.5 0 00-12 8.2l-4.9 5.4-2.6 2.8-1.2 1.2a2.8 2.8 0 01-.6.5h-.2c-.4.1-.4.2.1.3v1.5l10-15.8 4.9-7.6c1.3-2.2 2.4-4.8 1-7.2a1.6 1.6 0 00-1.8-.7c-6.3 1.3-11.5 6.1-15.5 11a56.3 56.3 0 00-9.9 17.1c-.6 1.8 2.3 2.6 3 .8zM124 599c0-1.4.6-3 2.3-3.2a4 4 0 014.1 2.9 5.5 5.5 0 01-2.8 5.8 8.7 8.7 0 01-7.2.3c-3.9-1.5-7-6-5.9-10.1 1.3-4.5 6.5-6.7 10.7-6.9 5-.2 10 1.8 12.4 6.5a13 13 0 01-.8 13 15.6 15.6 0 01-12 6.8 18 18 0 01-11.2-3.5 17.8 17.8 0 01-6.4-20.4c3-8 12.1-11.8 20.1-11.4 8.7.5 16 7 18.9 15a22 22 0 01-4.2 21.5c-5.6 6.5-14.6 8.1-22.7 6.3A29.9 29.9 0 0199 605l-1.1-2.7c-.7-1.8-3.6-1-2.9.8a33.6 33.6 0 0018.3 19.7c9.2 3.9 21 3.5 28.7-3.3a25 25 0 00-15.6-43.7c-10-.2-20.6 5.6-22.8 15.9a21 21 0 0010.7 22.9 19.3 19.3 0 0015.2 1.6 18.2 18.2 0 0011.6-11.4 15.8 15.8 0 00-3.4-15.4 17 17 0 00-16.3-4c-5.1 1.2-10 5.1-10.2 10.8-.2 5.3 4 10.2 9 11.7 5.6 1.6 12.6-1.2 13.2-7.5a6.7 6.7 0 00-3.2-6.6 5.8 5.8 0 00-9.2 5.3 1.5 1.5 0 003 0zM406.8 73.7c0 1.5-.6 3.2-2.2 3.6a4.4 4.4 0 01-4.8-2.7 5.9 5.9 0 012.4-6.4 9.1 9.1 0 017.7-1c4.3 1.3 8.1 6 7.2 10.7-1 5.1-6.7 7.7-11.4 8-5.5.3-11-1.8-13.6-6.8a14 14 0 01.8-14.3 16.8 16.8 0 0112.8-7.4A19.5 19.5 0 01425 83.1c-3.1 8.7-12.9 12.9-21.6 12.5A23.8 23.8 0 01383 79.8a23.8 23.8 0 014.2-23.3c6-7.2 15.9-9 24.7-7a32.1 32.1 0 0121.7 17.7 32.5 32.5 0 011.2 3c.7 1.8 3.6 1 3-.8a36 36 0 00-19.5-21c-10-4.3-22.7-3.9-31 3.7a26.9 26.9 0 0016.4 46.5c10.7.4 22-5.6 24.7-16.5a22.4 22.4 0 00-10.9-24.7 21 21 0 00-16.2-2.1 19.6 19.6 0 00-12.6 11.6 17 17 0 003 16.7c4.2 4.9 11.4 6.2 17.5 4.8 5.6-1.3 11.1-5.6 11.1-11.8 0-5.6-4.3-10.7-9.6-12.2-5.9-1.8-13.2 1.1-14 7.8a7 7 0 003.5 7.1c2.2 1.2 5.2 1.5 7.2 0a6.9 6.9 0 002.5-5.6 1.5 1.5 0 00-3 0zM779.7 257.7c-4-.2-5.2-5.6-4.5-8.8a9.5 9.5 0 018.3-7.8 8.2 8.2 0 018.8 5.9 10 10 0 01-3 10.4c-2.7 2.4-8.4 3.8-10.6 0a1.5 1.5 0 00-2.6 1.5c2.6 4.5 9 4.7 13 2.3a13.1 13.1 0 006.4-13.5 11.2 11.2 0 00-10.6-9.5 12.4 12.4 0 00-12.3 8.9c-1.7 5.3.5 13.2 7 13.6 2 .1 2-2.9 0-3zM34 67a2.5 2.5 0 01-1.2-.4 4.1 4.1 0 01-1.2-1.6 5.8 5.8 0 01-.4-3.8 6.5 6.5 0 015.7-5.4 5.6 5.6 0 016 4 7 7 0 01-2 7.2 5.9 5.9 0 01-4 1.6 3.3 3.3 0 01-3.2-1.6 1.5 1.5 0 00-2.6 1.5c2 3.5 7 3.7 10.1 1.8A10 10 0 0046 60a8.6 8.6 0 00-8-7.2 9.7 9.7 0 00-9.1 13.5A6.2 6.2 0 0034 70a1.5 1.5 0 000-3zM365 296a267.1 267.1 0 0122.9-21c1.4-1.2-.7-3.3-2.2-2.1a267.2 267.2 0 00-23 21c-1.3 1.4.8 3.5 2.2 2.1zM372.6 300.6q13.7-14 28.7-26.6c1.5-1.2-.6-3.4-2-2.1q-15 12.6-28.8 26.6c-1.4 1.4.8 3.5 2.1 2.1zM385.5 300.7a183.6 183.6 0 0019.5-18.5c1.3-1.4-.8-3.5-2.1-2.1a183.6 183.6 0 01-19.6 18.4 1.5 1.5 0 002.1 2.2zM393.6 306.4q13-12 25.1-25c1.4-1.3-.7-3.5-2-2q-12.2 12.8-25.3 24.8c-1.4 1.4.7 3.5 2.2 2.2zM229.6 249.4l-.3-.2c.3.2 0 0-.1 0l-.3-.2s-.2-.2 0 0l-.4-.4c-.1-.1-.2-.3 0 0l-.3-.4-.1-.3-.3-.6c0-.2-.1-.8 0-.4v-.8-.3-.2-.5c0-.1.3-.7.1-.4l.4-.7s.2-.2 0 0a3.2 3.2 0 01.2-.2l.3-.3s.2-.1 0 0a5.8 5.8 0 01.7-.4s.3-.1 0 0a4.7 4.7 0 01.6-.2 5.1 5.1 0 01.6-.1H231.3a4.2 4.2 0 01.7 0h.2l.4.1a7.8 7.8 0 01.8.3l.4.2.6.4c.4.2-.2-.2.2 0 0 .2.2.3.4.5l.2.2.1.1.4.6a5 5 0 01.6 1.7 5.6 5.6 0 01-.3 3 3.8 3.8 0 01-1 1.5 2.5 2.5 0 01-.6.4l-.4.3h-.2a6.2 6.2 0 01-1 .4h-.3-1.5l-.4-.2a1.5 1.5 0 00-2 .5 1.5 1.5 0 00.6 2.1 7.3 7.3 0 008.7-2.2 8.2 8.2 0 00.2-9.4 8.4 8.4 0 00-8-3.4 6.3 6.3 0 00-5.4 5.4c-.4 3 1.1 6.2 4.1 7a1.5 1.5 0 10.8-2.8zM547.6 420.9a3.6 3.6 0 01-.3-.1c.3.1 0 0 0 0l-.3-.2c-.1 0-.3-.2 0 0l-.5-.4c-.2-.1-.2-.3 0 0 0-.2-.2-.3-.3-.4l-.1-.3-.2-.7-.1-.3a6.1 6.1 0 010-.8v-.4-.1V416.6l.2-.3a5.9 5.9 0 01.3-.7s.2-.3 0 0a2 2 0 01.3-.3 2.2 2.2 0 01.2-.2s.2-.2 0 0a4.7 4.7 0 01.8-.4s.2-.2 0 0a3.3 3.3 0 01.5-.2 4 4 0 01.7-.2h.5a5.7 5.7 0 01.8 0h.1l.4.2a6 6 0 01.8.3s-.2-.2 0 0l.4.1.6.4.2.1.4.4.2.2.1.2a5.5 5.5 0 01.4.6 5.1 5.1 0 01.7 1.7 5.7 5.7 0 01-.3 3 3.8 3.8 0 01-1.1 1.4 2.5 2.5 0 01-.6.5l-.4.2-.2.1a5.4 5.4 0 01-1 .3h-.3-1.5l-.3-.2a1.5 1.5 0 00-2 .6 1.5 1.5 0 00.5 2 7.3 7.3 0 008.7-2.1 8.2 8.2 0 00.1-9.5 8.3 8.3 0 00-7.9-3.4 6.3 6.3 0 00-5.4 5.4c-.4 3 1.1 6.2 4.1 7.1a1.5 1.5 0 10.8-2.9zM814 682.6l-.3-.1c.3 0 0 0-.1-.1l-.3-.2s-.3-.2 0 0a5 5 0 01-.5-.4s-.2-.3 0 0l-.2-.4-.2-.3-.2-.6c0-.2-.1-.8 0-.4a4.7 4.7 0 010-.8v-.3-.2-.2-.3l.1-.4a5.8 5.8 0 01.4-.7s.2-.2 0 0l.2-.2.3-.3s.2-.1 0 0a5.3 5.3 0 01.7-.4s.3-.1 0 0a5.5 5.5 0 01.5-.2 5.1 5.1 0 01.7-.1H815.7a5.5 5.5 0 01.7 0h.2a3.2 3.2 0 01.4 0 5.5 5.5 0 01.8.3l.4.2.6.4.1.1.5.4.1.2.2.2a4 4 0 01.4.6 5 5 0 01.6 1.7 5.5 5.5 0 01-.3 3 3.8 3.8 0 01-1 1.5 2.3 2.3 0 01-.6.4l-.4.2-.2.1a6 6 0 01-1 .3h-.4-1a3.7 3.7 0 01-.4 0l-.4-.1a1.6 1.6 0 00-2 .5 1.5 1.5 0 00.5 2 7.3 7.3 0 008.7-2.1 8.2 8.2 0 00.2-9.5 8.4 8.4 0 00-8-3.4 6.3 6.3 0 00-5.3 5.5c-.4 3 1 6.1 4 7a1.5 1.5 0 10.8-2.8z"/></g><g id="shapes"><g class="cls-4"><path fill="#cdae05" d="M383 715l8.7 4.5L380 762l-8.7-4.5 11.7-42.6z"/><path fill="#782045" d="M383.6 757.5l8.7 4.5H380l-8.7-4.5h12.3z"/><path class="cls-7" d="M415.4 715.8l8.7 4.6-32.4-1-8.7-4.5 32.4.9z"/><path fill="#b23066" d="M415.4 715.8l8.7 4.6-19.3 29-8.7-4.5 19.3-29.1z"/><path fill="#ceaf05" d="M383.6 757.5l8.7 4.5-10.1 40.8-8.7-4.6 10.1-40.7z"/><path class="cls-10" d="M425.4 710.4l8.7 4.6-19 28.8-8.8-4.6 19.1-28.8z"/><path class="cls-7" d="M413.5 744.9l8.7 4.5h-17.4l-8.7-4.5h17.4z"/><path fill="#ad2e63" d="M413.5 744.9l8.7 4.5-40 53.4-8.7-4.6 40-53.3z"/><path class="cls-12" d="M415.4 715.8l-19.3 29h17.4l-40 53.4 10.1-40.7h-12.3l11.7-42.6 32.4.9z"/><path class="cls-13" d="M406.3 739.2h18.1L362 822.7l14.7-59.6h-12.4l14.8-54 46.4 1.3zm-22.7 18.3l-10 40.7 40-53.3H396l19.3-29.1-32.4-.9-11.7 42.6h12.3"/><path class="cls-10" d="M424.4 739.2l8.7 4.6-62.5 83.5-8.7-4.6 62.6-83.5z"/></g><g class="cls-4"><path class="cls-14" d="M328.1 216.4l-8.4-4.6-4.5-26.9 8.4 4.6 4.5 26.9z"/><path class="cls-13" d="M301.3 186.2l-8.4-4.6 30.3-10.1 8.4 4.6-30.4 10z"/><path class="cls-14" d="M293.3 199.6l-8.4-4.5-5.4-32 8.4 4.5 5.4 32zM262.4 176.1l-8.4-4.5-1.7-10.3 8.4 4.6 1.7 10.2z"/><path class="cls-13" d="M260.7 166l-8.4-4.7 35.2-11.7 8.4 4.6-35.2 11.7z"/><path class="cls-12" d="M295.9 154.2l5.4 32 30.3-10.1 6.2 37-9.7 3.3-4.5-26.9-30.3 10.1-5.4-32-25.5 8.5-1.7-10.2 35.2-11.7z"/></g><g class="cls-4"><path class="cls-12" d="M293.4 559.3L288 572l-41.2 5.8L252 565l41.3-5.8z"/><path class="cls-10" d="M316.7 592.7l-5.2 12.7L288 572l5.3-12.7 23.3 33.4zM270.7 608.8l-5.2 12.7-35.5-51 5.2-12.6 35.5 50.9z"/><path class="cls-12" d="M333.6 600l-5.2 12.6-62.9 8.9 5.2-12.7 62.9-8.8z"/><path class="cls-13" d="M235.2 557.9L298 549l35.6 50.9-62.9 8.8zm81.5 34.8l-23.3-33.4-41.3 5.8 23.3 33.4 41.3-5.8"/></g><circle class="cls-15" cx="765.6" cy="128.2" r="29.8"/><path class="cls-16" d="M412.1 392.5a18.6 18.6 0 015.4-2.2 18.4 18.4 0 0112.4 1.5"/><circle class="cls-17" cx="395.6" cy="391.8" r="23.9"/><path class="cls-16" d="M430 391.8a18.4 18.4 0 11-17.9.7"/><path class="cls-10" d="M550.1 188.4l-13.9 2.7-36.6-42.3 4.7-13.4 45.8 53z"/><path class="cls-12" d="M536.2 191l-54.9 10.6 18.3-52.8 36.6 42.3z"/><path class="cls-16" d="M537.7 192.8l-59.4 11.4 19.9-57.1 1.4 1.7 36.6 42.3 1.5 1.7zM693.7 147.7l72.2-21.4-29-40.3-43.2 61.7z"/><path class="cls-18" d="M653 274.2l1 18-18 1 1 18-18 .9 1 18-18 1 .9 18-18 .9"/><path stroke-width="8.6" stroke="#fbd506" fill="none" stroke-miterlimit="10" d="M646 267.8l1 18-18 1 1 18-18 1h0l.9 17.9-18 1 1 18-18 1"/><path class="cls-18" d="M552.8 670.5l2 17.9 17.9-2.1 2 17.9 17.9-2 2 17.8 18-2 2 17.8 17.9-2"/><path stroke="#19bdc4" stroke-width="8.6" fill="none" stroke-miterlimit="10" d="M128.8 453.2l-2 17.9-17.9-2-2 17.8-17.9-2h0l-2 17.8-18-2-2 17.8-17.9-2"/><path class="cls-21" d="M842 384.6l-10.8 34.7-6.6 21"/><path class="cls-12" d="M809.8 384.6l46.4 4.8-27.4 37.9-27.4 37.8-19-42.7-19-42.6 46.4 4.8z"/><path class="cls-21" d="M824.6 440.3l-7.3 23.5-31.6-34.3-31.7-34.3 45.5-10.3 45.6-10.2-3.1 10"/><path class="cls-16" d="M42 237.4L53 272.1l6.5 21"/><path class="cls-15" d="M74.3 237.4l-46.4 4.9L55.3 280l27.3 37.8 19-42.6 19.1-42.7-46.4 4.8z"/><path class="cls-16" d="M59.4 293.1l7.4 23.5 31.6-34.3 31.7-34.3-45.6-10.3L39 227.6l3 10"/><path class="cls-14" d="M735.6 785.2l-9.1 4.3-14-12.3 9-4.4 14 12.4zM765.4 847.3l-9 4.3-14.1-12.3 9-4.4 14.1 12.4z"/><path class="cls-15" d="M736.5 803.9l-9.1 4.3-1-18.7 9.2-4.3.9 18.6z"/><path class="cls-14" d="M750.5 816.2l-9.1 4.4-14-12.4 9-4.4 14 12.4z"/><path class="cls-15" d="M751.4 834.9l-9.1 4.4-.9-18.7 9-4.4 1 18.7z"/><path class="cls-14" d="M761.4 785.5l-9.1 4.4-14-12.4 9-4.3 14 12.3z"/><path class="cls-15" d="M762.3 804.2l-9.1 4.4-1-18.7 9.2-4.4.9 18.7zM747.3 773.2l-9 4.3-1-18.6 9.1-4.4 1 18.7z"/><path class="cls-14" d="M776.3 816.6l-9.1 4.4-14-12.4 9-4.4 14.1 12.4z"/><path class="cls-15" d="M777.2 835.3l-9.1 4.3-.9-18.6 9.1-4.4.9 18.7z"/><path class="cls-14" d="M779.7 769.1l-9.1 4.4-14-12.3 9-4.4 14 12.4zM809.5 831.3l-9 4.3-14-12.3 9-4.4 14 12.4zM791.2 847.6l-9 4.4-14.1-12.4 9.1-4.3 14 12.3z"/><path class="cls-15" d="M780.6 787.8l-9.1 4.4-1-18.7 9.2-4.4.9 18.7z"/><path class="cls-14" d="M794.6 800.2l-9 4.4-14.1-12.4 9-4.4 14.1 12.4z"/><path class="cls-15" d="M795.5 818.9l-9 4.4-1-18.7 9.1-4.4.9 18.7z"/><path class="cls-13" d="M62.9 789.4l-9.1-4.4-14 12.4 9 4.3 14-12.3zM92.8 727.3l-9.1-4.4-14 12.4 9 4.3 14-12.3z"/><path class="cls-12" d="M63.8 770.7l-9.1-4.4-1 18.7 9.2 4.4.9-18.7z"/><path class="cls-13" d="M77.8 758.3l-9-4.3-14.1 12.3 9 4.4 14.1-12.4z"/><path class="cls-12" d="M78.7 739.6l-9-4.3-1 18.7 9.1 4.3 1-18.7z"/><path class="cls-13" d="M88.7 789l-9.1-4.4-14 12.4 9 4.4 14-12.4z"/><path class="cls-12" d="M89.6 770.3l-9.1-4.3-1 18.6 9.2 4.4.9-18.7zM74.7 801.4l-9.1-4.4-1 18.7 9.2 4.4.9-18.7z"/><path class="cls-13" d="M103.6 758l-9-4.4L80.4 766l9 4.3 14.1-12.3z"/><path class="cls-12" d="M104.5 739.3l-9-4.4-1 18.7 9.1 4.4 1-18.7z"/><path class="cls-13" d="M107 805.4l-9.1-4.4-14 12.4 9 4.4 14-12.4zM136.9 743.3l-9.1-4.4-14 12.4 9 4.4 14-12.4zM118.5 727l-9-4.5-14 12.4 9 4.4 14-12.4z"/><path class="cls-12" d="M107.9 786.7l-9.1-4.4-.9 18.7 9 4.4 1-18.7z"/><path class="cls-13" d="M122 774.3l-9.2-4.3-14 12.3 9 4.4 14.1-12.4z"/><path class="cls-12" d="M122.8 755.6l-9-4.3-1 18.7 9.1 4.3 1-18.6z"/><circle class="cls-12" cx="222.5" cy="377.6" r="31.1"/><path class="cls-16" d="M224.2 417.7l8-69.6-13.3 7.5 1.5-28.4-30 15.9 11.5 39.4 9.3-5.2 13 40.4z"/><path class="cls-10" d="M694 549.2l17.3 88.5 68-59.2-85.3-29.3z"/><path class="cls-21" d="M527.2 547.5a30.8 30.8 0 112-18.2"/><path class="cls-16" d="M504 542.2l68.4 56.4-22.3-62.8-46 6.4z"/><path class="cls-21" d="M529.2 529.3a31 31 0 01-2 18.2"/><path class="cls-17" d="M165.7 94.3A30.9 30.9 0 10153.5 83"/><path class="cls-16" d="M174.8 74l-68.3 56.4 22.3-62.8 46 6.4z"/><path class="cls-17" d="M153.5 82.9a30.8 30.8 0 0011.3 11l.9.4"/><path class="cls-12" d="M770 591l-65.4 30 6.7-71.5 58.6 41.6z"/><path stroke-width="6.4" stroke="#fbd506" fill="none" stroke-miterlimit="10" d="M772.3 592.8l-70.7 32.4 7.3-77.5 2.4 1.8 58.6 41.6 2.4 1.6z"/></g></svg>
