<svg xmlns="http://www.w3.org/2000/svg" width="1100" height="1044"><path d="M710.387 232.567l2.3-6.124h-203.7l-2.3 6.124 43.651 5.359L488.3 467.6H307.574L369.6 237.926l45.949-5.359 1.531-6.124h-203.7l-2.3 6.124 43.651 5.359L127.61 710.29l-45.948 6.13-1.531 6.12H284.6l.766-6.12-42.885-6.13 62.03-231.21h180.73l-62.03 231.21-45.948 6.13-1.532 6.12h203.7l1.531-6.12-42.885-6.13 127.128-472.364zm300.933-6.124H804.552l-2.3 6.124 45.183 5.359L729.5 678.14c-6.892 24.5-22.208 39.81-48.246 39.81a79.1 79.1 0 01-19.911-2.3v-8.42c18.38-5.36 32.93-22.2 32.93-45.17s-15.316-42.11-44.417-42.11c-23.74 0-46.714 19.14-46.714 45.94 0 34.45 36.759 62.77 79.644 62.77 113.339 0 166.945-71.19 188.388-151.58l91.133-339.154 46.71-5.359zm3.82 442.507c0-26.8-19.14-52.83-54.37-52.83-30.63 0-58.97 26.03-58.97 57.42 0 33.69 21.45 55.12 54.38 55.12 29.86 0 58.96-22.96 58.96-59.71z" fill-rule="evenodd" data-name="Artboard 1"/></svg>
