<svg xmlns="http://www.w3.org/2000/svg" width="174px" height="104px" viewBox="0 0 174 104"><path d="M100.6,50.2c9.7,0,18.2-4.9,18.2-14.6c0-4.5-3.1-10.8-12.4-11.8c6.8-1.5,9.8-5.7,9.8-11C116.2,4,108.1,0,98.7,0H70.4v50.2 H100.6L100.6,50.2z M97.2,29.8c5.4,0,8.1,2,8.1,4.9c0,3.2-2.7,5.2-8.3,5.2H83.9V29.8H97.2L97.2,29.8z M83.9,19.7v-9.5h10.8 c5.7,0,8.1,1.6,8.1,4.7c0,3.5-3.3,4.7-8.7,4.7H83.9L83.9,19.7z M136.2,0l-19.1,50.2h14.7l3.2-9.3h20.1l3.5,9.3H174L154.6,0H136.2 L136.2,0z M138.4,30.4l6.5-19.2l6.7,19.2H138.4L138.4,30.4z M21.7,31.9c4.9,0,6.4,0.4,8.4,2.8c2.4,2.9,2.8,11.3,5,15.6h15.5 c-1.5-1.3-2.4-3-3-5l-0.9-3.4c-1.3-4.9-2.4-10-6.4-12.8c-1.4-1-2.9-1.6-4.8-2.1c7.1-1.2,12.1-5,12.1-13C47.6,3.9,38,0,29.2,0H0v50.2 h13.5V31.9H21.7L21.7,31.9z M13.5,10.4H26c3.7,0,7.8,1.4,7.8,5.3c0,4-3.3,5.9-8.9,5.9H13.5V10.4L13.5,10.4z M66.5,50.2H53V0h13.5 V50.2L66.5,50.2z M66.5,53.9v30.6c0,9.8-4.2,19.5-19.9,19.5c-17.2,0-19.8-10.5-19.8-15.4V84h13.6v2.5c0,4.7,1.9,6.8,6.2,6.8 c5.1,0,6.4-3.1,6.4-7.4v-32H66.5L66.5,53.9z M75.7,55.8h3v-1.9h-8.2v1.9h3v6.6h2.3V55.8L75.7,55.8z M81.5,59.6c0-1,0.4-1.5,1-1.5 c0.5,0,0.8,0.3,0.8,1v3.3h2.1v-3.9c0-1.5-0.9-2.1-2.1-2.1c-0.9,0-1.5,0.4-1.8,1v-3.6h-2.1v8.5h2.1V59.6L81.5,59.6z M89.3,58 c0.6,0,1,0.3,1,0.8h-2C88.3,58.5,88.6,58,89.3,58L89.3,58z M86.1,59.6c0,1.8,1.2,3,3.2,3c1.8,0,2.9-0.9,3.1-2.1l-2.2-0.2 c0,0.3-0.3,0.7-1,0.7c-0.4,0-1.1-0.2-1.1-1h4.2l0.1-0.1c0-1.9-1.2-3.3-3.3-3.3C87,56.4,86.1,58.2,86.1,59.6L86.1,59.6z M99.4,59.3 c0.8,0,1.1,0.1,1.4,0.5c0.4,0.5,0.5,1.9,0.8,2.6h2.6c-0.2-0.2-0.4-0.5-0.5-0.9l-0.1-0.6c-0.2-0.8-0.4-1.7-1-2.2 c-0.2-0.2-0.5-0.3-0.8-0.4c1.1-0.2,2-0.8,2-2.2c0-1.5-1.4-2.4-2.9-2.4h-4.9v8.5h2.2v-3.1H99.4L99.4,59.3z M98.1,55.7h2.1 c0.6,0,1.3,0.2,1.3,0.9c0,0.7-0.5,1-1.5,1h-1.9V55.7L98.1,55.7z M107.3,62.4v-8.5H105v8.5H107.3L107.3,62.4z M113.8,62.4 c1.6,0,3-0.8,3-2.5c0-0.8-0.5-1.8-2-2c1.1-0.3,1.6-1,1.6-1.9c0-1.5-1.3-2.2-2.9-2.2h-4.7v8.5H113.8L113.8,62.4z M113.3,59 c0.9,0,1.3,0.3,1.3,0.8c0,0.5-0.4,0.9-1.4,0.9h-2.2V59H113.3L113.3,59z M111.1,57.3v-1.6h1.8c0.9,0,1.3,0.3,1.3,0.8 c0,0.6-0.5,0.8-1.4,0.8H111.1L111.1,57.3z M120.1,53.9l-3.2,8.5h2.4l0.5-1.6h3.3l0.6,1.6h2.6l-3.2-8.5H120.1L120.1,53.9z M120.4,59.1l1.1-3.3l1.1,3.3H120.4L120.4,59.1z M135.4,53.9h-2.2v5.6c0,0.7-0.2,1.3-1.1,1.3c-0.7,0-1-0.4-1-1.1v-0.4h-2.2V60 c0,0.8,0.4,2.6,3.3,2.6c2.6,0,3.3-1.7,3.3-3.3V53.9L135.4,53.9z M138.3,59.5c0-1,0.5-1.5,1.3-1.5c0.8,0,1.3,0.6,1.3,1.5 c0,1-0.5,1.5-1.3,1.5C138.8,61.1,138.3,60.5,138.3,59.5L138.3,59.5z M142.9,59.5c0-1.8-1.3-3.1-3.3-3.1c-2,0-3.3,1.3-3.3,3.1 c0,1.8,1.3,3.1,3.3,3.1C141.6,62.6,142.9,61.3,142.9,59.5L142.9,59.5z M147.5,56.6v3.1c0,0.7-0.2,1.4-0.9,1.4c-0.5,0-0.8-0.3-0.8-1 v-3.4h-2.1v3.8c0,1.5,0.9,2.2,2.1,2.2c1,0,1.7-0.6,1.9-1.3v1.2h2v-5.9H147.5L147.5,56.6z M156.3,59.3c0.1-0.4,0.1-0.7,0.1-1 c0-1.4-0.7-1.9-1.7-1.9c-0.7,0-1.5,0.5-1.8,1.4v-1.2h-2.1v5.9h2.1v-1.8c0-1.1,0-2.4,0.8-2.4c0.4,0,0.5,0.4,0.5,0.8 c0,0.2,0,0.4-0.1,0.6l0.1,0.1L156.3,59.3L156.3,59.3z M159.1,59.6c0-1,0.4-1.5,1-1.5c0.5,0,0.8,0.3,0.8,1v3.3h2.1v-3.9 c0-1.5-0.9-2.1-2.1-2.1c-0.9,0-1.5,0.4-1.8,1v-0.9h-2.1v5.9h2.1V59.6L159.1,59.6z M170.2,61.4c-0.1,0-0.2,0-0.2,0 c-0.3,0-0.4-0.1-0.4-0.5v-2.4c0-1.5-1.2-2.1-2.9-2.1c-2.1,0-2.7,1.1-2.7,2.2h2.1c0-0.5,0.3-0.7,0.7-0.7c0.5,0,0.7,0.2,0.7,0.6v0.3 c0,0-1.4,0.1-1.9,0.3c-1,0.2-1.8,0.7-1.8,1.7c0,0.7,0.5,1.7,2,1.7c0.9,0,1.5-0.3,1.9-0.9c0,0.4,0.4,0.9,1.4,0.9c0.5,0,1-0.1,1.2-0.2 L170.2,61.4L170.2,61.4z M166.6,61.2c-0.4,0-0.6-0.3-0.6-0.6c0-0.4,0.2-0.5,0.6-0.5c0.2,0,0.6-0.1,1-0.1v0.3 C167.5,60.8,167.2,61.2,166.6,61.2L166.6,61.2z M173,62.4v-8.5h-2.1v8.5H173L173,62.4z"/></svg>
