<svg xmlns="http://www.w3.org/2000/svg" width="1056" height="816" viewBox="226.28551 252 339.42926 108.00031"><path d="M281.2827 349.9248l-4.906-12.641 47.421 2.438-2.129 20.232zM292.6455 252l-66.36 31.348 10.263 47.237h13.536l-2.338-33.79 2.077-.644 8.139 34.434h14.063l-.521-41.16 2.078-.644 7.113 41.804h14.889l3.512-49.718 2.076-.644 3.685 50.362h19.688l6.93-69.137zM497.585 354.835l-.137-3.941 13.624-.161.125-4.295-13.91-.173-.139-3.99 18.326-.429.151-4.712h-24.724L490.164 360h25.917l-.182-4.721zm-123.275-8.407l-.291 4.278 6.876.23-.087 4.343-14.392-.422.627-12.544 19.788-.458-.286-4.721h-25.56L358.693 360h29.123l-.755-13.794zm180.39 1.769l-18.889-3.193.082-2.475 18.07-.674-.456-4.721h-23.228l-1.188 11.852 19.203 3.339.087 2.178-19.98.776-.49 4.721h27.964zM477.623 360l-2.292-22.866h-6.58l-9.453 10.9-9.454-10.9h-6.58L440.972 360h7.73l.74-14.834 9.856 10.113 9.854-10.113.742 14.834zm-32.4873-106.60251h-15.471l-1.408 70.714h18.692zm47.9385 55.33201l-17.071.551-.566-41.588 17.854.541zm14.961-55.301h-48.234l-1.878 70.683h53.537zm57.6796 15.4441l-1.723-15.475h-47.524l.402 13.785 15.2.526 1.558 56.403h18.73l-5.603-55.895zm-183.727-1.0093l14.908-.499 1.699 14.089-17.207 8.128zm17.417 56.248h20.303l-13.232-31.737 10.559-5.769-7.214-33.208h-51.828l-1.706 15.325 11.594-.387-5.591 55.776h18.145l.491-17.78 13.074-7.142zm9.8745 25.583l1.572-7.481 7.548-.341 1.577 7.507zm12.93 10.306h7.827l-6.193-22.867h-18.365l-6.192 22.867h7.827l1.212-5.769 12.706.164z" data-name="Layer" fill="#d1393a"/></svg>
