<svg xmlns="http://www.w3.org/2000/svg" width="367" height="161.96" viewBox="0 -0.02999 367 162.03"><path fill="#802362" d="M320.5 39.52v36.75h-35.84v9.41h35.84v36.76h10.67V85.68H367v-9.41h-35.83V39.52H320.5z"/><path d="M11.31 22.3c-3-13.71-3.69-16-8.08-17.19L0 4.17V.91h40.85v3.26l-3.46.7c-7.38 1.63-6.68 9.06-4.61 19.06L51 115l13.39-72.5-4.85-24.86C57.7 8.81 57.01 6.02 52.39 4.86l-3-.7V.9h42.23v3.26l-5.08.94c-7.61 1.39-6.46 9.75-4.61 18.82L99.45 115l17.31-86.21c3.23-17.89 1.62-22.31-5.29-23.7l-4.86-.94V.89h29.3v3.26l-3.23 1.16c-4.61 1.62-5.77 6-9 21.38L95.53 162h-6L67.84 56.46 48.23 162h-7.61zM172 162c-13.39 0-18-9.28-22.38-9.28-2.53 0-5.53.68-7.84 8.36H139V108h3.47c2.77 30 13.84 48.8 29.3 48.8 10.39 0 17.54-9.53 17.54-26.73 0-36.25-51.46-51.82-51.46-92 0-21.6 10.84-38.1 30.46-38.1 12.7 0 15.23 8.36 20.54 8.36 3 0 5.06-2.32 6.22-7.44h2.78v53h-3.46c-2.76-26.73-9.69-48.8-26.32-48.8-11.52 0-13.6 11.62-13.6 19.51 0 34.63 51.47 46.48 51.47 94.81 0 24.63-13.39 42.52-33.93 42.52m99.86-37.85c0 24.87-12.47 37.87-31.62 37.87C223 162 212.8 147.78 213 132.22c.24-12.09 9-18.13 16.15-17.2 5.08.69 10.15 4.41 9.46 12.55-.61 11.61-13.12 11.15-13.61 18.35-.47 4.42 5.31 10.93 12.69 10.93 12.92 0 12.92-16.5 12.92-29V15.09c0-6.5-2.07-8.36-7.15-9.52l-5.77-1.4V.91h45.45v3.26l-5.07 1.4c-4.6 1.16-6.23 3.25-6.23 9.75v108.76z"/></svg>
