<svg xmlns="http://www.w3.org/2000/svg" viewBox="0 0 174 104"><path d="M100.6 50.2c9.7 0 18.2-4.9 18.2-14.6 0-4.5-3.1-10.8-12.4-11.8 6.8-1.5 9.8-5.7 9.8-11C116.2 4 108.1 0 98.7 0H70.4v50.2h30.2zm-3.4-20.4c5.4 0 8.1 2 8.1 4.9 0 3.2-2.7 5.2-8.3 5.2H83.9V29.8h13.3zM83.9 19.7v-9.5h10.8c5.7 0 8.1 1.6 8.1 4.7 0 3.5-3.3 4.7-8.7 4.7H83.9v.1zM136.2 0l-19.1 50.2h14.7l3.2-9.3h20.1l3.5 9.3H174L154.6 0h-18.4zm2.2 30.4l6.5-19.2 6.7 19.2h-13.2zM21.7 31.9c4.9 0 6.4.4 8.4 2.8 2.4 2.9 2.8 11.3 5 15.6h15.5c-1.5-1.3-2.4-3-3-5l-.9-3.4c-1.3-4.9-2.4-10-6.4-12.8a14 14 0 00-4.8-2.1c7.1-1.2 12.1-5 12.1-13C47.6 3.9 38 0 29.2 0H0v50.2h13.5V31.9h8.2zm-8.2-21.5H26c3.7 0 7.8 1.4 7.8 5.3 0 4-3.3 5.9-8.9 5.9H13.5V10.4zm53 39.8H53V0h13.5v50.2zm0 3.7v30.6c0 9.8-4.2 19.5-19.9 19.5-17.2 0-19.8-10.5-19.8-15.4V84h13.6v2.5c0 4.7 1.9 6.8 6.2 6.8 5.1 0 6.4-3.1 6.4-7.4v-32h13.5zm9.2 1.9h3v-1.9h-8.2v1.9h3v6.6h2.3v-6.6h-.1zm5.8 3.8c0-1 .4-1.5 1-1.5.5 0 .8.3.8 1v3.3h2.1v-3.9c0-1.5-.9-2.1-2.1-2.1-.9 0-1.5.4-1.8 1v-3.6h-2.1v8.5h2.1v-2.7zm7.8-1.6c.6 0 1 .3 1 .8h-2c0-.3.3-.8 1-.8zm-3.2 1.6c0 1.8 1.2 3 3.2 3 1.8 0 2.9-.9 3.1-2.1l-2.2-.2c0 .3-.3.7-1 .7-.4 0-1.1-.2-1.1-1h4.2l.1-.1c0-1.9-1.2-3.3-3.3-3.3-2.1-.2-3 1.6-3 3zm13.3-.3c.8 0 1.1.1 1.4.5.4.5.5 1.9.8 2.6h2.6a2 2 0 01-.5-.9l-.1-.6c-.2-.8-.4-1.7-1-2.2l-.8-.4c1.1-.2 2-.8 2-2.2 0-1.5-1.4-2.4-2.9-2.4H96v8.5h2.2v-3.1h1.2v.2zm-1.3-3.6h2.1c.6 0 1.3.2 1.3.9s-.5 1-1.5 1h-1.9v-1.9zm9.2 6.7v-8.5H105v8.5h2.3zm6.5 0c1.6 0 3-.8 3-2.5 0-.8-.5-1.8-2-2 1.1-.3 1.6-1 1.6-1.9 0-1.5-1.3-2.2-2.9-2.2h-4.7v8.5h5v.1zm-.5-3.4c.9 0 1.3.3 1.3.8s-.4.9-1.4.9H111V59h2.3zm-2.2-1.7v-1.6h1.8c.9 0 1.3.3 1.3.8 0 .6-.5.8-1.4.8h-1.7zm9-3.4l-3.2 8.5h2.4l.5-1.6h3.3l.6 1.6h2.6l-3.2-8.5h-3zm.3 5.2l1.1-3.3 1.1 3.3h-2.2zm15-5.2h-2.2v5.6c0 .7-.2 1.3-1.1 1.3-.7 0-1-.4-1-1.1v-.4h-2.2v.7c0 .8.4 2.6 3.3 2.6 2.6 0 3.3-1.7 3.3-3.3v-5.4h-.1zm2.9 5.6c0-1 .5-1.5 1.3-1.5s1.3.6 1.3 1.5c0 1-.5 1.5-1.3 1.5-.8.1-1.3-.5-1.3-1.5zm4.6 0c0-1.8-1.3-3.1-3.3-3.1-2 0-3.3 1.3-3.3 3.1s1.3 3.1 3.3 3.1c2 0 3.3-1.3 3.3-3.1zm4.6-2.9v3.1c0 .7-.2 1.4-.9 1.4-.5 0-.8-.3-.8-1v-3.4h-2.1v3.8c0 1.5.9 2.2 2.1 2.2 1 0 1.7-.6 1.9-1.3v1.2h2v-5.9h-2.2v-.1zm8.8 2.7l.1-1c0-1.4-.7-1.9-1.7-1.9a2 2 0 00-1.8 1.4v-1.2h-2.1v5.9h2.1v-1.8c0-1.1 0-2.4.8-2.4.4 0 .5.4.5.8l-.1.6.1.1 2.1-.5zm2.8.3c0-1 .4-1.5 1-1.5.5 0 .8.3.8 1v3.3h2.1v-3.9c0-1.5-.9-2.1-2.1-2.1-.9 0-1.5.4-1.8 1v-.9H157v5.9h2.1v-2.8zm11.1 1.8h-.2c-.3 0-.4-.1-.4-.5v-2.4c0-1.5-1.2-2.1-2.9-2.1-2.1 0-2.7 1.1-2.7 2.2h2.1c0-.5.3-.7.7-.7.5 0 .7.2.7.6v.3s-1.4.1-1.9.3c-1 .2-1.8.7-1.8 1.7 0 .7.5 1.7 2 1.7.9 0 1.5-.3 1.9-.9 0 .4.4.9 1.4.9l1.2-.2-.1-.9zm-3.6-.2c-.4 0-.6-.3-.6-.6 0-.4.2-.5.6-.5l1-.1v.3c-.1.5-.4.9-1 .9zm6.4 1.2v-8.5h-2.1v8.5h2.1z"/></svg>
