<svg xmlns="http://www.w3.org/2000/svg" viewBox="226.3 252 339.4 108"><path d="M281.3 350l-5-12.7 47.5 2.4-2.1 20.3zm11.3-98l-66.3 31.3 10.2 47.3h13.6l-2.4-33.8 2.1-.6 8.2 34.4h14l-.5-41.2 2-.6 7.2 41.8h14.9l3.5-49.7 2-.7 3.8 50.4h19.6l7-69.2zm205 102.8l-.2-4h13.7l.1-4.4-14-.1v-4l18.3-.5.1-4.7H491l-.7 22.9H516l-.2-4.7zm-123.3-8.4l-.3 4.3 6.9.2v4.4l-14.5-.4.6-12.6 19.8-.4-.3-4.8H361l-2.3 22.9h29.1l-.7-13.8zm180.4 1.8l-18.9-3.2v-2.5l18.2-.6-.5-4.8h-23.2L529 349l19.2 3.3v2.2l-19.9.8-.5 4.7h28zm-77 11.8l-2.4-22.9h-6.5l-9.5 11-9.5-11h-6.5L441 360h7.7l.7-14.8 9.9 10 9.9-10 .7 14.8zM445 253.4h-15.4l-1.4 70.7h18.6zm48 55.3l-17.1.6-.6-41.6 17.9.5zm15-55.3h-48.3l-1.9 70.7h53.6zm57.6 15.5l-1.7-15.5h-47.5l.4 13.8 15.2.5 1.5 56.4h18.8l-5.6-55.9zm-183.7-1l14.9-.5 1.7 14-17.2 8.2zm17.4 56.2h20.3l-13.2-31.7 10.5-5.8-7.2-33.2H358l-1.7 15.3 11.6-.4-5.6 55.8h18.1l.5-17.8 13.1-7.1zm9.9 25.6l1.6-7.5 7.5-.3 1.6 7.5zm13 10.3h7.7l-6.2-22.9h-18.3l-6.2 22.9h7.8l1.2-5.8 12.7.2z" data-name="Layer"/></svg>
