<svg xmlns="http://www.w3.org/2000/svg" viewBox="0 0 367 162"><title>Wall Street Journal Logo</title><path d="M320.5 39.5v36.8h-35.8v9.4h35.8v36.7h10.7V85.7H367v-9.4h-35.8V39.5h-10.7z"/><path d="M11.3 22.3c-3-13.7-3.7-16-8-17.2L0 4.1V1h40.9v3.3l-3.5.7c-7.4 1.6-6.7 9-4.6 19L51 115l13.4-72.5-4.9-24.9C57.7 8.8 57 6 52.4 5l-3-.7V.9h42.2v3.3l-5 .9c-7.7 1.4-6.5 9.8-4.7 18.8L99.4 115l17.4-86.2c3.2-17.9 1.6-22.3-5.3-23.7l-4.9-1V1H136v3.3l-3.2 1.1c-4.6 1.6-5.8 6-9 21.4L95.5 162h-6L67.8 56.5 48.2 162h-7.6zM172 162c-13.4 0-18-9.3-22.4-9.3-2.5 0-5.5.7-7.8 8.4H139V108h3.5c2.7 30 13.8 48.8 29.3 48.8 10.4 0 17.5-9.5 17.5-26.7 0-36.3-51.5-51.8-51.5-92 0-21.6 10.9-38.1 30.5-38.1 12.7 0 15.2 8.3 20.5 8.3 3 0 5.1-2.3 6.3-7.4h2.7v53h-3.4C191.6 27.2 184.7 5 168 5c-11.6 0-13.6 11.6-13.6 19.5 0 34.6 51.4 46.5 51.4 94.8C206 144 192.5 162 172 162m99.9-37.8c0 24.9-12.5 37.9-31.6 37.9-17.3 0-27.5-14.2-27.3-29.8.2-12 9-18.1 16.1-17.2 5.1.7 10.2 4.4 9.5 12.6-.6 11.6-13.1 11.1-13.6 18.3-.5 4.4 5.3 11 12.7 11 13 0 13-16.6 13-29V15c0-6.5-2.2-8.4-7.2-9.5l-5.8-1.4V.9H283v3.3l-5 1.4c-4.6 1.1-6.3 3.2-6.3 9.7v108.8z"/></svg>
