<svg xmlns="http://www.w3.org/2000/svg" viewBox="0 0 1100 1044"><title>HJ Digital Logo</title><path d="M710 233l3-7H509l-2 7 43 5-62 230H308l62-230 46-5 1-7H213l-2 7 44 5-127 472-46 6-2 7h205v-7l-43-6 63-231h180l-62 231-46 6-1 7h203l2-7-43-6 127-472zm301-7H805l-3 7 45 5-117 440c-7 25-23 40-49 40a79 79 0 01-20-2v-9c19-5 33-22 33-45s-15-42-44-42c-24 0-47 19-47 46 0 34 37 63 80 63 113 0 167-72 188-152l91-339 47-5zm4 443c0-27-19-53-54-53-31 0-59 26-59 58 0 33 21 55 54 55 30 0 59-23 59-60z" fill-rule="evenodd" /></svg>
